<?xml version="1.0" encoding="UTF-8" standalone="no"?>
<svg
   xmlns:dc="http://purl.org/dc/elements/1.1/"
   xmlns:cc="http://creativecommons.org/ns#"
   xmlns:rdf="http://www.w3.org/1999/02/22-rdf-syntax-ns#"
   xmlns:svg="http://www.w3.org/2000/svg"
   xmlns="http://www.w3.org/2000/svg"
   xmlns:sodipodi="http://sodipodi.sourceforge.net/DTD/sodipodi-0.dtd"
   xmlns:inkscape="http://www.inkscape.org/namespaces/inkscape"
   height="65.5"
   version="1.1"
   width="95.054047"
   style="overflow:hidden"
   id="svg2"
   inkscape:version="0.48.4 r9939"
   sodipodi:docname="if.svg">
  <rect
     class="x-name y-name"
     x="6.0570636"
     y="48.153595"
     width="11.792159"
     height="12.456669"
     style="fill:#0088cc;stroke:#0088cc;stroke-width:2.66870522;overflow:hidden"
     id="bottomLeftBase"
     inkscape:label="#rect11-1-0" />
  <rect
     class="x-name y-name"
     x="38.560219"
     y="48.463371"
     width="42.246483"
     height="10.816213"
     style="fill:#0088cc;stroke:#0088cc;stroke-width:4.70690966;overflow:hidden"
     id="bottomExpandBox"
     inkscape:label="#rect11-1-0" />
  <metadata
     id="metadata16">
    <rdf:RDF>
      <cc:Work
         rdf:about="">
        <dc:format>image/svg+xml</dc:format>
        <dc:type
           rdf:resource="http://purl.org/dc/dcmitype/StillImage" />
        <dc:title></dc:title>
      </cc:Work>
    </rdf:RDF>
  </metadata>
  <sodipodi:namedview
     pagecolor="#ffffff"
     bordercolor="#666666"
     borderopacity="1"
     objecttolerance="10"
     gridtolerance="10"
     guidetolerance="10"
     inkscape:pageopacity="0"
     inkscape:pageshadow="2"
     inkscape:window-width="1918"
     inkscape:window-height="1053"
     id="namedview14"
     showgrid="false"
     fit-margin-top="0"
     fit-margin-left="0"
     fit-margin-right="0"
     fit-margin-bottom="0"
     inkscape:zoom="4"
     inkscape:cx="57.59575"
     inkscape:cy="58.272142"
     inkscape:window-x="0"
     inkscape:window-y="25"
     inkscape:window-maximized="1"
     inkscape:current-layer="svg2" />
  <desc
     id="desc4">Created with Raphaël 2.1.0</desc>
  <defs
     id="defs6" />
  <!--
  <path
     d="m 0.5,3.5 a 3,3 0 0 1 3,-3 l 6,0 3,3 8,0 3,-3 79,0 m 0,0 a 3,3 0 0 1 3,3 l -105,0"
     style="fill:#0088cc;stroke:#0088cc"
     id="path8"
     inkscape:connector-curvature="0" />
  <rect
     x="0.5"
     y="3.5"
     width="105"
     height="12"
     r="0"
     rx="0"
     ry="0"
     style="fill:#0088cc;stroke:#0088cc"
     id="rect10" />
  <path
     d="m 0.5,14.5 a 3,3 0 0 0 3,3 l 6,0 3,3 8,0 3,-3 79,0 m 0,0 a 3,3 0 0 0 3,-3 l -105,0"
     style="fill:#0088cc;stroke:#0088cc"
     id="path12"
     inkscape:connector-curvature="0" />
-->
  <path
     d="M 9.1581005,5.2596686 A 3.5336527,3.8448907 0 0 1 12.691754,1.414778 l 7.067305,0 3.533653,3.8448906 9.423074,0 3.533653,-3.7167276 0,3.7167276"
     style="fill:#0088cc;stroke:#0088cc;stroke-width:1.22866261"
     id="topInIndent"
     inkscape:connector-curvature="0"
     inkscape:label="#path8" />
  <rect
     class="x-name y-name"
     x="39.551323"
     y="3.4875526"
     width="40.39093"
     height="17.457895"
     style="fill:#0088cc;stroke:#0088cc;stroke-width:5.84710503"
     id="topExpandBox"
     inkscape:label="#rect11" />
  <rect
     class="x-name y-name"
     x="8.8288002"
     y="4.8970318"
     width="28.168869"
     height="15.405936"
     r="0"
     rx="0"
     ry="0"
     style="fill:#0088cc;stroke:#0088cc;stroke-width:0.57006294"
     id="topIndentRect"
     inkscape:label="#rect10" />
  <path
     d="m 9.1337692,19.916 a 3.54,3.54 0 0 0 3.5400008,3.54 l 7.08,0 3.54,3.54 9.44,0 3.54,-3.54 0,-3.658"
     style="fill:#0088cc;stroke:#0088cc;stroke-width:1.17999995"
     id="topOutIndent"
     class="y-shift-name"
     inkscape:connector-curvature="0"
     inkscape:label="#path12" />
  <text
     id="name"
     x="14.443769"
     y="16.493999"
     style="font-size:9.43999958px">IF</text>
  <rect
     class="x-name y-name"
     x="5.0559735"
     y="2.2427516"
     width="7.9972148"
     height="20.403877"
     style="fill:#0088cc;stroke:#0088cc;stroke-width:2.81273437;overflow:hidden"
     id="rect11-1" />
  <path
     style="fill:#0088cc;stroke:#0088cc;stroke-width:1.22899997;stroke-miterlimit:4;stroke-dasharray:none;overflow:hidden"
     d="m 3.8999917,1.4442854 a 3.5336527,3.8448907 0 0 0 -3.28125006,3.84375 l 3.78125006,0 -0.03125,-3.84375 -0.21875,0 a 3.5336527,3.8448907 0 0 0 -0.25,0 z"
     id="topLeftCorner"
     inkscape:connector-curvature="0"
     inkscape:label="#path8-2" />
  <path
     style="fill:#0088cc;stroke:#0088cc;stroke-width:1.22899997;stroke-miterlimit:4;stroke-dasharray:none;overflow:hidden"
     d="m 4.2760862,57.787292 -3.65625006,0.03125 a 3.54,3.54 0 0 0 3.53125006,3.53125 l 0.125,0 0,-3.5625 z"
     id="bottomLeftCorner"
     inkscape:connector-curvature="0"
     inkscape:label="#path12-9" />
  <rect
     class="x-name y-name"
     x="2.146955"
     y="7.2988272"
     width="7.9311714"
     height="48.328293"
     style="fill:#0088cc;stroke:#0088cc;stroke-width:4.31094408;overflow:hidden"
     id="spine"
     inkscape:label="#rect11-1-0" />
  <path
     style="fill:#0088cc;stroke:#0088cc;stroke-width:1.18324482;overflow:hidden"
     d="m 77.852541,1.151826 0,3.528006 16.606133,0 a 3.5627697,3.5367472 0 0 0 -3.58542,-3.528006 l -13.020713,0 z"
     id="topRightCorner"
     inkscape:connector-curvature="0"
     inkscape:label="#path9-8" />
  <path
     style="fill:#0088cc;stroke:#0088cc;stroke-width:1.16730976;overflow:hidden"
     d="m 77.828949,19.737609 0,3.54394 13.163885,0 a 3.4518636,3.5527214 0 0 0 3.47381,-3.54394 l -16.637695,0 z"
     id="topBRcorner"
     inkscape:connector-curvature="0"
     inkscape:label="#path15-3" />
  <rect
     class="x-name y-name"
     x="77.472977"
     y="4.8271337"
     width="17.349634"
     height="14.756888"
     r="0"
     rx="0"
     ry="0"
     style="fill:#0088cc;stroke:#0088cc;stroke-width:0.43786135;overflow:hidden"
     id="topRightRect"
     inkscape:label="#rect10-9" />
  <path
     style="fill:#0088cc;stroke:#0088cc;stroke-width:1.18324482;overflow:hidden"
     d="m 77.434072,46.700115 0,3.528006 16.606128,0 a 3.5627697,3.5367472 0 0 0 -3.58542,-3.528006 l -13.020708,0 z"
     id="bottomTRcorner"
     inkscape:connector-curvature="0"
     inkscape:label="#path9-8-9" />
  <path
     style="fill:#0088cc;stroke:#0088cc;stroke-width:1.16730976;overflow:hidden"
     d="m 77.388384,57.518772 0,3.54394 13.163886,0 a 3.4518636,3.5527214 0 0 0 3.47381,-3.54394 l -16.637696,0 z"
     id="bottomRightCorner"
     inkscape:connector-curvature="0"
     inkscape:label="#path15-3-2" />
  <rect
     class="x-name y-name"
     x="76.38047"
     y="49.549591"
     width="18.100143"
     height="7.9902134"
     r="0"
     rx="0"
     ry="0"
     style="fill:#0088cc;stroke:#0088cc;stroke-width:0.32908961;overflow:hidden"
     id="bottomRightRect"
     inkscape:label="#rect10-9-1" />
  <path
     inkscape:connector-curvature="0"
     style="fill:#0088cc;stroke:#0088cc;stroke-width:1.22866261;overflow:hidden"
     d="m 18.84319,47.45011 0,3.84375 4.125,0 -3.53125,-3.84375 -0.59375,0 z m 17.09375,0.125 -3.53125,3.71875 3.53125,0 0,-3.71875 z"
     id="bottomInIndent"
     inkscape:label="#path8-5" />
  <path
     style="fill:#0088cc;stroke:#0088cc;stroke-width:0.42308816;overflow:hidden"
     d="m 18.437671,50.880528 0,8.426744 17.906703,0 0,-8.426744 -17.906703,0 z"
     id="bottomDentRect"
     inkscape:connector-curvature="0"
     inkscape:label="#rect10-4" />
  <path
     inkscape:connector-curvature="0"
     style="fill:#0088cc;stroke:#0088cc;stroke-width:1.17999995;overflow:hidden"
     d="m 18.84319,59.005882 0,2.34375 0.59375,0 3.53125,3.5625 9.4375,0 3.5625,-3.5625 0,-2.34375 -17.125,0 z"
     id="bottomOutDent"
     inkscape:label="#path12-53" />
  <rect
     style="opacity:0.54863808;fill:#ffffff;fill-opacity:1;stroke:#0000cc;stroke-width:0.03871261;stroke-miterlimit:4;stroke-opacity:1;stroke-dasharray:none"
     id="inputField"
     width="27.074053"
     height="11.87143"
     x="48.994244"
     y="5.7830348"
     ry="5.9357157"
     inkscape:label="#rect4593" />
</svg>
