<svg width="32" height="32" xmlns="http://www.w3.org/2000/svg">
	<g>
		<path d="M15.915,2.781c-7.288,0-13.219,5.93-13.219,13.218c0,7.289,5.931,13.219,13.219,13.219c7.29,0,13.22-5.93,13.22-13.219
	C29.135,8.711,23.205,2.781,15.915,2.781z M15.915,27.875c-6.547,0-11.875-5.328-11.875-11.876S9.368,4.124,15.915,4.124
	c6.549,0,11.877,5.327,11.877,11.875S22.464,27.875,15.915,27.875z M25.093,14.566l-4.924-4.923c-0.821-0.822-2.257-0.823-3.078,0
	c-0.846,0.847-0.847,2.227,0,3.075l1.315,1.315H8.418c-1.264,0-2.292,0.974-2.292,2.171s1.028,2.17,2.292,2.17h9.987l-0.983,0.983
	c-0.398,0.397-0.616,0.927-0.616,1.489s0.219,1.092,0.616,1.489s0.927,0.616,1.489,0.616c0.563,0,1.091-0.219,1.489-0.616
	l4.709-4.708c0.3-0.301,0.5-0.682,0.576-1.09C25.83,15.821,25.609,15.085,25.093,14.566z M8.418,17.189
	c-0.61,0-1.106-0.441-1.106-0.984s0.496-0.985,1.106-0.985h11.174l0.984,0.984l-0.986,0.985H8.418z M24.521,16.312
	c-0.034,0.182-0.12,0.349-0.252,0.479l-4.707,4.706c-0.348,0.348-0.956,0.348-1.303,0c-0.173-0.173-0.269-0.404-0.269-0.65
	s0.096-0.478,0.269-0.651l3.573-3.573c0.231-0.231,0.231-0.606,0-0.838l-3.902-3.903c-0.386-0.387-0.386-1.015,0-1.401
	c0.186-0.187,0.434-0.289,0.699-0.289c0.264,0,0.514,0.103,0.701,0.29l4.924,4.923C24.489,15.641,24.589,15.976,24.521,16.312z
	 M16,0C7.178,0,0,7.177,0,15.999S7.178,32,16,32s16-7.179,16-16.001S24.822,0,16,0z M16,30.814c-8.169,0-14.814-6.646-14.814-14.815
	C1.186,7.831,7.831,1.185,16,1.185c8.168,0,14.814,6.646,14.814,14.814C30.814,24.168,24.168,30.814,16,30.814z"></path>
	</g>
</svg>