<svg width="32" height="32" xmlns="http://www.w3.org/2000/svg">
	<g>
		<path d="M27.568,0H4.431C4.113,0,3.857,0.259,3.857,0.574v30.852C3.857,31.742,4.113,32,4.431,32h23.138
		c0.317,0,0.574-0.258,0.574-0.574V0.574C28.143,0.259,27.886,0,27.568,0z M26.994,30.853H5.004V1.149h21.99V30.853z"></path>
		<path d="M8.185,8.861h15.531c0.317,0,0.574-0.26,0.574-0.576V4.38c0-0.316-0.257-0.575-0.574-0.575H8.185
		c-0.319,0-0.575,0.259-0.575,0.575v3.905C7.609,8.602,7.865,8.861,8.185,8.861z M8.758,4.953h14.383v2.759H8.758V4.953z"></path>
		<path d="M8.185,28.094h3.881h3.883h3.882h3.886c0.317,0,0.574-0.259,0.574-0.572v-7.767v-3.882v-3.882
		c0-0.314-0.257-0.571-0.574-0.571H19.83h-3.882h-3.883H8.185c-0.319,0-0.575,0.257-0.575,0.571v3.882v3.882v3.88v3.887
		C7.609,27.835,7.865,28.094,8.185,28.094z M23.141,19.181h-2.735v-2.735h2.735V19.181z M8.758,20.331h2.732v2.73H8.758V20.331z
		 M12.64,20.331h2.733v2.73H12.64V20.331z M16.522,20.331h2.735v2.73h-2.735V20.331z M19.258,19.181h-2.735v-2.735h2.735V19.181z
		 M15.373,19.181H12.64v-2.735h2.733V19.181z M11.49,19.181H8.758v-2.735h2.732V19.181z M8.758,24.209h2.732v2.735H8.758V24.209z
		 M12.64,24.209h2.733v2.735H12.64V24.209z M16.522,24.209h2.735v2.735h-2.735V24.209z M23.141,26.944h-2.735v-3.31v-3.304h2.735
		V26.944z M23.141,15.298h-2.735v-2.729h2.735V15.298z M19.258,15.298h-2.735v-2.729h2.735V15.298z M15.373,15.298H12.64v-2.729
		h2.733V15.298z M8.758,12.568h2.732v2.729H8.758V12.568z"></path>
	</g>
</svg>