<svg width="32" height="32" xmlns="http://www.w3.org/2000/svg">
	<g>
		<g>
			<path d="M16,32C7.178,32,0,24.821,0,16C0,7.178,7.178,0,16,0c8.821,0,16,7.178,16,16C32,24.821,24.821,32,16,32z
				 M16,1.333C7.913,1.333,1.333,7.913,1.333,16c0,8.087,6.579,14.667,14.667,14.667c8.087,0,14.667-6.58,14.667-14.667
				C30.667,7.913,24.087,1.333,16,1.333z"></path>
		</g>
		<g>
			<path d="M16,18.667c-1.471,0-2.667-1.196-2.667-2.667s1.196-2.666,2.667-2.666s2.667,1.195,2.667,2.666
				S17.471,18.667,16,18.667z M16,14.666c-0.735,0-1.333,0.599-1.333,1.334s0.598,1.333,1.333,1.333s1.333-0.598,1.333-1.333
				S16.735,14.666,16,14.666z"></path>
		</g>
		<g>
			<path d="M17.415,15.252c-0.171,0-0.342-0.064-0.472-0.195c-0.261-0.26-0.261-0.682,0-0.941l6.6-6.6
				c0.261-0.261,0.682-0.261,0.942,0s0.261,0.682,0,0.943l-6.6,6.599C17.755,15.188,17.585,15.252,17.415,15.252z"></path>
		</g>
		<g>
			<path d="M6,16.667H3.333c-0.368,0-0.667-0.298-0.667-0.667s0.299-0.666,0.667-0.666H6
				c0.368,0,0.667,0.297,0.667,0.666S6.368,16.667,6,16.667z"></path>
		</g>
		<g>
			<path d="M4.298,21.515c-0.262,0-0.51-0.155-0.616-0.412c-0.141-0.341,0.021-0.73,0.361-0.871l2.464-1.021
				c0.339-0.142,0.73,0.021,0.871,0.36c0.141,0.342-0.021,0.731-0.361,0.872l-2.464,1.021C4.469,21.497,4.383,21.515,4.298,21.515z"></path>
		</g>
		<g>
			<path d="M27.701,21.515c-0.085,0-0.171-0.017-0.255-0.051l-2.463-1.021c-0.34-0.141-0.502-0.531-0.361-0.871
				c0.141-0.341,0.531-0.502,0.872-0.36l2.463,1.021c0.34,0.141,0.501,0.531,0.36,0.871C28.211,21.359,27.962,21.515,27.701,21.515z
				"></path>
		</g>
		<g>
			<path d="M28.666,16.667L28.666,16.667h-2.667c-0.367,0-0.666-0.3-0.666-0.667c0-0.369,0.299-0.666,0.666-0.666
				l0,0h2.667c0.368,0,0.667,0.299,0.667,0.666C29.333,16.369,29.034,16.667,28.666,16.667z"></path>
		</g>
		<g>
			<path d="M25.238,12.84c-0.262,0-0.51-0.155-0.616-0.411c-0.141-0.341,0.021-0.731,0.362-0.872l2.463-1.019
				c0.339-0.141,0.729,0.021,0.87,0.361s-0.021,0.73-0.36,0.871l-2.464,1.02C25.41,12.823,25.324,12.84,25.238,12.84z"></path>
		</g>
		<g>
			<path d="M19.827,7.428c-0.085,0-0.172-0.016-0.256-0.051c-0.34-0.142-0.501-0.531-0.36-0.872l1.021-2.462
				c0.141-0.34,0.531-0.501,0.871-0.361c0.341,0.141,0.502,0.531,0.361,0.872l-1.021,2.462C20.336,7.273,20.088,7.428,19.827,7.428z
				"></path>
		</g>
		<g>
			<path d="M16,6.667L16,6.667c-0.369,0-0.667-0.299-0.667-0.667l0-2.666c0-0.369,0.299-0.667,0.667-0.667l0,0
				c0.369,0,0.667,0.299,0.667,0.667V6C16.667,6.369,16.368,6.667,16,6.667z"></path>
		</g>
		<g>
			<path d="M12.173,7.428c-0.262,0-0.51-0.155-0.616-0.412l-1.019-2.463c-0.141-0.341,0.021-0.73,0.361-0.871
				c0.34-0.142,0.73,0.021,0.871,0.36l1.02,2.463c0.141,0.341-0.021,0.731-0.361,0.872C12.345,7.412,12.259,7.428,12.173,7.428z"></path>
		</g>
		<g>
			<path d="M8.929,9.596c-0.17,0-0.341-0.065-0.472-0.195L6.573,7.515c-0.26-0.261-0.26-0.683,0-0.943
				c0.261-0.261,0.683-0.261,0.943,0l1.885,1.886c0.26,0.261,0.26,0.683,0,0.943C9.27,9.531,9.099,9.596,8.929,9.596z"></path>
		</g>
		<g>
			<path d="M6.761,12.84c-0.084,0-0.171-0.016-0.255-0.05l-2.463-1.021c-0.34-0.142-0.501-0.531-0.36-0.871
				c0.141-0.34,0.53-0.502,0.871-0.361l2.463,1.021c0.34,0.142,0.501,0.531,0.361,0.872C7.271,12.685,7.023,12.84,6.761,12.84z"></path>
		</g>
		<g>
			<path d="M22,26.667H10c-0.368,0-0.667-0.299-0.667-0.667v-4c0-0.368,0.299-0.667,0.667-0.667h12
				c0.368,0,0.667,0.299,0.667,0.667v4C22.667,26.368,22.368,26.667,22,26.667z M10.667,25.333h10.667v-2.666H10.667V25.333z"></path>
		</g>
	</g>
</svg>