<svg width="32" height="32" xmlns="http://www.w3.org/2000/svg">
	<g>
		<path d="M31.492,5.809h-7.535l-3.723-3.723c-0.096-0.095-0.225-0.149-0.359-0.149H4.379
	c-0.135,0-0.264,0.054-0.359,0.149L0.15,5.959C0.054,6.054,0,6.183,0,6.319v23.236c0,0.281,0.228,0.509,0.508,0.509h30.984
	c0.281,0,0.508-0.228,0.508-0.509V6.319C32,6.039,31.773,5.809,31.492,5.809z M4.59,2.953h15.074l3.723,3.724
	c0.095,0.095,0.225,0.148,0.359,0.148h7.238v1.952H1.016v-2.25L4.59,2.953z M1.016,29.047V9.794h29.969v19.253H1.016z"></path>
	</g>
</svg>