<svg width="32" height="32" xmlns="http://www.w3.org/2000/svg">
	<g>
		<path d="M31.422,30.844H0.578C0.262,30.844,0,31.101,0,31.422c0,0.316,0.262,0.577,0.578,0.577h30.844
		c0.319,0,0.578-0.261,0.578-0.577C32,31.101,31.741,30.844,31.422,30.844z"></path>
		<path d="M4.272,28.148h7.869h7.711h7.715c0.317,0,0.576-0.262,0.576-0.577V8.286c0-0.318-0.259-0.577-0.576-0.577
		h-7.137v-7.13C20.431,0.262,20.175,0,19.853,0h-7.711c-0.316,0-0.578,0.262-0.578,0.579V15.42H4.272
		c-0.319,0-0.578,0.261-0.578,0.579v11.572C3.694,27.887,3.953,28.148,4.272,28.148z M20.431,8.866h6.559v18.125h-6.559V8.866z
		 M12.721,15.999V1.157h6.556v7.129v18.705h-6.556V15.999z M4.851,16.574h6.713v10.417H4.851V16.574z"></path>
	</g>
</svg>