<?xml version="1.0" encoding="UTF-8" standalone="no"?>
<svg
   xmlns:dc="http://purl.org/dc/elements/1.1/"
   xmlns:cc="http://creativecommons.org/ns#"
   xmlns:rdf="http://www.w3.org/1999/02/22-rdf-syntax-ns#"
   xmlns:svg="http://www.w3.org/2000/svg"
   xmlns="http://www.w3.org/2000/svg"
   xmlns:sodipodi="http://sodipodi.sourceforge.net/DTD/sodipodi-0.dtd"
   xmlns:inkscape="http://www.inkscape.org/namespaces/inkscape"
   width="49.498402"
   height="28.2848"
   id="svg3342"
   version="1.1"
   inkscape:version="0.48.4 r9939"
   sodipodi:docname="Job.svg">
  <metadata
     id="metadata3356">
    <rdf:RDF>
      <cc:Work
         rdf:about="">
        <dc:format>image/svg+xml</dc:format>
        <dc:type
           rdf:resource="http://purl.org/dc/dcmitype/StillImage" />
      </cc:Work>
    </rdf:RDF>
  </metadata>
  <defs
     id="defs3354" />
  <sodipodi:namedview
     pagecolor="#ffffff"
     bordercolor="#666666"
     borderopacity="1"
     objecttolerance="10"
     gridtolerance="10"
     guidetolerance="10"
     inkscape:pageopacity="0"
     inkscape:pageshadow="2"
     inkscape:window-width="1918"
     inkscape:window-height="1179"
     id="namedview3352"
     showgrid="false"
     inkscape:zoom="5.3142857"
     inkscape:cx="-10.062628"
     inkscape:cy="14.1424"
     inkscape:window-x="1920"
     inkscape:window-y="19"
     inkscape:window-maximized="1"
     inkscape:current-layer="svg3342"
     fit-margin-top="0"
     fit-margin-left="0"
     fit-margin-right="0"
     fit-margin-bottom="0" />
  <g
     id="g3344"
     transform="scale(0.70712,0.70712)">
    <ellipse
       class="fill-color border-color"
       cx="35"
       cy="20"
       rx="34"
       ry="19"
       id="ellipse3346"
       sodipodi:cx="35"
       sodipodi:cy="20"
       sodipodi:rx="34"
       sodipodi:ry="19"
       style="fill:#ffffff;stroke:#000000"
       d="M 69,20 C 69,30.49341 53.777681,39 35,39 16.222319,39 1,30.49341 1,20 1,9.5065898 16.222319,1 35,1 53.777681,1 69,9.5065898 69,20 z" />
    <line
       id="ca_N"
       class="connection-area"
       x1="20"
       y1="0"
       x2="30"
       y2="0" />
    <line
       id="ca_S"
       class="connection-area"
       x1="30"
       y1="28"
       x2="20"
       y2="28" />
  </g>
  <path
     style="fill:#ff9955"
     d="M 22.312934,27.076457 C 12.043232,26.499612 3.492447,22.146178 1.557266,16.509189 0.013064,12.011085 3.079498,7.286629 9.496957,4.2765 15.89365,1.2761113 24.710975,0.3612898 32.558571,1.8837948 c 4.361144,0.8461019 8.562883,2.5856782 11.272451,4.6669472 6.744265,5.180394 5.821571,12.04958 -2.239399,16.67166 -2.89278,1.65869 -6.835292,2.91869 -11.028956,3.524778 -1.224553,0.176979 -5.813343,0.507972 -6.25383,0.451094 -0.07318,-0.0094 -0.97134,-0.06427 -1.995903,-0.121817 l 0,0 z"
     id="path3358"
     inkscape:connector-curvature="0" />
</svg>
