<svg width="32" height="32" xmlns="http://www.w3.org/2000/svg">
	<g>
		<g>
			<circle cx="16" cy="20" r="1.333"></circle>
		</g>
		<g>
			<path d="M16,25.333c-0.369,0-0.667-0.298-0.667-0.666v-4C15.333,20.298,15.631,20,16,20s0.667,0.298,0.667,0.667
				v4C16.667,25.035,16.369,25.333,16,25.333z"></path>
		</g>
		<g>
			<path d="M28,32H4V12h24V32z M5.333,30.667h21.333V13.334H5.333V30.667z"></path>
		</g>
		<g>
			<path d="M24,12.666h-1.333V8c0-3.676-2.991-6.666-6.667-6.666c-3.676,0-6.667,2.99-6.667,6.666H8
				c0-4.412,3.588-8,8-8c4.411,0,8,3.588,8,8V12.666z"></path>
		</g>
	</g>
</svg>