<svg width="32" height="32" xmlns="http://www.w3.org/2000/svg">
	<g>
		<g>
			<path d="M30.431,3.775l-7.826-2.128c-0.185-0.051-0.372-0.075-0.559-0.075c-0.374,0-0.74,0.104-1.066,0.292
			c-0.325-0.189-0.692-0.292-1.066-0.292c-0.187,0-0.374,0.024-0.558,0.075l-7.826,2.128c-0.184,0.049-0.351,0.127-0.509,0.22
			c-0.158-0.093-0.325-0.171-0.509-0.22L2.686,1.647C2.501,1.597,2.313,1.572,2.127,1.572c-0.462,0-0.917,0.151-1.292,0.438
			C0.309,2.412,0,3.037,0,3.7v22.473c0,0.96,0.643,1.801,1.569,2.053l7.826,2.127c0.185,0.05,0.372,0.075,0.559,0.075
			c0.373,0,0.74-0.103,1.066-0.292c0.325,0.189,0.692,0.292,1.066,0.292c0.187,0,0.374-0.024,0.558-0.075l7.827-2.127
			c0.183-0.049,0.35-0.128,0.508-0.22c0.158,0.092,0.326,0.171,0.509,0.22l7.826,2.127c0.185,0.05,0.372,0.075,0.559,0.075
			c0.461,0,0.917-0.151,1.292-0.437C31.691,29.588,32,28.963,32,28.3V5.828C32,4.868,31.357,4.027,30.431,3.775z M9.954,28.3
			l-7.827-2.127V3.7l7.827,2.128V28.3z M19.913,10.94c-0.009,0.007-0.019,0.012-0.027,0.02c-0.229,0.185-0.263,0.52-0.077,0.749
			c0.028,0.036,0.068,0.055,0.104,0.082v14.383L12.087,28.3v-4.857c0.016,0,0.032,0.002,0.048,0.002h0.002
			c0.499,0,0.983-0.092,1.441-0.274c0.273-0.108,0.406-0.417,0.298-0.69c-0.107-0.273-0.416-0.407-0.69-0.298
			c-0.332,0.132-0.685,0.199-1.049,0.199h-0.001c-0.017,0-0.033-0.004-0.049-0.004V5.828L19.913,3.7V10.94z M29.873,28.3
			l-7.827-2.127V11.244c0.179,0.007,0.361,0.038,0.551,0.091c0.281,0.08,0.576-0.084,0.656-0.367s-0.084-0.577-0.367-0.656
			c-0.284-0.081-0.563-0.122-0.84-0.13V3.7l7.827,2.128V28.3z"></path>
		</g>
		<g>
			<path d="M4.519,17.446c0.099,0.168,0.276,0.26,0.457,0.26c0.093,0,0.187-0.024,0.271-0.074c0.253-0.15,0.335-0.477,0.186-0.729
			c-0.237-0.4-0.437-0.777-0.59-1.12c-0.12-0.269-0.436-0.389-0.702-0.268c-0.269,0.12-0.389,0.435-0.269,0.703
			C4.042,16.598,4.26,17.012,4.519,17.446z"></path>
		</g>
		<g>
			<path d="M8.097,21.7c0.099,0.081,0.219,0.121,0.337,0.121c0.154,0,0.307-0.067,0.412-0.194c0.186-0.227,0.153-0.562-0.073-0.749
			c-0.618-0.508-1.233-1.128-1.828-1.844c-0.188-0.226-0.523-0.257-0.749-0.069s-0.257,0.524-0.068,0.75
			C6.765,20.48,7.427,21.148,8.097,21.7z"></path>
		</g>
		<g>
			<path d="M17.283,16.461c0.064,0.025,0.131,0.037,0.195,0.037c0.212,0,0.412-0.127,0.494-0.337
			c0.395-0.998,0.739-1.761,1.087-2.403c0.14-0.258,0.044-0.581-0.214-0.721c-0.259-0.14-0.581-0.044-0.722,0.214
			c-0.368,0.68-0.731,1.481-1.141,2.521C16.876,16.045,17.01,16.354,17.283,16.461z"></path>
		</g>
		<g>
			<path d="M15.118,21.399c0.09,0.058,0.191,0.086,0.29,0.086c0.174,0,0.345-0.085,0.446-0.241c0.42-0.643,0.811-1.61,1.169-2.56
			c0.104-0.275-0.034-0.582-0.31-0.686c-0.273-0.104-0.581,0.035-0.686,0.31c-0.337,0.893-0.7,1.796-1.064,2.354
			C14.804,20.909,14.872,21.238,15.118,21.399z"></path>
		</g>
		<g>
			<path d="M23.925,15.653c0.103,0.096,0.233,0.144,0.364,0.144c0.142,0,0.283-0.056,0.388-0.167l1.397-1.49l1.398,1.49
			c0.105,0.111,0.246,0.167,0.389,0.167c0.13,0,0.261-0.048,0.363-0.144c0.215-0.201,0.226-0.538,0.023-0.752l-1.443-1.539
			l1.443-1.538c0.202-0.214,0.191-0.551-0.023-0.752s-0.551-0.19-0.752,0.024l-1.372,1.462c-0.243-0.256-0.483-0.5-0.717-0.713
			c-0.003-0.002-0.006-0.002-0.008-0.005l-0.699-0.744c-0.201-0.214-0.538-0.225-0.752-0.024c-0.214,0.201-0.225,0.538-0.023,0.752
			l1.443,1.538l-1.443,1.539C23.7,15.116,23.711,15.452,23.925,15.653z"></path>
		</g>
	</g>
</svg>