<?xml version="1.0" encoding="UTF-8" standalone="no"?>
<!-- Generator: Adobe Illustrator 15.1.0, SVG Export Plug-In . SVG Version: 6.00 Build 0)  -->

<svg
   xmlns:dc="http://purl.org/dc/elements/1.1/"
   xmlns:cc="http://creativecommons.org/ns#"
   xmlns:rdf="http://www.w3.org/1999/02/22-rdf-syntax-ns#"
   xmlns:svg="http://www.w3.org/2000/svg"
   xmlns="http://www.w3.org/2000/svg"
   xmlns:sodipodi="http://sodipodi.sourceforge.net/DTD/sodipodi-0.dtd"
   xmlns:inkscape="http://www.inkscape.org/namespaces/inkscape"
   version="1.1"
   id="Layer_1"
   x="0px"
   y="0px"
   width="35.355999"
   height="35.355999"
   viewBox="0 0 35.355998 35.355999"
   enable-background="new 0 0 48.929 48.93"
   xml:space="preserve"
   inkscape:version="0.48.4 r9939"
   sodipodi:docname="merge.svg"><metadata
     id="metadata3419"><rdf:RDF><cc:Work
         rdf:about=""><dc:format>image/svg+xml</dc:format><dc:type
           rdf:resource="http://purl.org/dc/dcmitype/StillImage" /></cc:Work></rdf:RDF></metadata><defs
     id="defs3417" /><sodipodi:namedview
     pagecolor="#ffffff"
     bordercolor="#666666"
     borderopacity="1"
     objecttolerance="10"
     gridtolerance="10"
     guidetolerance="10"
     inkscape:pageopacity="0"
     inkscape:pageshadow="2"
     inkscape:window-width="1918"
     inkscape:window-height="1059"
     id="namedview3415"
     showgrid="false"
     fit-margin-top="0"
     fit-margin-left="0"
     fit-margin-right="0"
     fit-margin-bottom="0"
     inkscape:zoom="4.8232168"
     inkscape:cx="-20.678644"
     inkscape:cy="17.678"
     inkscape:window-x="0"
     inkscape:window-y="19"
     inkscape:window-maximized="1"
     inkscape:current-layer="Layer_1" /><g
     id="g3337"
     transform="matrix(0.70712,0,0,0.70712,0.37830893,0.3783092)"><path
       clip-rule="evenodd"
       d="m 24.298,-0.535 c 0.147,0 0.296,0 0.444,0 0.595,0.109 1.036,0.372 1.445,0.667 7.532,7.579 15.087,15.134 22.667,22.666 0.239,0.316 0.463,0.648 0.611,1.057 0,0.444 0,0.888 0,1.333 -0.17,0.33 -0.317,0.683 -0.556,0.944 -7.616,7.569 -15.208,15.162 -22.778,22.777 -0.262,0.238 -0.615,0.386 -0.944,0.556 -0.445,0 -0.889,0 -1.334,0 -0.407,-0.147 -0.738,-0.372 -1.055,-0.61 C 15.266,41.274 7.709,33.72 0.132,26.188 c -0.296,-0.408 -0.559,-0.85 -0.667,-1.445 0,-0.147 0,-0.295 0,-0.443 0.113,-0.591 0.333,-1.074 0.667,-1.444 7.577,-7.534 15.134,-15.089 22.666,-22.668 0.378,-0.363 0.876,-0.605 1.5,-0.723 z m 0.833,1.445 c -0.288,-0.309 -0.969,-0.243 -1.278,0 -7.67,7.625 -15.319,15.273 -22.944,22.944 -0.243,0.308 -0.309,0.988 0,1.278 7.625,7.671 15.273,15.317 22.944,22.943 0.207,0.31 0.997,0.278 1.278,0.055 7.689,-7.643 15.357,-15.31 23,-22.998 C 48.353,24.85 48.385,24.06 48.076,23.854 40.451,16.183 32.803,8.535 25.131,0.91 z"
       id="path3339"
       inkscape:connector-curvature="0"
       style="fill-rule:evenodd" /><path
       clip-rule="evenodd"
       d="m 16.854,10.577 c 1.446,0.144 3.52,-0.382 4.944,-0.057 0.008,0.002 -0.006,0.102 0,0.111 -1.537,-0.128 -3.314,-0.019 -4.944,-0.054 z"
       id="path3341"
       inkscape:connector-curvature="0"
       style="fill:#8e8e19;fill-rule:evenodd" /><path
       clip-rule="evenodd"
       d="m 16.854,10.577 c 1.63,0.035 3.407,-0.074 4.944,0.055 0,0.389 0,0.777 0,1.167 0,0.277 0,0.556 0,0.833 0.037,0.574 -0.074,1.297 0.055,1.778 0,0.37 0,0.741 0,1.11 0,0.296 0,0.593 0,0.889 0.037,0.574 -0.073,1.297 0.056,1.778 0,0.37 0,0.741 0,1.111 0,0.296 0,0.593 0,0.888 0.035,0.206 -0.072,0.554 0.055,0.668 0.713,1.14 1.517,2.187 2.223,3.333 1.209,-1.605 2.621,-3.009 2.5,-5.944 0.129,-0.205 0.02,-0.647 0.056,-0.945 0,-0.425 0,-0.852 0,-1.277 0,-1.814 0,-3.63 0,-5.443 1.574,0 3.148,0 4.722,0 0,0.073 0,0.147 0,0.221 0,0.334 0,0.668 0,1.001 0,0.426 0,0.852 0,1.277 -0.129,0.556 -0.019,1.352 -0.055,2 0,0.334 0,0.667 0,1 0,0.426 0,0.853 0,1.278 -0.13,0.556 -0.019,1.352 -0.056,1.999 0,0.333 0,0.667 0,1 0.245,1.633 -0.444,2.285 -1.111,3.224 -0.771,1.082 -1.341,1.889 -2.111,3.054 -0.447,0.679 -1.062,1.208 -1,2.278 -0.129,0.464 -0.019,1.166 -0.055,1.723 0,0.277 0,0.556 0,0.833 0,0.352 0,0.704 0,1.056 -0.129,0.444 -0.019,1.129 -0.056,1.667 0,0.277 0,0.555 0,0.833 0,0.352 0,0.704 0,1.057 -0.129,0.443 -0.019,1.128 -0.055,1.665 0,0.093 0,0.186 0,0.278 -1.871,0 -3.741,0 -5.611,0 0,-0.093 0,-0.186 0,-0.278 -0.038,-0.556 0.073,-1.259 -0.056,-1.722 0,-0.389 0,-0.778 0,-1.166 0,-0.297 0,-0.593 0,-0.89 -0.036,-0.556 0.073,-1.258 -0.056,-1.721 0,-0.391 0,-0.779 0,-1.168 0,-0.297 0,-0.593 0,-0.889 -0.037,-0.556 0.074,-1.259 -0.055,-1.722 0.094,-0.941 -0.506,-1.527 -1,-2.223 -0.379,-0.535 -0.778,-1.044 -1.055,-1.445 -1.181,-1.705 -2.387,-2.867 -2.222,-5.889 -0.037,-0.5 0.074,-1.146 -0.056,-1.555 -0.001,-2.259 -0.001,-4.518 -0.001,-6.777 z"
       id="path3343"
       inkscape:connector-curvature="0"
       style="fill-rule:evenodd" /><path
       clip-rule="evenodd"
       d="m 31.464,10.798 c 0.019,0 0.037,0 0.056,0 -0.036,0.316 0.073,0.777 -0.056,1.001 0,-0.333 0,-0.667 0,-1.001 z"
       id="path3345"
       inkscape:connector-curvature="0"
       style="fill:#ebeb00;fill-rule:evenodd" /><path
       clip-rule="evenodd"
       d="m 21.798,11.799 c 0.128,0.167 0.02,0.573 0.055,0.833 -0.018,0 -0.037,0 -0.055,0 0,-0.278 0,-0.556 0,-0.833 z"
       id="path3347"
       inkscape:connector-curvature="0"
       style="fill:#ebeb00;fill-rule:evenodd" /><path
       clip-rule="evenodd"
       d="m 21.798,12.632 c 0.019,0 0.038,0 0.055,0 0,0.593 0,1.186 0,1.778 -0.129,-0.481 -0.018,-1.204 -0.055,-1.778 z"
       id="path3349"
       inkscape:connector-curvature="0"
       style="fill:#8e8e19;fill-rule:evenodd" /><path
       clip-rule="evenodd"
       d="m 31.464,13.076 c 0,0.667 0,1.334 0,2 -0.018,0 -0.037,0 -0.055,0 0.037,-0.648 -0.074,-1.444 0.055,-2 z"
       id="path3351"
       inkscape:connector-curvature="0"
       style="fill:#8e8e19;fill-rule:evenodd" /><path
       clip-rule="evenodd"
       d="m 31.41,15.076 c 0.018,0 0.037,0 0.055,0 -0.036,0.315 0.073,0.776 -0.055,1 0,-0.333 0,-0.666 0,-1 z"
       id="path3353"
       inkscape:connector-curvature="0"
       style="fill:#ebeb00;fill-rule:evenodd" /><path
       clip-rule="evenodd"
       d="m 21.853,15.521 c 0.129,0.188 0.02,0.61 0.056,0.889 -0.019,0 -0.037,0 -0.056,0 0,-0.297 0,-0.594 0,-0.889 z"
       id="path3355"
       inkscape:connector-curvature="0"
       style="fill:#ebeb00;fill-rule:evenodd" /><path
       clip-rule="evenodd"
       d="m 26.743,16.021 c 0,0.426 0,0.853 0,1.277 -0.019,0 -0.037,0 -0.056,0 0.036,-0.407 -0.074,-0.962 0.056,-1.277 z"
       id="path3357"
       inkscape:connector-curvature="0"
       style="fill:#ebeb00;fill-rule:evenodd" /><path
       clip-rule="evenodd"
       d="m 21.853,16.409 c 0.019,0 0.037,0 0.056,0 0,0.593 0,1.186 0,1.778 -0.129,-0.481 -0.019,-1.204 -0.056,-1.778 z"
       id="path3359"
       inkscape:connector-curvature="0"
       style="fill:#8e8e19;fill-rule:evenodd" /><path
       clip-rule="evenodd"
       d="m 26.687,17.298 c 0.019,0 0.037,0 0.056,0 -0.037,0.298 0.073,0.74 -0.056,0.945 0,-0.314 0,-0.63 0,-0.945 z"
       id="path3361"
       inkscape:connector-curvature="0"
       style="fill:#8e8e19;fill-rule:evenodd" /><path
       clip-rule="evenodd"
       d="m 16.854,17.354 c 0.129,0.408 0.019,1.055 0.056,1.555 -0.13,-0.407 -0.02,-1.055 -0.056,-1.555 z"
       id="path3363"
       inkscape:connector-curvature="0"
       style="fill:#8e8e19;fill-rule:evenodd" /><path
       clip-rule="evenodd"
       d="m 31.41,17.354 c 0,0.667 0,1.332 0,1.999 -0.019,0 -0.038,0 -0.056,0 0.037,-0.647 -0.074,-1.443 0.056,-1.999 z"
       id="path3365"
       inkscape:connector-curvature="0"
       style="fill:#8e8e19;fill-rule:evenodd" /><path
       clip-rule="evenodd"
       d="m 21.909,19.299 c 0.128,0.186 0.019,0.61 0.055,0.888 -0.018,0 -0.037,0 -0.055,0 0,-0.295 0,-0.592 0,-0.888 z"
       id="path3367"
       inkscape:connector-curvature="0"
       style="fill:#ebeb00;fill-rule:evenodd" /><path
       clip-rule="evenodd"
       d="m 31.354,19.354 c 0.019,0 0.037,0 0.056,0 -0.037,0.316 0.072,0.777 -0.056,1 0,-0.333 0,-0.667 0,-1 z"
       id="path3369"
       inkscape:connector-curvature="0"
       style="fill:#ebeb00;fill-rule:evenodd" /><path
       clip-rule="evenodd"
       d="m 21.909,20.187 c 0.019,0 0.037,0 0.055,0 0,0.223 0,0.445 0,0.668 -0.127,-0.115 -0.02,-0.462 -0.055,-0.668 z"
       id="path3371"
       inkscape:connector-curvature="0"
       style="fill:#8e8e19;fill-rule:evenodd" /><path
       clip-rule="evenodd"
       d="m 21.187,28.466 c 0.129,0.463 0.019,1.166 0.055,1.722 -0.018,0 -0.037,0 -0.055,0 0,-0.575 0,-1.149 0,-1.722 z"
       id="path3373"
       inkscape:connector-curvature="0"
       style="fill:#8e8e19;fill-rule:evenodd" /><path
       clip-rule="evenodd"
       d="m 27.131,28.909 c 0,0.574 0,1.148 0,1.723 -0.019,0 -0.038,0 -0.055,0 0.036,-0.557 -0.074,-1.259 0.055,-1.723 z"
       id="path3375"
       inkscape:connector-curvature="0"
       style="fill:#8e8e19;fill-rule:evenodd" /><path
       clip-rule="evenodd"
       d="m 21.187,30.188 c 0.018,0 0.037,0 0.055,0 0,0.296 0,0.592 0,0.889 -0.128,-0.187 -0.019,-0.611 -0.055,-0.889 z"
       id="path3377"
       inkscape:connector-curvature="0"
       style="fill:#ebeb00;fill-rule:evenodd" /><path
       clip-rule="evenodd"
       d="m 27.076,30.632 c 0.018,0 0.037,0 0.055,0 -0.036,0.26 0.072,0.665 -0.055,0.833 0,-0.277 0,-0.556 0,-0.833 z"
       id="path3379"
       inkscape:connector-curvature="0"
       style="fill:#ebeb00;fill-rule:evenodd" /><path
       clip-rule="evenodd"
       d="m 21.242,32.244 c 0.129,0.463 0.02,1.165 0.056,1.721 -0.019,0 -0.037,0 -0.056,0 0,-0.573 0,-1.148 0,-1.721 z"
       id="path3381"
       inkscape:connector-curvature="0"
       style="fill:#8e8e19;fill-rule:evenodd" /><path
       clip-rule="evenodd"
       d="m 27.076,32.521 c 0,0.556 0,1.111 0,1.667 -0.019,0 -0.038,0 -0.056,0 0.037,-0.539 -0.073,-1.223 0.056,-1.667 z"
       id="path3383"
       inkscape:connector-curvature="0"
       style="fill:#8e8e19;fill-rule:evenodd" /><path
       clip-rule="evenodd"
       d="m 21.242,33.965 c 0.019,0 0.037,0 0.056,0 0,0.297 0,0.593 0,0.89 -0.129,-0.187 -0.02,-0.612 -0.056,-0.89 z"
       id="path3385"
       inkscape:connector-curvature="0"
       style="fill:#ebeb00;fill-rule:evenodd" /><path
       clip-rule="evenodd"
       d="m 27.02,34.188 c 0.019,0 0.037,0 0.056,0 -0.036,0.26 0.072,0.665 -0.056,0.833 0,-0.279 0,-0.556 0,-0.833 z"
       id="path3387"
       inkscape:connector-curvature="0"
       style="fill:#ebeb00;fill-rule:evenodd" /><path
       clip-rule="evenodd"
       d="m 21.298,36.021 c 0.129,0.463 0.019,1.166 0.056,1.722 -0.129,-0.464 -0.019,-1.167 -0.056,-1.722 z"
       id="path3389"
       inkscape:connector-curvature="0"
       style="fill:#8e8e19;fill-rule:evenodd" /><path
       clip-rule="evenodd"
       d="m 27.02,36.077 c -0.037,0.536 0.073,1.221 -0.055,1.665 0.036,-0.537 -0.074,-1.221 0.055,-1.665 z"
       id="path3391"
       inkscape:connector-curvature="0"
       style="fill:#8e8e19;fill-rule:evenodd" /><path
       clip-rule="evenodd"
       d="M 0.132,22.854 C 7.664,15.276 15.22,7.72 22.798,0.188 15.266,7.767 7.709,15.322 0.132,22.854 z"
       id="path3393"
       inkscape:connector-curvature="0"
       style="fill:#8e8e19;fill-rule:evenodd" /><path
       clip-rule="evenodd"
       d="M 26.187,0.132 C 33.765,7.664 41.321,15.22 48.854,22.798 41.274,15.266 33.719,7.711 26.187,0.132 z"
       id="path3395"
       inkscape:connector-curvature="0"
       style="fill:#c5c5c5;fill-rule:evenodd" /><path
       clip-rule="evenodd"
       d="M 26.131,48.909 C 33.7,41.294 41.293,33.701 48.909,26.132 41.34,33.746 33.747,41.34 26.131,48.909 z"
       id="path3397"
       inkscape:connector-curvature="0"
       style="fill:#8e8e19;fill-rule:evenodd" /><path
       clip-rule="evenodd"
       d="M 0.132,26.188 C 7.71,33.72 15.266,41.275 22.798,48.855 15.22,41.322 7.664,33.766 0.132,26.188 z"
       id="path3399"
       inkscape:connector-curvature="0"
       style="fill:#c5c5c5;fill-rule:evenodd" /><path
       clip-rule="evenodd"
       d="M 0.909,23.854 C 8.534,16.183 16.183,8.535 23.853,0.91 16.229,8.581 8.58,16.229 0.909,23.854 z"
       id="path3401"
       inkscape:connector-curvature="0"
       style="fill:#8e8e19;fill-rule:evenodd" /><path
       clip-rule="evenodd"
       d="M 0.909,25.133 C 8.58,32.757 16.229,40.404 23.853,48.076 16.183,40.45 8.534,32.804 0.909,25.133 z"
       id="path3403"
       inkscape:connector-curvature="0"
       style="fill:#ebeb00;fill-rule:evenodd" /><path
       clip-rule="evenodd"
       d="m 25.131,48.131 c 7.644,-7.689 15.311,-15.355 23,-22.998 -7.643,7.688 -15.311,15.355 -23,22.998 z"
       id="path3405"
       inkscape:connector-curvature="0"
       style="fill:#8e8e19;fill-rule:evenodd" /><path
       clip-rule="evenodd"
       d="M 25.131,0.91 C 32.803,8.535 40.451,16.182 48.076,23.854 40.405,16.229 32.756,8.581 25.131,0.91 z"
       id="path3407"
       inkscape:connector-curvature="0"
       style="fill:#ebeb00;fill-rule:evenodd" /><path
       clip-rule="evenodd"
       d="m 26.743,10.577 c 0.591,-0.1 1.413,-0.057 2.444,-0.057 0.666,0 2.154,-0.188 2.333,0.167 0.015,0.03 -0.011,0.08 0,0.11 -0.019,0 -0.037,0 -0.056,0 0,-0.073 0,-0.147 0,-0.221 -1.573,10e-4 -3.148,10e-4 -4.721,10e-4 z"
       id="path3409"
       inkscape:connector-curvature="0"
       style="fill:#8e8e19;fill-rule:evenodd" /><path
       clip-rule="evenodd"
       d="m 23.853,0.91 c 0.309,-0.243 0.99,-0.309 1.278,0 7.625,7.671 15.274,15.318 22.945,22.944 0.31,0.206 0.277,0.996 0.055,1.278 -7.689,7.643 -15.357,15.309 -23,22.998 C 24.85,48.354 24.06,48.385 23.853,48.075 16.229,40.404 8.58,32.757 0.909,25.133 0.6,24.843 0.666,24.162 0.909,23.855 8.58,16.229 16.229,8.581 23.853,0.91 z m -6.999,9.667 c 0,2.259 0,4.518 0,6.777 0.037,0.5 -0.074,1.147 0.056,1.555 -0.165,3.021 1.042,4.184 2.222,5.889 0.277,0.401 0.676,0.91 1.055,1.445 0.494,0.695 1.094,1.281 1,2.223 0,0.573 0,1.147 0,1.722 0.036,0.278 -0.073,0.702 0.055,0.889 0,0.389 0,0.777 0,1.168 0,0.573 0,1.147 0,1.721 0.036,0.278 -0.073,0.703 0.056,0.89 0,0.388 0,0.777 0,1.166 0.037,0.556 -0.073,1.259 0.056,1.722 0,0.093 0,0.186 0,0.278 1.87,0 3.74,0 5.611,0 0,-0.093 0,-0.186 0,-0.278 0.128,-0.444 0.019,-1.129 0.055,-1.665 0,-0.353 0,-0.705 0,-1.057 0.128,-0.168 0.02,-0.573 0.056,-0.833 0,-0.556 0,-1.111 0,-1.667 0,-0.352 0,-0.704 0,-1.056 0.127,-0.168 0.019,-0.573 0.055,-0.833 0,-0.574 0,-1.148 0,-1.723 -0.062,-1.07 0.553,-1.6 1,-2.278 0.77,-1.165 1.34,-1.972 2.111,-3.054 0.667,-0.938 1.356,-1.591 1.111,-3.224 0.128,-0.223 0.019,-0.684 0.056,-1 0,-0.667 0,-1.332 0,-1.999 0,-0.426 0,-0.853 0,-1.278 0.128,-0.224 0.019,-0.685 0.055,-1 0,-0.666 0,-1.333 0,-2 0,-0.426 0,-0.852 0,-1.277 0.129,-0.224 0.02,-0.685 0.056,-1.001 -0.011,-0.03 0.015,-0.08 0,-0.11 -0.179,-0.355 -1.667,-0.167 -2.333,-0.167 -1.031,0 -1.853,-0.043 -2.444,0.057 0,1.813 0,3.629 0,5.443 -0.129,0.315 -0.02,0.87 -0.056,1.277 0,0.315 0,0.631 0,0.945 0.121,2.936 -1.291,4.339 -2.5,5.944 -0.706,-1.146 -1.51,-2.193 -2.223,-3.333 0,-0.223 0,-0.445 0,-0.668 -0.036,-0.277 0.073,-0.702 -0.055,-0.888 0,-0.37 0,-0.741 0,-1.111 0,-0.593 0,-1.186 0,-1.778 -0.037,-0.278 0.073,-0.701 -0.056,-0.889 0,-0.369 0,-0.74 0,-1.11 0,-0.593 0,-1.186 0,-1.778 -0.036,-0.26 0.073,-0.666 -0.055,-0.833 0,-0.39 0,-0.778 0,-1.167 -0.006,-0.01 0.008,-0.109 0,-0.111 -1.425,-0.327 -3.498,0.199 -4.944,0.055 z"
       id="path3411"
       inkscape:connector-curvature="0"
       style="fill:#ffff00;fill-rule:evenodd" /></g><line
     id="ca_N"
     class="connection-area"
     data-len="20"
     data-angle1="270"
     data-angle2="270"
     x1="15"
     y1="0"
     x2="17"
     y2="0" /><line
     id="ca_S"
     class="connection-area"
     data-len="20"
     data-angle1="90"
     data-angle2="90"
     x1="15"
     y1="35"
     x2="17"
     y2="35" /></svg>
