<svg width="32" height="32" xmlns="http://www.w3.org/2000/svg">
	<g>
		<path d="M29.863,15.758c-0.009-0.016,0.003-0.031-0.009-0.044c-0.008-0.017-0.027-0.017-0.038-0.03
		c-1.398-2.395-3.393-4.39-5.79-5.787c-0.011-0.011-0.011-0.032-0.027-0.041c-0.014-0.007-0.029,0-0.046-0.007
		c-2.345-1.353-5.06-2.137-7.954-2.137c-2.898,0-5.609,0.784-7.957,2.137C8.025,9.855,8.009,9.848,7.995,9.855
		c-0.014,0.009-0.02,0.031-0.03,0.043c-2.392,1.396-4.386,3.389-5.781,5.777c-0.011,0.021-0.036,0.021-0.044,0.038
		c-0.011,0.014,0,0.036-0.008,0.051C0.78,18.111,0,20.82,0,23.715c0,0.316,0.255,0.574,0.571,0.574h30.854
		c0.318,0,0.575-0.258,0.575-0.574C32,20.818,31.215,18.104,29.863,15.758z M14.642,21.787c0-0.747,0.61-1.355,1.357-1.355
		c0.746,0,1.354,0.608,1.354,1.355c0,0.745-0.607,1.354-1.354,1.354C15.252,23.142,14.642,22.532,14.642,21.787z M18.046,23.142
		c0.265-0.398,0.453-0.847,0.453-1.354c0-0.479-0.169-0.902-0.404-1.282l3.762-3.767c0.225-0.225,0.225-0.587,0-0.81
		c-0.224-0.229-0.588-0.225-0.812,0l-3.76,3.761c-0.383-0.232-0.807-0.406-1.285-0.406c-1.379,0-2.504,1.123-2.504,2.504
		c0,0.508,0.188,0.956,0.457,1.354H1.157c0.091-2.286,0.706-4.432,1.716-6.34l2.815,1.624c0.09,0.052,0.189,0.078,0.29,0.078
		c0.197,0,0.392-0.102,0.495-0.289c0.159-0.273,0.063-0.624-0.211-0.782L3.45,15.809c1.182-1.873,2.767-3.465,4.635-4.646
		l1.629,2.818c0.106,0.185,0.301,0.289,0.498,0.289c0.098,0,0.196-0.025,0.287-0.078c0.271-0.157,0.366-0.511,0.211-0.783
		l-1.637-2.833c1.91-1.01,4.066-1.599,6.351-1.686v3.252c0,0.319,0.257,0.575,0.575,0.575c0.314,0,0.571-0.256,0.571-0.575V8.89
		c2.285,0.087,4.441,0.675,6.349,1.686l-1.634,2.833c-0.159,0.272-0.063,0.626,0.21,0.783c0.091,0.053,0.189,0.078,0.288,0.078
		c0.196,0,0.392-0.104,0.498-0.289l1.628-2.822c1.871,1.185,3.453,2.777,4.638,4.647l-2.812,1.627
		c-0.276,0.158-0.37,0.509-0.211,0.782c0.106,0.188,0.301,0.289,0.498,0.289c0.099,0,0.2-0.026,0.287-0.078l2.815-1.627
		c1.013,1.911,1.628,4.057,1.719,6.343H18.046z"></path>
	</g>
</svg>