<?xml version="1.0" encoding="UTF-8" standalone="no"?>
<!-- Generator: Adobe Illustrator 15.1.0, SVG Export Plug-In . SVG Version: 6.00 Build 0)  -->

<svg
   xmlns:dc="http://purl.org/dc/elements/1.1/"
   xmlns:cc="http://creativecommons.org/ns#"
   xmlns:rdf="http://www.w3.org/1999/02/22-rdf-syntax-ns#"
   xmlns:svg="http://www.w3.org/2000/svg"
   xmlns="http://www.w3.org/2000/svg"
   xmlns:sodipodi="http://sodipodi.sourceforge.net/DTD/sodipodi-0.dtd"
   xmlns:inkscape="http://www.inkscape.org/namespaces/inkscape"
   version="1.1"
   id="Layer_1"
   x="0px"
   y="0px"
   width="35.355999"
   height="35.355999"
   viewBox="0 0 35.355999 35.355999"
   enable-background="new 0 0 50 50"
   xml:space="preserve"
   inkscape:version="0.48.4 r9939"
   sodipodi:docname="split.svg"><metadata
     id="metadata3218"><rdf:RDF><cc:Work
         rdf:about=""><dc:format>image/svg+xml</dc:format><dc:type
           rdf:resource="http://purl.org/dc/dcmitype/StillImage" /></cc:Work></rdf:RDF></metadata><defs
     id="defs3216" /><sodipodi:namedview
     pagecolor="#ffffff"
     bordercolor="#666666"
     borderopacity="1"
     objecttolerance="10"
     gridtolerance="10"
     guidetolerance="10"
     inkscape:pageopacity="0"
     inkscape:pageshadow="2"
     inkscape:window-width="1918"
     inkscape:window-height="1059"
     id="namedview3214"
     showgrid="false"
     fit-margin-top="0"
     fit-margin-left="0"
     fit-margin-right="0"
     fit-margin-bottom="0"
     inkscape:zoom="4.72"
     inkscape:cx="-92.08213"
     inkscape:cy="17.678002"
     inkscape:window-x="0"
     inkscape:window-y="19"
     inkscape:window-maximized="1"
     inkscape:current-layer="Layer_1" /><g
     id="g3136"
     transform="scale(0.70712,0.70712)"><path
       clip-rule="evenodd"
       d="m 24.278,0 c 0.445,0 0.889,0 1.333,0 0.407,0.148 0.739,0.372 1.056,0.611 7.532,7.578 15.088,15.134 22.666,22.667 0.295,0.409 0.559,0.849 0.667,1.445 0,0.147 0,0.296 0,0.444 -0.113,0.59 -0.333,1.073 -0.667,1.444 C 41.755,34.143 34.199,41.699 26.667,49.277 26.289,49.64 25.79,49.882 25.167,50 25.019,50 24.87,50 24.723,50 24.127,49.892 23.687,49.628 23.278,49.333 15.746,41.755 8.189,34.199 0.611,26.667 0.372,26.351 0.148,26.019 0,25.611 0,25.167 0,24.722 0,24.278 0.17,23.948 0.317,23.595 0.556,23.334 8.171,15.764 15.764,8.171 23.333,0.556 23.595,0.317 23.948,0.17 24.278,0 z m 1.333,1.389 c -0.207,-0.31 -0.997,-0.278 -1.278,-0.055 -7.69,7.643 -15.357,15.31 -23,23 -0.223,0.281 -0.254,1.071 0.055,1.278 7.625,7.671 15.273,15.319 22.945,22.944 0.289,0.308 0.969,0.242 1.278,0 7.671,-7.625 15.319,-15.273 22.944,-22.944 0.242,-0.309 0.308,-0.989 0,-1.278 C 40.931,16.662 33.282,9.014 25.611,1.389 z"
       id="path3138"
       inkscape:connector-curvature="0"
       style="fill-rule:evenodd" /><path
       clip-rule="evenodd"
       d="m 22.5,11.722 c 0,-0.037 0,-0.074 0,-0.111 0.162,-0.302 0.832,-0.167 1.278,-0.167 1.349,0 2.948,0 4.333,0 0,0.093 0,0.186 0,0.278 0.036,0.556 -0.074,1.259 0.056,1.722 0,0.389 0,0.778 0,1.167 0,0.296 0,0.592 0,0.889 0.036,0.556 -0.074,1.259 0.056,1.722 0,0.389 0,0.778 0,1.167 0,0.296 0,0.593 0,0.889 0.036,0.556 -0.074,1.259 0.055,1.722 -0.094,0.94 0.507,1.526 1,2.222 0.38,0.535 0.778,1.043 1.056,1.445 1.181,1.705 2.387,2.866 2.223,5.889 0.036,0.5 -0.074,1.147 0.056,1.556 0,2.259 0,4.519 0,6.777 -1.63,-0.036 -3.407,0.073 -4.944,-0.056 0,-0.389 0,-0.777 0,-1.166 0,-0.278 0,-0.556 0,-0.834 -0.037,-0.574 0.073,-1.296 -0.056,-1.777 0,-0.37 0,-0.741 0,-1.111 0,-0.296 0,-0.593 0,-0.889 -0.037,-0.574 0.073,-1.296 -0.056,-1.778 0,-0.37 0,-0.74 0,-1.11 0,-0.297 0,-0.593 0,-0.89 -0.035,-0.205 0.072,-0.553 -0.056,-0.666 -0.712,-1.14 -1.517,-2.188 -2.223,-3.334 -1.209,1.605 -2.621,3.009 -2.5,5.945 -0.128,0.204 -0.02,0.646 -0.056,0.944 0,0.426 0,0.852 0,1.277 0,1.814 0,3.63 0,5.444 -1.574,0 -3.148,0 -4.722,0 0,-0.074 0,-0.147 0,-0.222 0,-0.334 0,-0.667 0,-1 0,-0.426 0,-0.853 0,-1.278 0.129,-0.556 0.019,-1.352 0.056,-2 0,-0.333 0,-0.666 0,-1 0,-0.426 0,-0.852 0,-1.277 0.129,-0.556 0.019,-1.352 0.056,-2 0,-0.334 0,-0.667 0,-1 -0.245,-1.632 0.444,-2.286 1.111,-3.223 0.771,-1.083 1.341,-1.89 2.111,-3.055 0.447,-0.678 1.062,-1.208 1,-2.278 0.129,-0.463 0.019,-1.167 0.055,-1.722 0,-0.278 0,-0.556 0,-0.833 0,-0.352 0,-0.704 0,-1.056 0.129,-0.445 0.019,-1.129 0.056,-1.667 0,-0.278 0,-0.556 0,-0.833 0,-0.352 0,-0.704 0,-1.056 0.129,-0.444 0.018,-1.128 0.055,-1.666 z"
       id="path3140"
       inkscape:connector-curvature="0"
       style="fill-rule:evenodd" /><path
       clip-rule="evenodd"
       d="m 22.444,13.389 c 0.037,-0.537 -0.074,-1.222 0.056,-1.667 -0.037,0.538 0.074,1.222 -0.056,1.667 z"
       id="path3142"
       inkscape:connector-curvature="0"
       style="fill:#8e8e19;fill-rule:evenodd" /><path
       clip-rule="evenodd"
       d="m 28.111,11.722 c 0.129,0.463 0.019,1.167 0.056,1.722 -0.13,-0.463 -0.02,-1.166 -0.056,-1.722 z"
       id="path3144"
       inkscape:connector-curvature="0"
       style="fill:#8e8e19;fill-rule:evenodd" /><path
       clip-rule="evenodd"
       d="m 22.444,14.444 c 0,0.278 0,0.556 0,0.833 -0.019,0 -0.037,0 -0.056,0 0.037,-0.259 -0.072,-0.665 0.056,-0.833 z"
       id="path3146"
       inkscape:connector-curvature="0"
       style="fill:#ebeb00;fill-rule:evenodd" /><path
       clip-rule="evenodd"
       d="m 28.167,14.611 c 0.128,0.186 0.02,0.61 0.056,0.889 -0.019,0 -0.037,0 -0.056,0 0,-0.296 0,-0.593 0,-0.889 z"
       id="path3148"
       inkscape:connector-curvature="0"
       style="fill:#ebeb00;fill-rule:evenodd" /><path
       clip-rule="evenodd"
       d="m 22.389,15.278 c 0.019,0 0.037,0 0.056,0 -0.037,0.537 0.074,1.222 -0.056,1.667 0,-0.556 0,-1.112 0,-1.667 z"
       id="path3150"
       inkscape:connector-curvature="0"
       style="fill:#8e8e19;fill-rule:evenodd" /><path
       clip-rule="evenodd"
       d="m 28.167,15.5 c 0.019,0 0.037,0 0.056,0 0,0.574 0,1.148 0,1.722 -0.13,-0.463 -0.02,-1.166 -0.056,-1.722 z"
       id="path3152"
       inkscape:connector-curvature="0"
       style="fill:#8e8e19;fill-rule:evenodd" /><path
       clip-rule="evenodd"
       d="m 22.389,18 c 0,0.278 0,0.556 0,0.833 -0.019,0 -0.037,0 -0.055,0 0.035,-0.26 -0.073,-0.665 0.055,-0.833 z"
       id="path3154"
       inkscape:connector-curvature="0"
       style="fill:#ebeb00;fill-rule:evenodd" /><path
       clip-rule="evenodd"
       d="m 28.223,18.389 c 0.128,0.187 0.019,0.61 0.055,0.889 -0.019,0 -0.036,0 -0.055,0 0,-0.297 0,-0.593 0,-0.889 z"
       id="path3156"
       inkscape:connector-curvature="0"
       style="fill:#ebeb00;fill-rule:evenodd" /><path
       clip-rule="evenodd"
       d="m 22.333,18.833 c 0.019,0 0.037,0 0.055,0 -0.037,0.556 0.074,1.259 -0.055,1.722 0,-0.574 0,-1.148 0,-1.722 z"
       id="path3158"
       inkscape:connector-curvature="0"
       style="fill:#8e8e19;fill-rule:evenodd" /><path
       clip-rule="evenodd"
       d="m 28.223,19.278 c 0.019,0 0.036,0 0.055,0 0,0.574 0,1.148 0,1.722 -0.13,-0.463 -0.019,-1.167 -0.055,-1.722 z"
       id="path3160"
       inkscape:connector-curvature="0"
       style="fill:#8e8e19;fill-rule:evenodd" /><path
       clip-rule="evenodd"
       d="m 27.5,28.611 c 0.128,0.113 0.021,0.461 0.056,0.666 -0.019,0 -0.037,0 -0.056,0 0,-0.221 0,-0.444 0,-0.666 z"
       id="path3162"
       inkscape:connector-curvature="0"
       style="fill:#8e8e19;fill-rule:evenodd" /><path
       clip-rule="evenodd"
       d="m 18.111,29.111 c 0,0.333 0,0.666 0,1 -0.019,0 -0.037,0 -0.056,0 0.037,-0.315 -0.073,-0.777 0.056,-1 z"
       id="path3164"
       inkscape:connector-curvature="0"
       style="fill:#ebeb00;fill-rule:evenodd" /><path
       clip-rule="evenodd"
       d="m 27.5,29.277 c 0.019,0 0.037,0 0.056,0 0,0.297 0,0.593 0,0.89 -0.129,-0.187 -0.02,-0.61 -0.056,-0.89 z"
       id="path3166"
       inkscape:connector-curvature="0"
       style="fill:#ebeb00;fill-rule:evenodd" /><path
       clip-rule="evenodd"
       d="m 18.056,30.111 c 0.019,0 0.037,0 0.056,0 -0.037,0.648 0.074,1.444 -0.056,2 0,-0.667 0,-1.334 0,-2 z"
       id="path3168"
       inkscape:connector-curvature="0"
       style="fill:#8e8e19;fill-rule:evenodd" /><path
       clip-rule="evenodd"
       d="m 32.556,30.556 c 0.129,0.408 0.019,1.055 0.056,1.556 -0.131,-0.409 -0.02,-1.056 -0.056,-1.556 z"
       id="path3170"
       inkscape:connector-curvature="0"
       style="fill:#8e8e19;fill-rule:evenodd" /><path
       clip-rule="evenodd"
       d="m 22.778,31.223 c 0,0.314 0,0.629 0,0.944 -0.019,0 -0.037,0 -0.056,0 0.036,-0.298 -0.073,-0.74 0.056,-0.944 z"
       id="path3172"
       inkscape:connector-curvature="0"
       style="fill:#8e8e19;fill-rule:evenodd" /><path
       clip-rule="evenodd"
       d="m 27.556,31.277 c 0.129,0.482 0.019,1.204 0.056,1.778 -0.019,0 -0.037,0 -0.056,0 0,-0.592 0,-1.185 0,-1.778 z"
       id="path3174"
       inkscape:connector-curvature="0"
       style="fill:#8e8e19;fill-rule:evenodd" /><path
       clip-rule="evenodd"
       d="m 22.722,32.167 c 0.019,0 0.037,0 0.056,0 -0.037,0.407 0.073,0.962 -0.056,1.277 0,-0.425 0,-0.851 0,-1.277 z"
       id="path3176"
       inkscape:connector-curvature="0"
       style="fill:#ebeb00;fill-rule:evenodd" /><path
       clip-rule="evenodd"
       d="m 27.556,33.056 c 0.019,0 0.037,0 0.056,0 0,0.296 0,0.593 0,0.889 -0.13,-0.187 -0.02,-0.611 -0.056,-0.889 z"
       id="path3178"
       inkscape:connector-curvature="0"
       style="fill:#ebeb00;fill-rule:evenodd" /><path
       clip-rule="evenodd"
       d="m 18.056,33.389 c 0,0.334 0,0.667 0,1 -0.019,0 -0.037,0 -0.056,0 0.036,-0.316 -0.073,-0.777 0.056,-1 z"
       id="path3180"
       inkscape:connector-curvature="0"
       style="fill:#ebeb00;fill-rule:evenodd" /><path
       clip-rule="evenodd"
       d="m 18,34.389 c 0.019,0 0.037,0 0.056,0 -0.037,0.648 0.074,1.444 -0.056,2 0,-0.667 0,-1.333 0,-2 z"
       id="path3182"
       inkscape:connector-curvature="0"
       style="fill:#8e8e19;fill-rule:evenodd" /><path
       clip-rule="evenodd"
       d="m 27.611,35.056 c 0.129,0.481 0.019,1.203 0.056,1.777 -0.019,0 -0.037,0 -0.056,0 0,-0.593 0,-1.185 0,-1.777 z"
       id="path3184"
       inkscape:connector-curvature="0"
       style="fill:#8e8e19;fill-rule:evenodd" /><path
       clip-rule="evenodd"
       d="m 27.611,36.833 c 0.019,0 0.037,0 0.056,0 0,0.278 0,0.556 0,0.834 -0.129,-0.168 -0.02,-0.573 -0.056,-0.834 z"
       id="path3186"
       inkscape:connector-curvature="0"
       style="fill:#ebeb00;fill-rule:evenodd" /><path
       clip-rule="evenodd"
       d="m 18,37.667 c 0,0.333 0,0.666 0,1 -0.019,0 -0.037,0 -0.056,0 0.036,-0.316 -0.072,-0.777 0.056,-1 z"
       id="path3188"
       inkscape:connector-curvature="0"
       style="fill:#ebeb00;fill-rule:evenodd" /><path
       clip-rule="evenodd"
       d="m 27.667,38.833 c 1.537,0.129 3.314,0.02 4.944,0.056 -0.723,0.13 -1.686,0.019 -2.5,0.056 -0.78,-0.073 -1.849,0.145 -2.444,-0.112 z"
       id="path3190"
       inkscape:connector-curvature="0"
       style="fill:#8e8e19;fill-rule:evenodd" /><path
       clip-rule="evenodd"
       d="M 0.556,23.333 C 8.125,15.718 15.718,8.125 23.333,0.556 15.764,8.171 8.171,15.764 0.556,23.333 z"
       id="path3192"
       inkscape:connector-curvature="0"
       style="fill:#8e8e19;fill-rule:evenodd" /><path
       clip-rule="evenodd"
       d="M 26.667,0.611 C 34.245,8.143 41.801,15.699 49.333,23.278 41.755,15.746 34.199,8.189 26.667,0.611 z"
       id="path3194"
       inkscape:connector-curvature="0"
       style="fill:#c5c5c5;fill-rule:evenodd" /><path
       clip-rule="evenodd"
       d="M 26.667,49.277 C 34.199,41.699 41.755,34.143 49.333,26.611 41.801,34.189 34.245,41.745 26.667,49.277 z"
       id="path3196"
       inkscape:connector-curvature="0"
       style="fill:#8e8e19;fill-rule:evenodd" /><path
       clip-rule="evenodd"
       d="M 0.611,26.667 C 8.189,34.199 15.745,41.755 23.278,49.333 15.699,41.801 8.144,34.245 0.611,26.667 z"
       id="path3198"
       inkscape:connector-curvature="0"
       style="fill:#c5c5c5;fill-rule:evenodd" /><path
       clip-rule="evenodd"
       d="m 1.333,24.333 c 7.643,-7.69 15.31,-15.357 23,-23 -7.643,7.69 -15.31,15.357 -23,23 z"
       id="path3200"
       inkscape:connector-curvature="0"
       style="fill:#8e8e19;fill-rule:evenodd" /><path
       clip-rule="evenodd"
       d="M 1.389,25.611 C 9.06,33.236 16.709,40.884 24.334,48.555 16.662,40.931 9.014,33.282 1.389,25.611 z"
       id="path3202"
       inkscape:connector-curvature="0"
       style="fill:#ebeb00;fill-rule:evenodd" /><path
       clip-rule="evenodd"
       d="M 25.611,48.556 C 33.236,40.885 40.884,33.237 48.555,25.612 40.931,33.282 33.282,40.931 25.611,48.556 z"
       id="path3204"
       inkscape:connector-curvature="0"
       style="fill:#8e8e19;fill-rule:evenodd" /><path
       clip-rule="evenodd"
       d="M 25.611,1.389 C 33.282,9.014 40.93,16.662 48.555,24.334 40.885,16.708 33.236,9.06 25.611,1.389 z"
       id="path3206"
       inkscape:connector-curvature="0"
       style="fill:#ebeb00;fill-rule:evenodd" /><path
       clip-rule="evenodd"
       d="m 17.944,38.667 c 0.019,0 0.037,0 0.056,0 0,0.074 0,0.147 0,0.222 1.574,0 3.148,0 4.722,0 -1.05,0.101 -2.533,0.056 -3.778,0.056 -0.329,-10e-4 -0.988,0.186 -1,-0.278 z"
       id="path3208"
       inkscape:connector-curvature="0"
       style="fill:#8e8e19;fill-rule:evenodd" /><path
       clip-rule="evenodd"
       d="m 24.333,1.333 c 0.281,-0.223 1.071,-0.254 1.278,0.055 7.625,7.671 15.273,15.32 22.944,22.945 0.308,0.289 0.242,0.969 0,1.278 -7.671,7.625 -15.319,15.273 -22.944,22.944 -0.309,0.242 -0.989,0.308 -1.278,0 C 16.708,40.885 9.06,33.236 1.389,25.611 1.079,25.404 1.111,24.614 1.334,24.333 9.023,16.69 16.69,9.023 24.333,1.333 z M 22.5,11.722 c -0.129,0.445 -0.019,1.129 -0.056,1.667 0,0.352 0,0.704 0,1.056 -0.128,0.168 -0.02,0.573 -0.056,0.833 0,0.556 0,1.111 0,1.667 0,0.352 0,0.704 0,1.056 -0.128,0.168 -0.02,0.573 -0.055,0.833 0,0.574 0,1.148 0,1.722 0.062,1.07 -0.553,1.6 -1,2.278 -0.77,1.166 -1.34,1.972 -2.111,3.055 -0.667,0.937 -1.355,1.591 -1.111,3.223 -0.129,0.223 -0.02,0.685 -0.056,1 0,0.666 0,1.333 0,2 0,0.426 0,0.852 0,1.277 -0.129,0.224 -0.02,0.685 -0.056,1 0,0.667 0,1.333 0,2 0,0.426 0,0.853 0,1.278 -0.128,0.223 -0.02,0.684 -0.056,1 0.012,0.464 0.671,0.277 1,0.277 1.245,0 2.728,0.045 3.778,-0.056 0,-1.814 0,-3.63 0,-5.444 0.129,-0.315 0.019,-0.87 0.056,-1.277 0,-0.315 0,-0.63 0,-0.944 -0.121,-2.937 1.291,-4.34 2.5,-5.945 0.706,1.146 1.511,2.194 2.223,3.334 0,0.222 0,0.444 0,0.666 0.036,0.279 -0.073,0.703 0.056,0.89 0,0.37 0,0.74 0,1.11 0,0.593 0,1.186 0,1.778 0.036,0.278 -0.073,0.702 0.056,0.889 0,0.37 0,0.741 0,1.111 0,0.593 0,1.185 0,1.777 0.036,0.261 -0.073,0.666 0.056,0.834 0,0.389 0,0.777 0,1.166 0.595,0.257 1.664,0.039 2.444,0.111 0.814,-0.037 1.777,0.074 2.5,-0.056 0,-2.259 0,-4.519 0,-6.777 -0.037,-0.501 0.073,-1.147 -0.056,-1.556 0.164,-3.022 -1.042,-4.184 -2.223,-5.889 -0.277,-0.401 -0.676,-0.91 -1.056,-1.445 -0.493,-0.696 -1.094,-1.282 -1,-2.222 0,-0.574 0,-1.148 0,-1.722 -0.036,-0.279 0.073,-0.703 -0.055,-0.889 0,-0.389 0,-0.777 0,-1.167 0,-0.574 0,-1.148 0,-1.722 -0.036,-0.279 0.072,-0.703 -0.056,-0.889 0,-0.389 0,-0.778 0,-1.167 -0.037,-0.556 0.073,-1.259 -0.056,-1.722 0,-0.092 0,-0.185 0,-0.278 -1.386,0 -2.984,0 -4.333,0 -0.446,0 -1.116,-0.135 -1.278,0.167 0.001,0.038 0.001,0.075 0.001,0.112 z"
       id="path3210"
       inkscape:connector-curvature="0"
       style="fill:#ffff00;fill-rule:evenodd" /></g><line
     id="ca_N"
     class="connection-area"
     data-len="20"
     data-angle1="270"
     data-angle2="270"
     x1="16"
     y1="0"
     x2="17"
     y2="0" /><line
     id="ca_S"
     class="connection-area"
     data-len="20"
     data-angle1="90"
     data-angle2="90"
     x1="16"
     y1="35"
     x2="17"
     y2="35" /></svg>
