<svg width="32" height="32" xmlns="http://www.w3.org/2000/svg">
	<g>
		<path d="M19.572,23.74V3.61c0-1.991-1.604-3.61-3.573-3.61c-1.969,0-3.571,1.619-3.571,3.61v20.131
	c-0.864,0.916-1.336,2.091-1.336,3.348c0,2.708,2.201,4.91,4.909,4.91c2.704,0,4.906-2.202,4.906-4.91
	C20.907,25.833,20.436,24.656,19.572,23.74z M12.604,26.977c0.03-0.903,0.405-1.742,1.085-2.372
	c0.153-0.144,0.239-0.342,0.239-0.551v-2.635c0.034,0.005,0.065,0.021,0.103,0.021h1.289c0.414,0,0.75-0.335,0.75-0.751
	c0-0.414-0.336-0.75-0.75-0.75h-1.289c-0.037,0-0.068,0.015-0.103,0.019v-2.552c0.034,0.004,0.065,0.02,0.103,0.02h1.289
	c0.414,0,0.75-0.334,0.75-0.751c0-0.413-0.336-0.75-0.75-0.75h-1.289c-0.037,0-0.068,0.016-0.103,0.021v-2.342
	c0.034,0.004,0.065,0.021,0.103,0.021h1.289c0.414,0,0.75-0.336,0.75-0.751c0-0.414-0.336-0.75-0.75-0.75h-1.289
	c-0.037,0-0.068,0.017-0.103,0.022v-2.094c0.034,0.006,0.065,0.021,0.103,0.021h1.289c0.414,0,0.75-0.338,0.75-0.751
	c0-0.414-0.336-0.752-0.75-0.752h-1.289c-0.037,0-0.068,0.017-0.103,0.021V6.398c0.034,0.005,0.065,0.021,0.103,0.021h1.289
	c0.414,0,0.75-0.337,0.75-0.751c0-0.415-0.336-0.75-0.75-0.75h-1.289c-0.037,0-0.068,0.014-0.103,0.02V3.61
	c0-1.163,0.929-2.11,2.07-2.11s2.071,0.947,2.071,2.11v20.443c0,0.207,0.086,0.407,0.24,0.55c0.679,0.63,1.054,1.471,1.084,2.374
	H12.604z"></path>
	</g>
</svg>