<?xml version="1.0" encoding="utf-8" ?>
<svg baseProfile="full" height="220.0" version="1.1" viewBox="0 0 310.0 220.0" width="310.0" xmlns="http://www.w3.org/2000/svg" xmlns:ev="http://www.w3.org/2001/xml-events" xmlns:xlink="http://www.w3.org/1999/xlink"><defs /><rect fill="none" height="1" id="NOT_HANDLED" width="1" x="0" y="0" /><defs /><rect fill="none" height="1" id="NOT_HANDLED" width="1" x="0" y="0" /><defs /><polyline fill="none" points="65.0,105.0 95.0,105.0" stroke="rgb(0,0,0)" stroke-width="0.25mm" /><defs /><polyline fill="none" points="95.0,135.0 95.0,75.0" stroke="rgb(0,0,0)" stroke-width="0.25mm" /><defs /><polyline fill="none" points="95.0,135.0 215.0,135.0" stroke="rgb(0,0,0)" stroke-width="0.25mm" /><defs /><polyline fill="none" points="95.0,75.0 215.0,75.0" stroke="rgb(0,0,0)" stroke-width="0.25mm" /><defs /><rect fill="rgb(192,192,192)" height="60.0" stroke="rgb(0,0,0)" stroke-width="0.25mm" width="90.0" x="95.0" y="75.0" /><defs /><polyline fill="none" points="185.0,105.0 245.0,105.0" stroke="rgb(0,0,0)" stroke-width="0.25mm" /><defs /><polygon fill="rgb(128,128,128)" points="205.0,195.0 175.0,185.0 175.0,205.0 205.0,195.0" stroke="rgb(128,128,128)" stroke-width="0.25mm" /><defs /><polyline fill="none" points="95.0,195.0 175.0,195.0" stroke="rgb(0,0,0)" stroke-width="0.25mm" /><defs /><text alignment-baseline="middle" fill="rgb(0,0,255)" font-family="Verdana" font-size="18" stroke="rgb(0,0,255)" stroke-width="0.25mm" text-anchor="middle" x="155.0" y="35.0">name<tspan class="bbox" display="none">5.0 15.0 305.0 55.0</tspan><tspan class="data-bind" display="none">%name</tspan></text><defs /><text alignment-baseline="middle" fill="rgb(0,0,0)" font-family="Verdana" font-size="18" stroke="rgb(0,0,0)" stroke-width="0.25mm" text-anchor="middle" x="155.0" y="165.0">d=d<tspan class="bbox" display="none">5.0 150.0 305.0 180.0</tspan><tspan class="data-bind" display="none">d=%d</tspan></text><defs /><polyline fill="none" points="55.0,205.0 55.0,125.0 141.0,125.0" stroke="rgb(191,0,0)" stroke-width="0.25mm" /><defs /><g id="flange_a"><rect fill="rgb(0,127,0)" height="20.0" stroke="rgb(0,127,0)" stroke-width="0.25mm" width="20.0" x="45.0" y="95.0" /><defs /></g><g id="flange_b"><rect fill="rgb(255,255,255)" height="20.0" stroke="rgb(0,127,0)" stroke-width="0.25mm" width="20.0" x="245.0" y="95.0" /><defs /></g><g id="heatPort"><rect fill="rgb(191,0,0)" height="20.0" stroke="rgb(191,0,0)" stroke-width="0.25mm" width="20.0" x="45.0" y="195.0" /><defs /></g></svg>