<svg width="32" height="32" xmlns="http://www.w3.org/2000/svg">
	<g>
		<g>
			<path d="M13.31,17.795c-0.476,0-0.876,0.319-0.998,0.756H2.074v-5.102h10.237c0.122,0.437,0.522,0.756,0.998,0.756
			c0.573,0,1.037-0.465,1.037-1.037c0-0.988-0.805-1.792-1.792-1.792H1.792C0.804,11.376,0,12.18,0,13.168v5.664
			c0,0.988,0.804,1.792,1.792,1.792h10.763c0.987,0,1.792-0.804,1.792-1.792C14.347,18.259,13.883,17.795,13.31,17.795z"></path>
		</g>
		<g>
			<path d="M30.208,11.376H19.446c-0.988,0-1.793,0.804-1.793,1.792c0,0.572,0.465,1.037,1.037,1.037
			c0.476,0,0.876-0.319,0.999-0.756h10.236v5.102H19.689c-0.123-0.437-0.523-0.756-0.999-0.756c-0.572,0-1.037,0.464-1.037,1.037
			c0,0.988,0.805,1.792,1.793,1.792h10.762c0.988,0,1.792-0.804,1.792-1.792v-5.664C32,12.18,31.196,11.376,30.208,11.376z"></path>
		</g>
		<g>
			<path d="M9.955,16c0,0.572,0.465,1.037,1.037,1.037h9.918c0.573,0,1.037-0.465,1.037-1.037s-0.464-1.037-1.037-1.037h-9.918
			C10.42,14.963,9.955,15.428,9.955,16z"></path>
		</g>
	</g>
</svg>