<svg width="32" height="32" xmlns="http://www.w3.org/2000/svg">
	<g>
		<path d="M20.332,16.645H12.23c-0.414,0-0.749,0.334-0.749,0.747c0,0.414,0.335,0.749,0.749,0.749h8.102
	c0.414,0,0.748-0.335,0.748-0.749C21.08,16.979,20.746,16.645,20.332,16.645z M20.332,12.28H12.23c-0.414,0-0.749,0.335-0.749,0.749
	s0.335,0.748,0.749,0.748h8.102c0.414,0,0.748-0.335,0.748-0.748S20.746,12.28,20.332,12.28z M29.31,2.68
	c0-1.479-1.235-2.68-2.756-2.68H5.446C3.928,0,2.691,1.202,2.691,2.68c0,1.387,1.091,2.517,2.479,2.653
	C4.968,5.716,4.843,6.146,4.843,6.607v22.649C4.843,30.771,6.072,32,7.585,32h16.831c1.513,0,2.742-1.229,2.742-2.743V6.607
	c0-0.461-0.124-0.893-0.327-1.274C28.218,5.197,29.31,4.067,29.31,2.68z M25.663,20.697H6.339V6.607c0-0.688,0.56-1.246,1.246-1.246
	h16.831c0.688,0,1.247,0.559,1.247,1.246V20.697z M26.554,3.865H5.446c-0.693,0-1.259-0.531-1.259-1.185
	c0-0.652,0.565-1.184,1.259-1.184h21.107c0.694,0,1.259,0.532,1.259,1.184C27.812,3.334,27.248,3.865,26.554,3.865z M20.332,7.667
	H12.23c-0.414,0-0.749,0.336-0.749,0.748c0,0.413,0.335,0.748,0.749,0.748h8.102c0.414,0,0.748-0.335,0.748-0.748
	C21.08,8.003,20.746,7.667,20.332,7.667z"></path>
	</g>
</svg>