<svg width="32" height="32" xmlns="http://www.w3.org/2000/svg">
	<g>
		<path d="M21.083,1.696C21.083,0.762,20.321,0,19.386,0h-6.773c-0.936,0-1.695,0.762-1.695,1.696c0,0.935,0.76,1.696,1.695,1.696
	h0.049c-0.156,0.387-0.243,0.816-0.243,1.262V28.42c0,0.923,0.37,1.796,0.988,2.348C14.095,31.55,15.085,32,16.13,32
	c1.067,0,2.068-0.461,2.758-1.269c0.604-0.56,0.947-1.397,0.947-2.312V4.654c0-0.449-0.086-0.883-0.245-1.274
	C20.431,3.278,21.083,2.562,21.083,1.696z M18.336,28.42c0,0.497-0.182,0.958-0.486,1.227c-0.031,0.025-0.058,0.054-0.083,0.084
	c-0.796,0.969-2.439,0.982-3.256,0.019c-0.026-0.03-0.057-0.06-0.088-0.086c-0.312-0.263-0.504-0.742-0.504-1.244v-3.671h0.984
	c0.414,0,0.749-0.336,0.749-0.751c0-0.414-0.335-0.749-0.749-0.749h-0.984v-2.5h0.984c0.414,0,0.749-0.337,0.749-0.749
	c0-0.415-0.335-0.75-0.749-0.75h-0.984v-2.292h0.984c0.414,0,0.749-0.334,0.749-0.749s-0.335-0.75-0.749-0.75h-0.984v-2.04h0.984
	c0.414,0,0.749-0.336,0.749-0.749c0-0.414-0.335-0.75-0.749-0.75h-0.984V9.983h0.984c0.414,0,0.749-0.335,0.749-0.749
	c0-0.416-0.335-0.751-0.749-0.751h-0.984v-3.83c0-0.593,0.267-1.137,0.665-1.352c0.012-0.007,0.02-0.018,0.032-0.025h3.025
	c0.012,0.006,0.02,0.019,0.031,0.024c0.33,0.18,0.663,0.668,0.663,1.354V28.42z"></path>
	</g>
</svg>