<?xml version="1.0"?><svg width="120" height="96" xmlns="http://www.w3.org/2000/svg" viewBox="0 0 720 575">
 <g>
  <path id="svg_2" fill="#4d4d4d" fill-rule="evenodd" stroke="black" stroke-width="1.94878px" d="m276.136566,453.387848l-261.322128,-154.619751l-3.776314,-23.631836l626.870934,-98.578568l-6.797363,27.007843l-354.975128,249.822311z"/>
  <g id="svg_3" transform="matrix(1.92437 0 0 1.72035 -172.875 -405.445)">
   <path id="svg_4" fill="#cacaca" fill-rule="evenodd" stroke="black" stroke-width="1px" d="m106.531807,395.954346l-19.595856,14.565125l-8.773201,13.81958l-0.253716,23.073059l3.924744,2.747314l-0.392479,5.494629l2.74733,1.569885l0.392464,-6.181427l3.728516,2.1586l0.981186,-22.272949l7.457031,-13.736633l19.623734,-14.521637l-9.839752,-6.715546z"/>
   <path id="svg_5" fill="none" fill-rule="evenodd" stroke="black" stroke-width="1px" d="m78.615913,424.559296c0.138756,0.832611 10.545822,6.244293 10.545822,6.244293"/>
   <path id="svg_6" fill="none" fill-rule="evenodd" stroke="black" stroke-width="1px" d="m87.357857,410.821991l9.01944,6.105499"/>
  </g>
  <g id="svg_7" transform="matrix(1.92437 0 0 1.72035 -135.111 -383.163)">
   <path id="svg_8" fill="#cacaca" fill-rule="evenodd" stroke="black" stroke-width="1px" d="m106.531807,395.954346l-19.595856,14.565125l-8.773201,13.81958l-0.253716,23.073059l3.924744,2.747314l-0.392479,5.494629l2.74733,1.569885l0.392464,-6.181427l3.728516,2.1586l0.981186,-22.272949l7.457031,-13.736633l19.623734,-14.521637l-9.839752,-6.715546z"/>
   <path id="svg_9" fill="none" fill-rule="evenodd" stroke="black" stroke-width="1px" d="m78.615913,424.559296c0.138756,0.832611 10.545822,6.244293 10.545822,6.244293"/>
   <path id="svg_10" fill="none" fill-rule="evenodd" stroke="black" stroke-width="1px" d="m87.357857,410.821991l9.01944,6.105499"/>
  </g>
  <g id="svg_11" transform="matrix(1.92437 0 0 1.72035 -89.7956 -358.856)">
   <path id="svg_12" fill="#cacaca" fill-rule="evenodd" stroke="black" stroke-width="1px" d="m106.531807,395.954346l-19.595856,14.565125l-8.773201,13.81958l-0.253716,23.073059l3.924744,2.747314l-0.392479,5.494629l2.74733,1.569885l0.392464,-6.181427l3.728516,2.1586l0.981186,-22.272949l7.457031,-13.736633l19.623734,-14.521637l-9.839752,-6.715546z"/>
   <path id="svg_13" fill="none" fill-rule="evenodd" stroke="black" stroke-width="1px" d="m78.615913,424.559296c0.138756,0.832611 10.545822,6.244293 10.545822,6.244293"/>
   <path id="svg_14" fill="none" fill-rule="evenodd" stroke="black" stroke-width="1px" d="m87.357857,410.821991l9.01944,6.105499"/>
  </g>
  <g id="svg_15" transform="matrix(1.92437 0 0 1.72035 -47.5003 -332.524)">
   <path id="svg_16" fill="#cacaca" fill-rule="evenodd" stroke="black" stroke-width="1px" d="m106.531807,395.954346l-19.595856,14.565125l-8.773201,13.81958l-0.253716,23.073059l3.924744,2.747314l-0.392479,5.494629l2.74733,1.569885l0.392464,-6.181427l3.728516,2.1586l0.981186,-22.272949l7.457031,-13.736633l19.623734,-14.521637l-9.839752,-6.715546z"/>
   <path id="svg_17" fill="none" fill-rule="evenodd" stroke="black" stroke-width="1px" d="m78.615913,424.559296c0.138756,0.832611 10.545822,6.244293 10.545822,6.244293"/>
   <path id="svg_18" fill="none" fill-rule="evenodd" stroke="black" stroke-width="1px" d="m87.357857,410.821991l9.01944,6.105499"/>
  </g>
  <g id="svg_19" transform="matrix(1.92437 0 0 1.72035 -5.20541 -304.165)">
   <path id="svg_20" fill="#cacaca" fill-rule="evenodd" stroke="black" stroke-width="1px" d="m106.531807,395.954346l-19.595856,14.565125l-8.773201,13.81958l-0.253716,23.073059l3.924744,2.747314l-0.392479,5.494629l2.74733,1.569885l0.392464,-6.181427l3.728516,2.1586l0.981186,-22.272949l7.457031,-13.736633l19.623734,-14.521637l-9.839752,-6.715546z"/>
   <path id="svg_21" fill="none" fill-rule="evenodd" stroke="black" stroke-width="1px" d="m78.615913,424.559296c0.138756,0.832611 10.545822,6.244293 10.545822,6.244293"/>
   <path id="svg_22" fill="none" fill-rule="evenodd" stroke="black" stroke-width="1px" d="m87.357857,410.821991l9.01944,6.105499"/>
  </g>
  <g id="svg_23" transform="matrix(1.92437 0 0 1.72035 31.0474 -281.884)">
   <path id="svg_24" fill="#cacaca" fill-rule="evenodd" stroke="black" stroke-width="1px" d="m106.531807,395.954346l-19.595856,14.565125l-8.773201,13.81958l-0.253716,23.073059l3.924744,2.747314l-0.392479,5.494629l2.74733,1.569885l0.392464,-6.181427l3.728516,2.1586l0.981186,-22.272949l7.457031,-13.736633l19.623734,-14.521637l-9.839752,-6.715546z"/>
   <path id="svg_25" fill="none" fill-rule="evenodd" stroke="black" stroke-width="1px" d="m78.615913,424.559296c0.138756,0.832611 10.545822,6.244293 10.545822,6.244293"/>
   <path id="svg_26" fill="none" fill-rule="evenodd" stroke="black" stroke-width="1px" d="m87.357857,410.821991l9.01944,6.105499"/>
  </g>
  <g id="svg_27" transform="matrix(-2.01786 0 0 1.92623 616.278 -391.989)">
   <path id="svg_28" fill="#cacaca" fill-rule="evenodd" stroke="black" stroke-width="1px" d="m151.382385,409.099457l-19.595856,14.565094l-8.773186,13.819611l-0.253738,23.073059l3.924751,2.747253l-0.392479,5.49469l2.747322,1.569824l0.392487,-6.181458l3.728546,2.158661l0.981155,-22.272949l7.457001,-13.736664l19.623779,-14.521545l-9.839783,-6.715576z"/>
   <path id="svg_29" fill="none" fill-rule="evenodd" stroke="black" stroke-width="1px" d="m123.466507,437.704437c0.138763,0.83252 10.545822,6.244263 10.545822,6.244263"/>
   <path id="svg_30" fill="none" fill-rule="evenodd" stroke="black" stroke-width="1px" d="m132.208435,423.967072l9.019409,6.105469"/>
  </g>
  <g id="svg_31" transform="matrix(-2.01786 0 0 1.92623 651.775 -414.946)">
   <path id="svg_32" fill="#cacaca" fill-rule="evenodd" stroke="black" stroke-width="1px" d="m151.382385,409.099457l-19.595856,14.565094l-8.773186,13.819611l-0.253738,23.073059l3.924751,2.747253l-0.392479,5.49469l2.747322,1.569824l0.392487,-6.181458l3.728546,2.158661l0.981155,-22.272949l7.457001,-13.736664l19.623779,-14.521545l-9.839783,-6.715576z"/>
   <path id="svg_33" fill="none" fill-rule="evenodd" stroke="black" stroke-width="1px" d="m123.466507,437.704437c0.138763,0.83252 10.545822,6.244263 10.545822,6.244263"/>
   <path id="svg_34" fill="none" fill-rule="evenodd" stroke="black" stroke-width="1px" d="m132.208435,423.967072l9.019409,6.105469"/>
  </g>
  <g id="svg_35" transform="matrix(-2.01786 0 0 1.92623 686.518 -437.903)">
   <path id="svg_36" fill="#cacaca" fill-rule="evenodd" stroke="black" stroke-width="1px" d="m151.382385,409.099457l-19.595856,14.565094l-8.773186,13.819611l-0.253738,23.073059l3.924751,2.747253l-0.392479,5.49469l2.747322,1.569824l0.392487,-6.181458l3.728546,2.158661l0.981155,-22.272949l7.457001,-13.736664l19.623779,-14.521545l-9.839783,-6.715576z"/>
   <path id="svg_37" fill="none" fill-rule="evenodd" stroke="black" stroke-width="1px" d="m123.466507,437.704437c0.138763,0.83252 10.545822,6.244263 10.545822,6.244263"/>
   <path id="svg_38" fill="none" fill-rule="evenodd" stroke="black" stroke-width="1px" d="m132.208435,423.967072l9.019409,6.105469"/>
  </g>
  <g id="svg_39" transform="matrix(-2.01786 0 0 1.92623 723.525 -462.209)">
   <path id="svg_40" fill="#cacaca" fill-rule="evenodd" stroke="black" stroke-width="1px" d="m151.382385,409.099457l-19.595856,14.565094l-8.773186,13.819611l-0.253738,23.073059l3.924751,2.747253l-0.392479,5.49469l2.747322,1.569824l0.392487,-6.181458l3.728546,2.158661l0.981155,-22.272949l7.457001,-13.736664l19.623779,-14.521545l-9.839783,-6.715576z"/>
   <path id="svg_41" fill="none" fill-rule="evenodd" stroke="black" stroke-width="1px" d="m123.466507,437.704437c0.138763,0.83252 10.545822,6.244263 10.545822,6.244263"/>
   <path id="svg_42" fill="none" fill-rule="evenodd" stroke="black" stroke-width="1px" d="m132.208435,423.967072l9.019409,6.105469"/>
  </g>
  <g id="svg_43" transform="matrix(-2.01786 0 0 1.92623 761.289 -486.517)">
   <path id="svg_44" fill="#cacaca" fill-rule="evenodd" stroke="black" stroke-width="1px" d="m151.382385,409.099457l-19.595856,14.565094l-8.773186,13.819611l-0.253738,23.073059l3.924751,2.747253l-0.392479,5.49469l2.747322,1.569824l0.392487,-6.181458l3.728546,2.158661l0.981155,-22.272949l7.457001,-13.736664l19.623779,-14.521545l-9.839783,-6.715576z"/>
   <path id="svg_45" fill="none" fill-rule="evenodd" stroke="black" stroke-width="1px" d="m123.466507,437.704437c0.138763,0.83252 10.545822,6.244263 10.545822,6.244263"/>
   <path id="svg_46" fill="none" fill-rule="evenodd" stroke="black" stroke-width="1px" d="m132.208435,423.967072l9.019409,6.105469"/>
  </g>
  <g id="svg_47" transform="matrix(-2.01786 0 0 1.92623 796.031 -511.499)">
   <path id="svg_48" fill="#cacaca" fill-rule="evenodd" stroke="black" stroke-width="1px" d="m151.382385,409.099457l-19.595856,14.565094l-8.773186,13.819611l-0.253738,23.073059l3.924751,2.747253l-0.392479,5.49469l2.747322,1.569824l0.392487,-6.181458l3.728546,2.158661l0.981155,-22.272949l7.457001,-13.736664l19.623779,-14.521545l-9.839783,-6.715576z"/>
   <path id="svg_49" fill="none" fill-rule="evenodd" stroke="black" stroke-width="1px" d="m123.466507,437.704437c0.138763,0.83252 10.545822,6.244263 10.545822,6.244263"/>
   <path id="svg_50" fill="none" fill-rule="evenodd" stroke="black" stroke-width="1px" d="m132.208435,423.967072l9.019409,6.105469"/>
  </g>
  <g id="svg_51" transform="matrix(-2.01786 0 0 1.92623 824.731 -535.805)">
   <path id="svg_52" fill="#cacaca" fill-rule="evenodd" stroke="black" stroke-width="1px" d="m151.382385,409.099457l-19.595856,14.565094l-8.773186,13.819611l-0.253738,23.073059l3.924751,2.747253l-0.392479,5.49469l2.747322,1.569824l0.392487,-6.181458l3.728546,2.158661l0.981155,-22.272949l7.457001,-13.736664l19.623779,-14.521545l-9.839783,-6.715576z"/>
   <path id="svg_53" fill="none" fill-rule="evenodd" stroke="black" stroke-width="1px" d="m123.466507,437.704437c0.138763,0.83252 10.545822,6.244263 10.545822,6.244263"/>
   <path id="svg_54" fill="none" fill-rule="evenodd" stroke="black" stroke-width="1px" d="m132.208435,423.967072l9.019409,6.105469"/>
  </g>
  <g id="svg_55" transform="matrix(-2.01786 0 0 1.92623 861.739 -560.113)">
   <path id="svg_56" fill="#cacaca" fill-rule="evenodd" stroke="black" stroke-width="1px" d="m151.382385,409.099457l-19.595856,14.565094l-8.773186,13.819611l-0.253738,23.073059l3.924751,2.747253l-0.392479,5.49469l2.747322,1.569824l0.392487,-6.181458l3.728546,2.158661l0.981155,-22.272949l7.457001,-13.736664l19.623779,-14.521545l-9.839783,-6.715576z"/>
   <path id="svg_57" fill="none" fill-rule="evenodd" stroke="black" stroke-width="1px" d="m123.466507,437.704437c0.138763,0.83252 10.545822,6.244263 10.545822,6.244263"/>
   <path id="svg_58" fill="none" fill-rule="evenodd" stroke="black" stroke-width="1px" d="m132.208435,423.967072l9.019409,6.105469"/>
  </g>
  <g id="svg_59" transform="matrix(-2.01786 0 0 1.92623 899.503 -584.42)">
   <path id="svg_60" fill="#cacaca" fill-rule="evenodd" stroke="black" stroke-width="1px" d="m151.382385,409.099457l-19.595856,14.565094l-8.773186,13.819611l-0.253738,23.073059l3.924751,2.747253l-0.392479,5.49469l2.747322,1.569824l0.392487,-6.181458l3.728546,2.158661l0.981155,-22.272949l7.457001,-13.736664l19.623779,-14.521545l-9.839783,-6.715576z"/>
   <path id="svg_61" fill="none" fill-rule="evenodd" stroke="black" stroke-width="1px" d="m123.466507,437.704437c0.138763,0.83252 10.545822,6.244263 10.545822,6.244263"/>
   <path id="svg_62" fill="none" fill-rule="evenodd" stroke="black" stroke-width="1px" d="m132.208435,423.967072l9.019409,6.105469"/>
  </g>
  <g id="svg_63" transform="matrix(1.92437 0 0 1.72035 344.482 -898.336)">
   <path id="svg_64" fill="gray" fill-rule="evenodd" stroke="black" stroke-width="1px" d="m42.488163,527.673157l0.68684,31.496094l4.61158,2.354858l-0.196243,4.3172l3.532272,1.766174l0.196243,-4.709717l4.120987,2.060425l0.294357,-29.141174"/>
   <path id="svg_65" fill="#ccc" fill-rule="evenodd" stroke="black" stroke-width="1px" d="m26.69105,545.923218l17.857603,-12.46106l11.479889,2.747314l-13.932846,-8.830688l-7.751389,-0.784973l-17.759489,12.853577l10.106232,6.47583z"/>
  </g>
  <g id="svg_66" transform="matrix(1.92437 0 0 1.72035 386.022 -874.704)">
   <path id="svg_67" fill="gray" fill-rule="evenodd" stroke="black" stroke-width="1px" d="m42.488163,527.673157l0.68684,31.496094l4.61158,2.354858l-0.196243,4.3172l3.532272,1.766174l0.196243,-4.709717l4.120987,2.060425l0.294357,-29.141174"/>
   <path id="svg_68" fill="#ccc" fill-rule="evenodd" stroke="black" stroke-width="1px" d="m26.69105,545.923218l17.857603,-12.46106l11.479889,2.747314l-13.932846,-8.830688l-7.751389,-0.784973l-17.759489,12.853577l10.106232,6.47583z"/>
  </g>
  <g id="svg_69" transform="matrix(1.92437 0 0 1.72035 429.072 -851.073)">
   <path id="svg_70" fill="gray" fill-rule="evenodd" stroke="black" stroke-width="1px" d="m42.488163,527.673157l0.68684,31.496094l4.61158,2.354858l-0.196243,4.3172l3.532272,1.766174l0.196243,-4.709717l4.120987,2.060425l0.294357,-29.141174"/>
   <path id="svg_71" fill="#ccc" fill-rule="evenodd" stroke="black" stroke-width="1px" d="m26.69105,545.923218l17.857603,-12.46106l11.479889,2.747314l-13.932846,-8.830688l-7.751389,-0.784973l-17.759489,12.853577l10.106232,6.47583z"/>
  </g>
  <g id="svg_72" transform="matrix(1.92437 0 0 1.72035 466.836 -829.467)">
   <path id="svg_73" fill="gray" fill-rule="evenodd" stroke="black" stroke-width="1px" d="m42.488163,527.673157l0.68684,31.496094l4.61158,2.354858l-0.196243,4.3172l3.532272,1.766174l0.196243,-4.709717l4.120987,2.060425l0.294357,-29.141174"/>
   <path id="svg_74" fill="#ccc" fill-rule="evenodd" stroke="black" stroke-width="1px" d="m26.69105,545.923218l17.857603,-12.46106l11.479889,2.747314l-13.932846,-8.830688l-7.751389,-0.784973l-17.759489,12.853577l10.106232,6.47583z"/>
  </g>
  <g id="svg_75" transform="matrix(1.92437 0 0 1.72035 514.418 -800.434)">
   <path id="svg_76" fill="gray" fill-rule="evenodd" stroke="black" stroke-width="1px" d="m42.488163,527.673157l0.68684,31.496094l4.61158,2.354858l-0.196243,4.3172l3.532272,1.766174l0.196243,-4.709717l4.120987,2.060425l0.294357,-29.141174"/>
   <path id="svg_77" fill="#ccc" fill-rule="evenodd" stroke="black" stroke-width="1px" d="m26.69105,545.923218l17.857603,-12.46106l11.479889,2.747314l-13.932846,-8.830688l-7.751389,-0.784973l-17.759489,12.853577l10.106232,6.47583z"/>
  </g>
  <g id="svg_78" transform="matrix(1.92437 0 0 1.72035 558.978 -774.777)">
   <path id="svg_79" fill="gray" fill-rule="evenodd" stroke="black" stroke-width="1px" d="m42.488163,527.673157l0.68684,31.496094l4.61158,2.354858l-0.196243,4.3172l3.532272,1.766174l0.196243,-4.709717l4.120987,2.060425l0.294357,-29.141174"/>
   <path id="svg_80" fill="#ccc" fill-rule="evenodd" stroke="black" stroke-width="1px" d="m26.69105,545.923218l17.857603,-12.46106l11.479889,2.747314l-13.932846,-8.830688l-7.751389,-0.784973l-17.759489,12.853577l10.106232,6.47583z"/>
  </g>
  <g id="svg_81" transform="matrix(-1.95993 0 0 1.72035 484.803 -894.284)">
   <path id="svg_82" fill="gray" fill-rule="evenodd" stroke="black" stroke-width="1px" d="m87.985794,527.673157l0.686844,31.496094l4.611572,2.354858l-0.196251,4.3172l3.532295,1.766174l0.19622,-4.709717l4.12101,2.060425l0.294342,-29.141174"/>
   <path id="svg_83" fill="#ccc" fill-rule="evenodd" stroke="black" stroke-width="1px" d="m72.18869,545.923218l17.857597,-12.46106l11.479897,2.747314l-13.932861,-8.830688l-7.751373,-0.784973l-17.759499,12.853577l10.106239,6.47583z"/>
  </g>
  <g id="svg_84" transform="matrix(-1.95993 0 0 1.72035 453.838 -870.654)">
   <path id="svg_85" fill="gray" fill-rule="evenodd" stroke="black" stroke-width="1px" d="m87.985794,527.673157l0.686844,31.496094l4.611572,2.354858l-0.196251,4.3172l3.532295,1.766174l0.19622,-4.709717l4.12101,2.060425l0.294342,-29.141174"/>
   <path id="svg_86" fill="#ccc" fill-rule="evenodd" stroke="black" stroke-width="1px" d="m72.18869,545.923218l17.857597,-12.46106l11.479897,2.747314l-13.932861,-8.830688l-7.751373,-0.784973l-17.759499,12.853577l10.106239,6.47583z"/>
  </g>
  <g id="svg_87" transform="matrix(-1.95993 0 0 1.72035 418.34 -844.997)">
   <path id="svg_88" fill="gray" fill-rule="evenodd" stroke="black" stroke-width="1px" d="m87.985794,527.673157l0.686844,31.496094l4.611572,2.354858l-0.196251,4.3172l3.532295,1.766174l0.19622,-4.709717l4.12101,2.060425l0.294342,-29.141174"/>
   <path id="svg_89" fill="#ccc" fill-rule="evenodd" stroke="black" stroke-width="1px" d="m72.18869,545.923218l17.857597,-12.46106l11.479897,2.747314l-13.932861,-8.830688l-7.751373,-0.784973l-17.759499,12.853577l10.106239,6.47583z"/>
  </g>
  <g id="svg_90" transform="matrix(-1.95993 0 0 1.72035 380.577 -818.665)">
   <path id="svg_91" fill="gray" fill-rule="evenodd" stroke="black" stroke-width="1px" d="m87.985794,527.673157l0.686844,31.496094l4.611572,2.354858l-0.196251,4.3172l3.532295,1.766174l0.19622,-4.709717l4.12101,2.060425l0.294342,-29.141174"/>
   <path id="svg_92" fill="#ccc" fill-rule="evenodd" stroke="black" stroke-width="1px" d="m72.18869,545.923218l17.857597,-12.46106l11.479897,2.747314l-13.932861,-8.830688l-7.751373,-0.784973l-17.759499,12.853577l10.106239,6.47583z"/>
  </g>
  <g id="svg_93" transform="matrix(-1.95993 0 0 1.72035 340.548 -792.332)">
   <path id="svg_94" fill="gray" fill-rule="evenodd" stroke="black" stroke-width="1px" d="m87.985794,527.673157l0.686844,31.496094l4.611572,2.354858l-0.196251,4.3172l3.532295,1.766174l0.19622,-4.709717l4.12101,2.060425l0.294342,-29.141174"/>
   <path id="svg_95" fill="#ccc" fill-rule="evenodd" stroke="black" stroke-width="1px" d="m72.18869,545.923218l17.857597,-12.46106l11.479897,2.747314l-13.932861,-8.830688l-7.751373,-0.784973l-17.759499,12.853577l10.106239,6.47583z"/>
  </g>
  <g id="svg_96" transform="matrix(-1.95993 0 0 1.72035 302.029 -763.298)">
   <path id="svg_97" fill="gray" fill-rule="evenodd" stroke="black" stroke-width="1px" d="m87.985794,527.673157l0.686844,31.496094l4.611572,2.354858l-0.196251,4.3172l3.532295,1.766174l0.19622,-4.709717l4.12101,2.060425l0.294342,-29.141174"/>
   <path id="svg_98" fill="#ccc" fill-rule="evenodd" stroke="black" stroke-width="1px" d="m72.18869,545.923218l17.857597,-12.46106l11.479897,2.747314l-13.932861,-8.830688l-7.751373,-0.784973l-17.759499,12.853577l10.106239,6.47583z"/>
  </g>
  <g id="svg_99" transform="matrix(-1.95993 0 0 1.72035 261.245 -733.59)">
   <path id="svg_100" fill="gray" fill-rule="evenodd" stroke="black" stroke-width="1px" d="m87.985794,527.673157l0.686844,31.496094l4.611572,2.354858l-0.196251,4.3172l3.532295,1.766174l0.19622,-4.709717l4.12101,2.060425l0.294342,-29.141174"/>
   <path id="svg_101" fill="#ccc" fill-rule="evenodd" stroke="black" stroke-width="1px" d="m72.18869,545.923218l17.857597,-12.46106l11.479897,2.747314l-13.932861,-8.830688l-7.751373,-0.784973l-17.759499,12.853577l10.106239,6.47583z"/>
  </g>
  <g id="svg_102" transform="matrix(-1.95993 0 0 1.72035 223.482 -708.608)">
   <path id="svg_103" fill="gray" fill-rule="evenodd" stroke="black" stroke-width="1px" d="m87.985794,527.673157l0.686844,31.496094l4.611572,2.354858l-0.196251,4.3172l3.532295,1.766174l0.19622,-4.709717l4.12101,2.060425l0.294342,-29.141174"/>
   <path id="svg_104" fill="#ccc" fill-rule="evenodd" stroke="black" stroke-width="1px" d="m72.18869,545.923218l17.857597,-12.46106l11.479897,2.747314l-13.932861,-8.830688l-7.751373,-0.784973l-17.759499,12.853577l10.106239,6.47583z"/>
  </g>
  <g id="svg_105" transform="matrix(-1.95993 0 0 1.72035 182.698 -679.574)">
   <path id="svg_106" fill="gray" fill-rule="evenodd" stroke="black" stroke-width="1px" d="m87.985794,527.673157l0.686844,31.496094l4.611572,2.354858l-0.196251,4.3172l3.532295,1.766174l0.19622,-4.709717l4.12101,2.060425l0.294342,-29.141174"/>
   <path id="svg_107" fill="#ccc" fill-rule="evenodd" stroke="black" stroke-width="1px" d="m72.18869,545.923218l17.857597,-12.46106l11.479897,2.747314l-13.932861,-8.830688l-7.751373,-0.784973l-17.759499,12.853577l10.106239,6.47583z"/>
  </g>
  <g id="svg_108" transform="matrix(-2.01786 0 0 1.92623 934.244 -609.402)">
   <path id="svg_109" fill="#cacaca" fill-rule="evenodd" stroke="black" stroke-width="1px" d="m151.382385,409.099457l-19.595856,14.565094l-8.773186,13.819611l-0.253738,23.073059l3.924751,2.747253l-0.392479,5.49469l2.747322,1.569824l0.392487,-6.181458l3.728546,2.158661l0.981155,-22.272949l7.457001,-13.736664l19.623779,-14.521545l-9.839783,-6.715576z"/>
   <path id="svg_110" fill="none" fill-rule="evenodd" stroke="black" stroke-width="1px" d="m123.466507,437.704437c0.138763,0.83252 10.545822,6.244263 10.545822,6.244263"/>
   <path id="svg_111" fill="none" fill-rule="evenodd" stroke="black" stroke-width="1px" d="m132.208435,423.967072l9.019409,6.105469"/>
  </g>
  <g id="svg_112" transform="matrix(1.92437 0 0 1.72035 -153.238 -392.616)">
   <path id="svg_113" fill="#747474" fill-rule="evenodd" stroke="black" stroke-width="1.198903px" d="m85.930931,388.393066l135.239769,93.513855l190.926773,-150.958008l-137.891541,-90.841995l-188.275002,148.286148z"/>
   <path id="svg_114" fill="#575757" fill-rule="evenodd" stroke="black" stroke-width="1px" d="m101.372688,378.768311l113.228828,77.706055l159.852463,-125.439819l-115.449036,-75.485916l-157.632256,123.219681z"/>
   <path id="svg_115" fill="none" fill-rule="evenodd" stroke="black" stroke-width="1px" d="m214.882767,456.046509c0,1.569946 5.887115,25.903381 5.887115,25.903381"/>
   <path id="svg_116" fill="none" fill-rule="evenodd" stroke="black" stroke-width="1px" d="m374.227539,331.239502l37.677612,-0.392426"/>
   <path id="svg_117" fill="none" fill-rule="evenodd" stroke="black" stroke-width="1px" d="m258.447449,255.884354l16.483978,-15.69899"/>
   <path id="svg_118" fill="none" fill-rule="evenodd" stroke="black" stroke-width="1px" d="m101.065041,378.729004l-16.483925,9.811829"/>
  </g>
  <path id="svg_119" fill="none" fill-rule="evenodd" stroke="black" stroke-width="1.94878px" d="m276.136566,454.062988l-3.021088,-16.204651"/>
 </g>
</svg>