<svg width="32" height="32" xmlns="http://www.w3.org/2000/svg">
	<g>
		<g>
			<path d="M28,1.333c1.471,0,2.667,1.196,2.667,2.667v24c0,1.471-1.196,2.667-2.667,2.667H4
				c-1.471,0-2.667-1.196-2.667-2.667V4c0-1.471,1.196-2.667,2.667-2.667H28 M28,0H4C1.8,0,0,1.8,0,4v24c0,2.2,1.8,4,4,4h24
				c2.2,0,4-1.8,4-4V4C32,1.8,30.2,0,28,0L28,0z"></path>
		</g>
		<g>
			<path d="M16,5.333c5.882,0,10.667,4.785,10.667,10.667c0,5.882-4.785,10.667-10.667,10.667
				c-5.881,0-10.667-4.785-10.667-10.667C5.333,10.119,10.119,5.333,16,5.333 M16,4C9.373,4,4,9.373,4,16c0,6.628,5.373,12,12,12
				c6.626,0,12-5.372,12-12C28,9.373,22.626,4,16,4L16,4z"></path>
		</g>
		<g>
			<path d="M20,16.667h-4.667V9.333c0-0.369,0.299-0.667,0.667-0.667s0.667,0.298,0.667,0.667v6H20
				c0.368,0,0.667,0.297,0.667,0.666S20.368,16.667,20,16.667z"></path>
		</g>
	</g>
</svg>