<?xml version="1.0" encoding="UTF-8" standalone="no"?>
<svg
   xmlns:dc="http://purl.org/dc/elements/1.1/"
   xmlns:cc="http://creativecommons.org/ns#"
   xmlns:rdf="http://www.w3.org/1999/02/22-rdf-syntax-ns#"
   xmlns:svg="http://www.w3.org/2000/svg"
   xmlns="http://www.w3.org/2000/svg"
   xmlns:sodipodi="http://sodipodi.sourceforge.net/DTD/sodipodi-0.dtd"
   xmlns:inkscape="http://www.inkscape.org/namespaces/inkscape"
   height="21"
   version="1.1"
   width="106"
   style="overflow:hidden"
   id="svg2"
   inkscape:version="0.48.4 r9939"
   sodipodi:docname="command.svg">
  <metadata
     id="metadata16">
    <rdf:RDF>
      <cc:Work
         rdf:about="">
        <dc:format>image/svg+xml</dc:format>
        <dc:type
           rdf:resource="http://purl.org/dc/dcmitype/StillImage" />
      </cc:Work>
    </rdf:RDF>
  </metadata>
  <sodipodi:namedview
     pagecolor="#ffffff"
     bordercolor="#666666"
     borderopacity="1"
     objecttolerance="10"
     gridtolerance="10"
     guidetolerance="10"
     inkscape:pageopacity="0"
     inkscape:pageshadow="2"
     inkscape:window-width="640"
     inkscape:window-height="480"
     id="namedview14"
     showgrid="false"
     fit-margin-top="0"
     fit-margin-left="0"
     fit-margin-right="0"
     fit-margin-bottom="0"
     inkscape:zoom="1.18"
     inkscape:cx="100.5"
     inkscape:cy="-79.5"
     inkscape:window-x="0"
     inkscape:window-y="0"
     inkscape:window-maximized="0"
     inkscape:current-layer="svg2" />
  <desc
     id="desc4">Created with Raphaël 2.1.0</desc>
  <defs
     id="defs6" />
  <path
     d="m 0.5,3.5 a 3,3 0 0 1 3,-3 l 6,0 3,3 8,0 3,-3 79,0 m 0,0 a 3,3 0 0 1 3,3 l -105,0"
     style="fill:#0011ad;stroke:#0011ad"
     id="path8"
     inkscape:connector-curvature="0" />
  <rect
     x="0.5"
     y="3.5"
     width="105"
     height="12"
     r="0"
     rx="0"
     ry="0"
     style="fill:#0011ad;stroke:#0011ad"
     id="rect10" />
  <path
     d="m 0.5,14.5 a 3,3 0 0 0 3,3 l 6,0 3,3 8,0 3,-3 79,0 m 0,0 a 3,3 0 0 0 3,-3 l -105,0"
     style="fill:#0011ad;stroke:#0011ad"
     id="path12"
     inkscape:connector-curvature="0" />
</svg>
