<?xml version="1.0" encoding="UTF-8" standalone="no"?>
<svg
   xmlns:dc="http://purl.org/dc/elements/1.1/"
   xmlns:cc="http://creativecommons.org/ns#"
   xmlns:rdf="http://www.w3.org/1999/02/22-rdf-syntax-ns#"
   xmlns:svg="http://www.w3.org/2000/svg"
   xmlns="http://www.w3.org/2000/svg"
   xmlns:sodipodi="http://sodipodi.sourceforge.net/DTD/sodipodi-0.dtd"
   xmlns:inkscape="http://www.inkscape.org/namespaces/inkscape"
   height="27.125"
   version="1.1"
   width="126.875"
   style="overflow:hidden"
   id="svg2"
   inkscape:version="0.48.4 r9939"
   sodipodi:docname="command.svg">
  <metadata
     id="metadata16">
    <rdf:RDF>
      <cc:Work
         rdf:about="">
        <dc:format>image/svg+xml</dc:format>
        <dc:type
           rdf:resource="http://purl.org/dc/dcmitype/StillImage" />
      </cc:Work>
    </rdf:RDF>
  </metadata>
  <sodipodi:namedview
     pagecolor="#ffffff"
     bordercolor="#666666"
     borderopacity="1"
     objecttolerance="10"
     gridtolerance="10"
     guidetolerance="10"
     inkscape:pageopacity="0"
     inkscape:pageshadow="2"
     inkscape:window-width="1918"
     inkscape:window-height="1173"
     id="namedview14"
     showgrid="false"
     fit-margin-top="0"
     fit-margin-left="0"
     fit-margin-right="0"
     fit-margin-bottom="0"
     inkscape:zoom="5.6568542"
     inkscape:cx="30.774886"
     inkscape:cy="11.235461"
     inkscape:window-x="3840"
     inkscape:window-y="25"
     inkscape:window-maximized="1"
     inkscape:current-layer="svg2" />
  <desc
     id="desc4">Created with Raphaël 2.1.0</desc>
  <defs
     id="defs6" />
  <path
     d="m 0.6025,4.81525 a 3.54,3.54 0 0 1 3.54,-3.54 l 7.08,0 3.54,3.54 9.44,0 3.54,-3.422 0,3.422"
     style="fill:#0088cc;stroke:#0088cc;stroke-width:1.17999995"
     id="path8"
     inkscape:connector-curvature="0" />
  <path
     d="m 29.5125,0.68525 93.22,0 0,0 a 3.54,3.54 0 0 1 3.54,3.54 l -96.76,0 0,-3.54"
     style="fill:#0088cc;stroke:#0088cc;stroke-width:1.17999995"
     id="path9"
     class="x-shift-name"
     inkscape:connector-curvature="0" />
  <rect
     class="x-stretch-name y-stretch-name"
     x="28.686499"
     y="0.68525004"
     width="1.298"
     height="22.125"
     style="fill:#0088cc;stroke:#0088cc;stroke-width:1.17999995"
     id="rect11" />
  <rect
     class="x-stretch-name y-stretch-name"
     x="0.60249996"
     y="4.73325"
     width="125.67"
     height="14.796"
     r="0"
     rx="0"
     ry="0"
     style="fill:#0088cc;stroke:#0088cc;stroke-width:1.17999995"
     id="rect10" />
  <path
     d="m 0.6025,19.44725 a 3.54,3.54 0 0 0 3.54,3.54 l 7.08,0 3.54,3.54 9.44,0 3.54,-3.54 0,-3.658"
     style="fill:#0088cc;stroke:#0088cc;stroke-width:1.17999995"
     id="path12"
     class="y-shift-name"
     inkscape:connector-curvature="0" />
  <path
     d="m 29.5125,22.81025 93.22,0 0,0 a 3.54,3.54 0 0 0 3.54,-3.54 l -96.76,0 0,3.54"
     style="fill:#0088cc;stroke:#0088cc;stroke-width:1.17999995"
     id="path15"
     class="x-shift-name y-shift-name"
     inkscape:connector-curvature="0" />
<!--
  <path
     d="m 0.5,3.5 a 3,3 0 0 1 3,-3 l 6,0 3,3 8,0 3,-3 79,0 m 0,0 a 3,3 0 0 1 3,3 l -105,0"
     style="fill:#0088cc;stroke:#0088cc"
     id="path8"
     inkscape:connector-curvature="0" />
  <rect
     x="0.5"
     y="3.5"
     width="105"
     height="12"
     r="0"
     rx="0"
     ry="0"
     style="fill:#0088cc;stroke:#0088cc"
     id="rect10" />
  <path
     d="m 0.5,14.5 a 3,3 0 0 0 3,3 l 6,0 3,3 8,0 3,-3 79,0 m 0,0 a 3,3 0 0 0 3,-3 l -105,0"
     style="fill:#0088cc;stroke:#0088cc"
     id="path12"
     inkscape:connector-curvature="0" />
-->
  <text
     id="name"
     font-size="8"
     x="5.9124999"
     y="16.025249"
     style="font-size:9.43999958px">DEFAULT NAME</text>
</svg>
