<?xml version="1.0" encoding="UTF-8" standalone="no"?>
<svg
   xmlns:dc="http://purl.org/dc/elements/1.1/"
   xmlns:cc="http://creativecommons.org/ns#"
   xmlns:rdf="http://www.w3.org/1999/02/22-rdf-syntax-ns#"
   xmlns:svg="http://www.w3.org/2000/svg"
   xmlns="http://www.w3.org/2000/svg"
   xmlns:sodipodi="http://sodipodi.sourceforge.net/DTD/sodipodi-0.dtd"
   xmlns:inkscape="http://www.inkscape.org/namespaces/inkscape"
   height="27.125"
   version="1.1"
   width="126.875"
   style="overflow:hidden"
   id="svg2"
   inkscape:version="0.48.4 r9939"
   sodipodi:docname="command.svg">
  <metadata
     id="metadata15">
    <rdf:RDF>
      <cc:Work
         rdf:about="">
        <dc:format>image/svg+xml</dc:format>
        <dc:type
           rdf:resource="http://purl.org/dc/dcmitype/StillImage" />
      </cc:Work>
    </rdf:RDF>
  </metadata>
  <defs
     id="defs13" />
  <sodipodi:namedview
     pagecolor="#ffffff"
     bordercolor="#666666"
     borderopacity="1"
     objecttolerance="10"
     gridtolerance="10"
     guidetolerance="10"
     inkscape:pageopacity="0"
     inkscape:pageshadow="2"
     inkscape:window-width="1918"
     inkscape:window-height="1173"
     id="namedview11"
     showgrid="false"
     inkscape:zoom="92.059113"
     inkscape:cx="19.35936"
     inkscape:cy="2.4585044"
     inkscape:window-x="1920"
     inkscape:window-y="25"
     inkscape:window-maximized="1"
     inkscape:current-layer="svg2" />
  <rect
     style="opacity:0.54863808;fill:#ffffff;fill-opacity:0;stroke:#000000;stroke-width:2.03220844;stroke-miterlimit:4;stroke-opacity:0;stroke-dasharray:none"
     id="name-bounding-box"
     width="40.448757"
     height="8.3728704"
     x="6.4440799"
     y="8.1295824"
     inkscape:label="#rect2992" />
  <g
     id="colors"
     style="fill:#856fd7;stroke:#856fd7;">
    <path
       d="M 0.62683135,4.7909186 A 3.5336527,3.8448907 0 0 1 4.160484,0.94602796 l 7.067305,0 3.533653,3.84489064 9.423074,0 3.533653,-3.7167276 0,3.7167276"
       style="stroke-width:1.22866261"
       id="path8"
       inkscape:connector-curvature="0" />
    <path
       d="m 29.5125,0.68525 93.22,0 0,0 a 3.54,3.54 0 0 1 3.54,3.54 l -96.76,0 0,-3.54"
       style="stroke-width:1.17999995"
       id="path9"
       class="x-shift-name"
       inkscape:connector-curvature="0" />
    <rect
       class="x-stretch-name y-stretch-name"
       x="28.686499"
       y="0.68525004"
       width="1.298"
       height="22.125"
       style="stroke-width:1.17999995"
       id="rect11" />
    <rect
       class="x-stretch-name y-stretch-name"
       x="0.60249996"
       y="4.7332501"
       width="125.67"
       height="14.796"
       r="0"
       rx="0"
       ry="0"
       style="stroke-width:1.17999995"
       id="rect10" />
    <path
       d="m 0.6025,19.44725 a 3.54,3.54 0 0 0 3.54,3.54 l 7.08,0 3.54,3.54 9.44,0 3.54,-3.54 0,-3.658"
       style="stroke-width:1.17999995"
       id="path12"
       class="y-shift-name"
       inkscape:connector-curvature="0" />
    <path
       d="m 29.5125,22.81025 93.22,0 0,0 a 3.54,3.54 0 0 0 3.54,-3.54 l -96.76,0 0,3.54"
       style="stroke-width:1.17999995"
       id="path15"
       class="x-shift-name y-shift-name"
       inkscape:connector-curvature="0" />
  </g>
  <text
     id="name"
     x="5.9124999"
     y="16.025249"
     style="font-size:9.43999958px">DEFAULT NAME</text>
  <line
     class="connection-area"
     data-ptr="next true_next false_next"
     data-role="in"
     x1="15"
     y1="4"
     x2="24"
     y2="4"
     id="next-in"/>
     
  <line
     class="connection-area"
     data-ptr="next"
     data-role="out"
     x1="15"
     y1="27"
     x2="24"
     y2="27"
     id="next-out"/>
</svg>
