<svg width="32" height="32" xmlns="http://www.w3.org/2000/svg">
	<g>
		<path d="M22.59,8.654l-9.545,4.091c-0.138,0.059-0.242,0.166-0.303,0.302L8.65,22.588
		c-0.088,0.218-0.041,0.471,0.127,0.636c0.107,0.111,0.259,0.171,0.407,0.171c0.074,0,0.154-0.017,0.226-0.048l9.545-4.091
		c0.138-0.059,0.245-0.166,0.306-0.303l4.089-9.541c0.091-0.215,0.044-0.469-0.124-0.637C23.061,8.61,22.805,8.564,22.59,8.654z
		 M10.285,21.719l3.184-7.434l4.248,4.249L10.285,21.719z M18.534,17.718l-4.251-4.248l7.435-3.187L18.534,17.718z"></path>
		<path d="M16,0.001C7.179,0.001,0,7.177,0,16c0,8.82,7.179,16,16,16c8.824,0,16-7.18,16-16
		C32,7.177,24.824,0.001,16,0.001z M16,30.846c-8.186,0-14.844-6.66-14.844-14.846C1.156,7.815,7.814,1.156,16,1.156
		S30.845,7.815,30.845,16C30.845,24.186,24.186,30.846,16,30.846z"></path>
		<path d="M16,4.282c0.445,0,0.809-0.362,0.809-0.812c0-0.448-0.363-0.812-0.809-0.812s-0.809,0.363-0.809,0.812
		C15.191,3.92,15.555,4.282,16,4.282z M16,3.127c0.192,0,0.347,0.154,0.347,0.344c0,0.383-0.69,0.383-0.69,0
		C15.656,3.281,15.811,3.127,16,3.127z"></path>
		<path d="M16,27.721c-0.445,0-0.809,0.363-0.809,0.809c0,0.448,0.363,0.812,0.809,0.812s0.809-0.363,0.809-0.812
		C16.809,28.084,16.445,27.721,16,27.721z M15.656,28.529c0-0.19,0.154-0.342,0.344-0.342c0.192,0,0.347,0.151,0.347,0.342
		C16.347,28.914,15.656,28.914,15.656,28.529z"></path>
		<path d="M28.533,15.191c-0.445,0-0.812,0.361-0.812,0.809c0,0.449,0.366,0.812,0.812,0.812s0.809-0.363,0.809-0.812
		C29.342,15.553,28.979,15.191,28.533,15.191z M28.189,16c0-0.193,0.148-0.343,0.344-0.343c0.189,0,0.341,0.153,0.341,0.343
		C28.874,16.387,28.189,16.387,28.189,16z"></path>
		<path d="M3.473,15.191c-0.446,0-0.809,0.361-0.809,0.809c0,0.449,0.363,0.812,0.809,0.812
		c0.445,0,0.809-0.363,0.809-0.812C4.281,15.553,3.918,15.191,3.473,15.191z M3.126,16c0-0.189,0.154-0.343,0.347-0.343
		c0.189,0,0.344,0.153,0.344,0.343C3.816,16.38,3.126,16.38,3.126,16z"></path>
	</g>
</svg>