<svg width="32" height="32" xmlns="http://www.w3.org/2000/svg">
	<g>
		<g>
			<path d="M7.649,10.843h14.066c0.58,0,1.051-0.471,1.051-1.052c0-0.58-0.471-1.051-1.051-1.051H7.649
			c-0.58,0-1.051,0.471-1.051,1.051C6.599,10.372,7.069,10.843,7.649,10.843z"></path>
		</g>
		<g>
			<path d="M7.649,14.959h14.066c0.58,0,1.051-0.471,1.051-1.052c0-0.58-0.471-1.051-1.051-1.051H7.649
			c-0.58,0-1.051,0.471-1.051,1.051C6.599,14.488,7.069,14.959,7.649,14.959z"></path>
		</g>
		<g>
			<path d="M7.649,19.075h14.066c0.58,0,1.051-0.471,1.051-1.052c0-0.58-0.471-1.051-1.051-1.051H7.649
			c-0.58,0-1.051,0.471-1.051,1.051C6.599,18.604,7.069,19.075,7.649,19.075z"></path>
		</g>
		<g>
			<path d="M7.649,23.191h14.066c0.58,0,1.051-0.471,1.051-1.052c0-0.58-0.471-1.051-1.051-1.051H7.649
			c-0.58,0-1.051,0.471-1.051,1.051C6.599,22.721,7.069,23.191,7.649,23.191z"></path>
		</g>
		<g>
			<path d="M7.649,27.308h7.232c0.58,0,1.051-0.471,1.051-1.052c0-0.58-0.471-1.051-1.051-1.051H7.649
			c-0.58,0-1.051,0.471-1.051,1.051C6.599,26.837,7.069,27.308,7.649,27.308z"></path>
		</g>
		<g>
			<path d="M26.867,0H7.767C6.897,0,6.19,0.708,6.19,1.577v2.607H5.133c-0.87,0-1.577,0.707-1.577,1.577v24.661
			C3.556,31.292,4.263,32,5.133,32h19.101c0.869,0,1.576-0.708,1.576-1.577v-2.607h1.058c0.87,0,1.577-0.707,1.577-1.577V1.577
			C28.444,0.708,27.737,0,26.867,0z M23.707,29.897H5.658V6.287h18.049V29.897z M26.342,25.713H25.81V5.762
			c0-0.87-0.707-1.577-1.576-1.577H8.293V2.103h18.049V25.713z"></path>
		</g>
	</g>
</svg>