<svg width="32" height="32" xmlns="http://www.w3.org/2000/svg">
	<g>
		<g>
			<path d="M6.699,11.186c0,0.668,0.542,1.209,1.21,1.209H24.09c0.668,0,1.21-0.541,1.21-1.209s-0.542-1.21-1.21-1.21H7.909
			C7.241,9.976,6.699,10.518,6.699,11.186z"></path>
		</g>
		<g>
			<path d="M24.09,14.711H7.909c-0.668,0-1.21,0.542-1.21,1.21s0.542,1.209,1.21,1.209H24.09c0.668,0,1.21-0.541,1.21-1.209
			S24.758,14.711,24.09,14.711z"></path>
		</g>
		<g>
			<path d="M24.09,19.446H7.909c-0.668,0-1.21,0.542-1.21,1.21s0.542,1.209,1.21,1.209H24.09c0.668,0,1.21-0.541,1.21-1.209
			S24.758,19.446,24.09,19.446z"></path>
		</g>
		<g>
			<path d="M16.229,24.182H7.909c-0.668,0-1.21,0.542-1.21,1.21s0.542,1.209,1.21,1.209h8.319c0.667,0,1.209-0.541,1.209-1.209
			S16.896,24.182,16.229,24.182z"></path>
		</g>
		<g>
			<path d="M20.374,0H5.014c-1,0-1.814,0.813-1.814,1.813v28.372c0,1,0.814,1.814,1.814,1.814h21.973c1,0,1.814-0.814,1.814-1.814
			V8.426L20.374,0z M26.382,29.58H5.618V2.419h13.694V5.24H7.909c-0.668,0-1.21,0.542-1.21,1.21s0.542,1.209,1.21,1.209h11.403
			v1.119h7.069V29.58z"></path>
		</g>
	</g>
</svg>