<?xml version="1.0" encoding="UTF-8" standalone="no"?>
<!-- Generator: Adobe Illustrator 15.1.0, SVG Export Plug-In . SVG Version: 6.00 Build 0)  -->

<svg
   xmlns:dc="http://purl.org/dc/elements/1.1/"
   xmlns:cc="http://creativecommons.org/ns#"
   xmlns:rdf="http://www.w3.org/1999/02/22-rdf-syntax-ns#"
   xmlns:svg="http://www.w3.org/2000/svg"
   xmlns="http://www.w3.org/2000/svg"
   xmlns:sodipodi="http://sodipodi.sourceforge.net/DTD/sodipodi-0.dtd"
   xmlns:inkscape="http://www.inkscape.org/namespaces/inkscape"
   version="1.1"
   id="svg2"
   x="0px"
   y="0px"
   width="24.406248"
   height="30.906248"
   viewBox="31.776 29.814 24.406248 30.90625"
   enable-background="new 31.776 29.814 59.821 75.686"
   xml:space="preserve"
   inkscape:version="0.48.4 r9939"
   sodipodi:docname="files_icon.svg"><metadata
     id="metadata3095"><rdf:RDF><cc:Work
         rdf:about=""><dc:format>image/svg+xml</dc:format><dc:type
           rdf:resource="http://purl.org/dc/dcmitype/StillImage" /></cc:Work></rdf:RDF></metadata><defs
     id="defs3093" /><sodipodi:namedview
     pagecolor="#ffffff"
     bordercolor="#666666"
     borderopacity="1"
     objecttolerance="10"
     gridtolerance="10"
     guidetolerance="10"
     inkscape:pageopacity="0"
     inkscape:pageshadow="2"
     inkscape:window-width="1918"
     inkscape:window-height="1179"
     id="namedview3091"
     showgrid="false"
     inkscape:zoom="3.1181461"
     inkscape:cx="-121.34446"
     inkscape:cy="-3.0720018"
     inkscape:window-x="1920"
     inkscape:window-y="19"
     inkscape:window-maximized="1"
     inkscape:current-layer="svg2"
     fit-margin-top="0"
     fit-margin-left="0"
     fit-margin-right="0"
     fit-margin-bottom="0" /><linearGradient
     id="rect3034_3_"
     gradientUnits="userSpaceOnUse"
     x1="75.403297"
     y1="102.2891"
     x2="20.564699"
     y2="13.016"
     gradientTransform="matrix(0.29508724,0,0,-0.29508724,27.361977,65.387199)"><stop
       offset="0"
       style="stop-color:#DBDBDB"
       id="stop3074" /><stop
       offset="1"
       style="stop-color:#757575"
       id="stop3076" /></linearGradient><path
     id="rect3034_2_"
     stroke-miterlimit="10"
     d="m 33.434454,33.576852 c -0.812429,0 -1.459106,0.654842 -1.459106,1.467271 v 23.992781 c 0,0.812429 0.646677,1.467272 1.459106,1.467272 h 17.813014 c 0.812429,0 1.459106,-0.654843 1.459106,-1.467272 V 41.008331 h -5.366113 c -1.098616,0 -2.057201,-0.801406 -2.057201,-1.865729 v -5.56575 H 33.434454 z"
     style="fill:url(#rect3034_3_);stroke:#ffffff;stroke-width:0.40825576;stroke-miterlimit:10"
     inkscape:connector-curvature="0" /><linearGradient
     id="rect3034_4_"
     gradientUnits="userSpaceOnUse"
     x1="80.477501"
     y1="107.8545"
     x2="25.638399"
     y2="18.5805"
     gradientTransform="matrix(0.29508724,0,0,-0.29508724,27.361977,65.387199)"><stop
       offset="0"
       style="stop-color:#DBDBDB"
       id="stop3080" /><stop
       offset="1"
       style="stop-color:#757575"
       id="stop3082" /></linearGradient><path
     id="rect3034_1_"
     stroke-miterlimit="10"
     d="m 34.931528,31.934439 c -0.812021,0 -1.459106,0.654842 -1.459106,1.467272 v 23.992781 c 0,0.812428 0.647085,1.467271 1.459106,1.467271 H 52.74495 c 0.812429,0 1.459106,-0.654843 1.459106,-1.467271 V 39.366326 h -5.366113 c -1.098616,0 -2.057201,-0.801406 -2.057201,-1.865728 V 31.934439 H 34.931528 z"
     style="fill:url(#rect3034_4_);stroke:#ffffff;stroke-width:0.40825576;stroke-miterlimit:10"
     inkscape:connector-curvature="0" /><linearGradient
     id="rect3034_5_"
     gradientUnits="userSpaceOnUse"
     x1="86.525398"
     y1="114.9756"
     x2="30.6889"
     y2="24.0781"
     gradientTransform="matrix(0.29508724,0,0,-0.29508724,27.361977,65.387199)"><stop
       offset="0"
       style="stop-color:#DBDBDB"
       id="stop3086" /><stop
       offset="1"
       style="stop-color:#757575"
       id="stop3088" /></linearGradient><path
     id="rect3034"
     stroke-miterlimit="10"
     d="m 36.428601,30.301824 c -0.812428,0 -1.459106,0.654843 -1.459106,1.467272 v 23.992373 c 0,0.812428 0.646678,1.467271 1.459106,1.467271 h 17.813423 c 0.812429,0 1.459106,-0.654843 1.459106,-1.467271 V 37.733304 h -5.366522 c -1.098616,0 -2.0572,-0.801406 -2.0572,-1.865729 V 30.301824 H 36.428601 z m 12.869446,0 v 5.565751 c 0,0.43765 0.416421,0.845089 1.036561,0.845089 h 5.366522 l -6.403083,-6.41084 z"
     style="fill:url(#rect3034_5_);stroke:#ffffff;stroke-width:0.40825576;stroke-miterlimit:10"
     inkscape:connector-curvature="0" /></svg>