<?xml version="1.0" encoding="UTF-8" standalone="no"?>
<!-- Generator: Adobe Illustrator 15.1.0, SVG Export Plug-In . SVG Version: 6.00 Build 0)  -->

<svg
   xmlns:dc="http://purl.org/dc/elements/1.1/"
   xmlns:cc="http://creativecommons.org/ns#"
   xmlns:rdf="http://www.w3.org/1999/02/22-rdf-syntax-ns#"
   xmlns:svg="http://www.w3.org/2000/svg"
   xmlns="http://www.w3.org/2000/svg"
   xmlns:sodipodi="http://sodipodi.sourceforge.net/DTD/sodipodi-0.dtd"
   xmlns:inkscape="http://www.inkscape.org/namespaces/inkscape"
   version="1.1"
   id="svg2"
   x="0px"
   y="0px"
   width="34.53125"
   height="43.6875"
   viewBox="31.776 29.814 34.53125 43.687502"
   enable-background="new 31.776 29.814 59.821 75.686"
   xml:space="preserve"
   inkscape:version="0.48.4 r9939"
   sodipodi:docname="files_icon.svg"><metadata
     id="metadata3095"><rdf:RDF><cc:Work
         rdf:about=""><dc:format>image/svg+xml</dc:format><dc:type
           rdf:resource="http://purl.org/dc/dcmitype/StillImage" /></cc:Work></rdf:RDF></metadata><defs
     id="defs3093" /><sodipodi:namedview
     pagecolor="#ffffff"
     bordercolor="#666666"
     borderopacity="1"
     objecttolerance="10"
     gridtolerance="10"
     guidetolerance="10"
     inkscape:pageopacity="0"
     inkscape:pageshadow="2"
     inkscape:window-width="1918"
     inkscape:window-height="1179"
     id="namedview3091"
     showgrid="false"
     inkscape:zoom="3.1181461"
     inkscape:cx="-57.024329"
     inkscape:cy="3.2554999"
     inkscape:window-x="1920"
     inkscape:window-y="19"
     inkscape:window-maximized="1"
     inkscape:current-layer="svg2"
     fit-margin-top="0"
     fit-margin-left="0"
     fit-margin-right="0"
     fit-margin-bottom="0" /><linearGradient
     id="rect3034_3_"
     gradientUnits="userSpaceOnUse"
     x1="75.403297"
     y1="102.2891"
     x2="20.564699"
     y2="13.016"
     gradientTransform="matrix(0.41730858,0,0,-0.41730858,25.527731,80.118147)"><stop
       offset="0"
       style="stop-color:#DBDBDB"
       id="stop3074" /><stop
       offset="1"
       style="stop-color:#757575"
       id="stop3076" /></linearGradient><path
     id="rect3034_2_"
     stroke-miterlimit="10"
     d="m 34.11535,35.132364 c -1.148926,0 -2.063449,0.926069 -2.063449,2.074996 v 33.930282 c 0,1.148926 0.914523,2.074996 2.063449,2.074996 h 25.190935 c 1.148927,0 2.063449,-0.92607 2.063449,-2.074996 V 45.641866 h -7.588688 c -1.553649,0 -2.909267,-1.133338 -2.909267,-2.63849 V 35.132364 H 34.11535 z"
     style="fill:url(#rect3034_3_);stroke:#ffffff;stroke-width:0.57735002;stroke-miterlimit:10"
     inkscape:connector-curvature="0" /><linearGradient
     id="rect3034_4_"
     gradientUnits="userSpaceOnUse"
     x1="80.477501"
     y1="107.8545"
     x2="25.638399"
     y2="18.5805"
     gradientTransform="matrix(0.41730858,0,0,-0.41730858,25.527731,80.118147)"><stop
       offset="0"
       style="stop-color:#DBDBDB"
       id="stop3080" /><stop
       offset="1"
       style="stop-color:#757575"
       id="stop3082" /></linearGradient><path
     id="rect3034_1_"
     stroke-miterlimit="10"
     d="m 36.232493,32.809685 c -1.148349,0 -2.063449,0.926069 -2.063449,2.074996 v 33.930282 c 0,1.148926 0.9151,2.074996 2.063449,2.074996 h 25.191512 c 1.148927,0 2.063449,-0.92607 2.063449,-2.074996 V 43.319764 h -7.588688 c -1.553649,0 -2.909267,-1.133338 -2.909267,-2.638489 v -7.87159 H 36.232493 z"
     style="fill:url(#rect3034_4_);stroke:#ffffff;stroke-width:0.57735002;stroke-miterlimit:10"
     inkscape:connector-curvature="0" /><linearGradient
     id="rect3034_5_"
     gradientUnits="userSpaceOnUse"
     x1="86.525398"
     y1="114.9756"
     x2="30.6889"
     y2="24.0781"
     gradientTransform="matrix(0.41730858,0,0,-0.41730858,25.527731,80.118147)"><stop
       offset="0"
       style="stop-color:#DBDBDB"
       id="stop3086" /><stop
       offset="1"
       style="stop-color:#757575"
       id="stop3088" /></linearGradient><path
     id="rect3034"
     stroke-miterlimit="10"
     d="m 38.349635,30.500862 c -1.148926,0 -2.063449,0.92607 -2.063449,2.074996 v 33.929705 c 0,1.148926 0.914523,2.074996 2.063449,2.074996 h 25.191513 c 1.148926,0 2.063449,-0.92607 2.063449,-2.074996 V 41.010364 h -7.589266 c -1.553649,0 -2.909267,-1.133338 -2.909267,-2.638489 V 30.500862 H 38.349635 z m 18.199804,0 v 7.871013 c 0,0.618919 0.588897,1.195114 1.465892,1.195114 h 7.589266 l -9.055158,-9.066127 z"
     style="fill:url(#rect3034_5_);stroke:#ffffff;stroke-width:0.57735002;stroke-miterlimit:10"
     inkscape:connector-curvature="0" />
</svg>
