<?xml version="1.0" encoding="UTF-8" standalone="no"?>
<!-- Created with Inkscape (http://www.inkscape.org/) -->

<svg
   xmlns:dc="http://purl.org/dc/elements/1.1/"
   xmlns:cc="http://creativecommons.org/ns#"
   xmlns:rdf="http://www.w3.org/1999/02/22-rdf-syntax-ns#"
   xmlns:svg="http://www.w3.org/2000/svg"
   xmlns="http://www.w3.org/2000/svg"
   xmlns:sodipodi="http://sodipodi.sourceforge.net/DTD/sodipodi-0.dtd"
   xmlns:inkscape="http://www.inkscape.org/namespaces/inkscape"
   width="50.90625"
   height="51.40625"
   id="svg2"
   version="1.1"
   inkscape:version="0.48.4 r9939"
   sodipodi:docname="Fork.svg">
  <defs
     id="defs4" />
  <sodipodi:namedview
     id="base"
     pagecolor="#ffffff"
     bordercolor="#666666"
     borderopacity="1.0"
     inkscape:pageopacity="0.0"
     inkscape:pageshadow="2"
     inkscape:zoom="1"
     inkscape:cx="20.503201"
     inkscape:cy="41.247172"
     inkscape:document-units="px"
     inkscape:current-layer="layer1"
     showgrid="false"
     inkscape:window-width="1918"
     inkscape:window-height="1179"
     inkscape:window-x="1920"
     inkscape:window-y="19"
     inkscape:window-maximized="1"
     fit-margin-top="0"
     fit-margin-left="0"
     fit-margin-right="0"
     fit-margin-bottom="0" />
  <metadata
     id="metadata7">
    <rdf:RDF>
      <cc:Work
         rdf:about="">
        <dc:format>image/svg+xml</dc:format>
        <dc:type
           rdf:resource="http://purl.org/dc/dcmitype/StillImage" />
        <dc:title />
      </cc:Work>
    </rdf:RDF>
  </metadata>
  <g
     inkscape:label="Layer 1"
     inkscape:groupmode="layer"
     id="layer1"
     transform="translate(-201.375,-496.09375)">
    <path
       style="fill:#000000;stroke-width:21.33200073;stroke-miterlimit:4;stroke-dasharray:none"
       d=""
       id="path3046"
       inkscape:connector-curvature="0"
       transform="translate(201.375,496.09375)" />
    <path
       style="fill:#000000;stroke-width:21.33200073;stroke-miterlimit:4;stroke-dasharray:none"
       d=""
       id="path3048"
       inkscape:connector-curvature="0"
       transform="translate(201.375,496.09375)" />
    <path
       style="fill:#000000;stroke-width:21.33200073;stroke-miterlimit:4;stroke-dasharray:none"
       d=""
       id="path3050"
       inkscape:connector-curvature="0"
       transform="translate(201.375,496.09375)" />
    <path
       style="fill:#000000;stroke-width:21.33200073;stroke-miterlimit:4;stroke-dasharray:none"
       d=""
       id="path3054"
       inkscape:connector-curvature="0"
       transform="translate(201.375,496.09375)" />
    <path
       sodipodi:type="star"
       style="fill:#ff6530;stroke-width:3.40000010000000019;stroke-miterlimit:4;stroke-dasharray:none;fill-opacity:1"
       id="path4030"
       sodipodi:sides="4"
       sodipodi:cx="-14.2"
       sodipodi:cy="-32.293751"
       sodipodi:r1="8.7726851"
       sodipodi:r2="4.3863425"
       sodipodi:arg1="-0.81764505"
       sodipodi:arg2="-0.032246882"
       inkscape:flatsided="true"
       inkscape:rounded="0.07"
       inkscape:randomized="0"
       d="m -8.1999997,-38.693751 c 0.6335677,0.59397 0.9939697,11.766433 0.4,12.4 -0.5939697,0.633568 -11.7664323,0.99397 -12.4000003,0.4 -0.633568,-0.593969 -0.99397,-11.766432 -0.4,-12.4 0.59397,-0.633568 11.7664326,-0.99397 12.4000003,-0.4 z"
       transform="matrix(2.0591301,-2.0273851,1.9490247,2.1419173,319.35597,561.78167)" />
    <g
       id="g4032"
       transform="translate(0.3,-0.6)"
       style="opacity:0.71595327">
      <path
         transform="translate(201.375,496.09375)"
         inkscape:connector-curvature="0"
         id="path3965"
         d="m 25.1,7.10625 c 0.4,31.3 0.3,31.4 0.3,31.4"
         style="fill:none;stroke:#000000;stroke-width:3.4000001;stroke-linecap:butt;stroke-linejoin:miter;stroke-miterlimit:4;stroke-opacity:1;stroke-dasharray:none" />
      <path
         sodipodi:nodetypes="ccc"
         inkscape:connector-curvature="0"
         id="path2993-3-2-9-9"
         d="m 226.51524,503.00951 c -0.64852,16.86009 3.01304,24.04873 -13.48048,23.9805 l 0,0"
         style="fill:none;stroke:#000000;stroke-width:3.41902757;stroke-linecap:butt;stroke-linejoin:miter;stroke-miterlimit:4;stroke-opacity:1;stroke-dasharray:none" />
      <path
         inkscape:transform-center-y="-0.32858957"
         inkscape:transform-center-x="0.69837741"
         transform="matrix(0.64108907,0.32272631,-0.32272631,0.64108907,211.08153,553.85928)"
         d="m -7.8000005,-32.793751 c -0.1515545,0.321296 -4.7035045,0.39057 -5.0575315,0.419967 -0.354027,0.0294 -4.855059,0.711865 -5.057532,0.419968 -0.202473,-0.291898 2.013509,-4.268639 2.165064,-4.589935 0.151554,-0.321295 1.811036,-4.560537 2.165063,-4.589934 0.354027,-0.0294 2.689996,3.878069 2.892468,4.169967 0.202473,0.291898 3.0440229,3.848672 2.8924685,4.169967 z"
         inkscape:randomized="0"
         inkscape:rounded="0.07"
         inkscape:flatsided="false"
         sodipodi:arg2="1.4879484"
         sodipodi:arg1="0.44075085"
         sodipodi:r2="2.930017"
         sodipodi:r1="5.860034"
         sodipodi:cy="-35.293751"
         sodipodi:cx="-13.1"
         sodipodi:sides="3"
         id="path3989"
         style="fill:#000000;stroke-width:3.4000001;stroke-miterlimit:4;stroke-dasharray:none"
         sodipodi:type="star" />
      <path
         inkscape:transform-center-x="2.3770929"
         transform="matrix(0.39979411,-0.59608064,0.59608064,0.39979411,253.10273,541.78908)"
         d="m -7.8000005,-32.793751 c -0.1515545,0.321296 -4.7035045,0.39057 -5.0575315,0.419967 -0.354027,0.0294 -4.855059,0.711865 -5.057532,0.419968 -0.202473,-0.291898 2.013509,-4.268639 2.165064,-4.589935 0.151554,-0.321295 1.811036,-4.560537 2.165063,-4.589934 0.354027,-0.0294 2.689996,3.878069 2.892468,4.169967 0.202473,0.291898 3.0440229,3.848672 2.8924685,4.169967 z"
         inkscape:randomized="0"
         inkscape:rounded="0.07"
         inkscape:flatsided="false"
         sodipodi:arg2="1.4879484"
         sodipodi:arg1="0.44075085"
         sodipodi:r2="2.930017"
         sodipodi:r1="5.860034"
         sodipodi:cy="-35.293751"
         sodipodi:cx="-13.1"
         sodipodi:sides="3"
         id="path3989-5"
         style="fill:#000000;stroke-width:3.4000001;stroke-miterlimit:4;stroke-dasharray:none"
         sodipodi:type="star" />
      <path
         sodipodi:nodetypes="ccc"
         inkscape:connector-curvature="0"
         id="path2993-3-2-9-9-4"
         d="m 226.52576,502.87864 c 0.64852,16.86009 -3.01304,24.04873 13.48048,23.9805 l 0,0"
         style="fill:none;stroke:#000000;stroke-width:3.41902757;stroke-linecap:butt;stroke-linejoin:miter;stroke-miterlimit:4;stroke-opacity:1;stroke-dasharray:none" />
      <path
         inkscape:transform-center-y="-0.32858957"
         inkscape:transform-center-x="-0.69837703"
         transform="matrix(-0.64108907,0.32272631,0.32272631,0.64108907,241.95947,553.72841)"
         d="m -7.8000005,-32.793751 c -0.1515545,0.321296 -4.7035045,0.39057 -5.0575315,0.419967 -0.354027,0.0294 -4.855059,0.711865 -5.057532,0.419968 -0.202473,-0.291898 2.013509,-4.268639 2.165064,-4.589935 0.151554,-0.321295 1.811036,-4.560537 2.165063,-4.589934 0.354027,-0.0294 2.689996,3.878069 2.892468,4.169967 0.202473,0.291898 3.0440229,3.848672 2.8924685,4.169967 z"
         inkscape:randomized="0"
         inkscape:rounded="0.07"
         inkscape:flatsided="false"
         sodipodi:arg2="1.4879484"
         sodipodi:arg1="0.44075085"
         sodipodi:r2="2.930017"
         sodipodi:r1="5.860034"
         sodipodi:cy="-35.293751"
         sodipodi:cx="-13.1"
         sodipodi:sides="3"
         id="path3989-2"
         style="fill:#000000;stroke-width:3.4000001;stroke-miterlimit:4;stroke-dasharray:none"
         sodipodi:type="star" />
      <line
         id="ca_N"
         class="connection-area"
         x1="25"
         y1="0"
         x2="25"
         y2="0" />
      <line
         id="ca_S"
         class="connection-area"
         x1="25"
         y1="50"
         x2="25"
         y2="50" />
    </g>
  </g>
</svg>
