<svg width="32" height="32" xmlns="http://www.w3.org/2000/svg">
	<g>
		<path d="M16.001,9.637c-3.507,0-6.36,2.855-6.36,6.363c0,3.507,2.854,6.364,6.36,6.364
		c3.51,0,6.363-2.857,6.363-6.364C22.364,12.492,19.511,9.637,16.001,9.637z M16.001,21.202c-2.867,0-5.197-2.335-5.197-5.202
		s2.33-5.201,5.197-5.201s5.201,2.334,5.201,5.201S18.868,21.202,16.001,21.202z"></path>
		<path d="M31.489,11.571l-3.681-0.464l2.278-2.928c0.18-0.231,0.158-0.562-0.049-0.768L24.59,1.959
		c-0.206-0.208-0.537-0.223-0.767-0.047l-2.932,2.279l-0.459-3.68C20.396,0.218,20.147,0,19.854,0h-7.707
		c-0.293,0-0.54,0.218-0.578,0.512L11.11,4.193L8.183,1.916c-0.23-0.178-0.559-0.158-0.768,0.047L1.963,7.412
		C1.757,7.617,1.735,7.948,1.916,8.18l2.277,2.928l-3.681,0.464c-0.291,0.036-0.51,0.282-0.51,0.574v7.71
		c0,0.293,0.219,0.538,0.51,0.576l3.681,0.459l-2.277,2.933c-0.181,0.231-0.159,0.561,0.047,0.767l5.452,5.448
		c0.209,0.21,0.537,0.228,0.768,0.046l2.928-2.276l0.459,3.685C11.607,31.781,11.854,32,12.147,32h7.707
		c0.293,0,0.541-0.219,0.578-0.508l0.459-3.685l2.932,2.276c0.232,0.182,0.561,0.164,0.767-0.046l5.448-5.452
		c0.207-0.208,0.229-0.537,0.049-0.77l-2.277-2.926l3.679-0.459c0.292-0.038,0.509-0.283,0.509-0.576v-7.71
		C31.997,11.854,31.78,11.607,31.489,11.571z M30.837,19.342l-4.184,0.521c-0.208,0.025-0.385,0.161-0.465,0.354
		c-0.079,0.192-0.052,0.413,0.077,0.579l2.589,3.33l-4.725,4.727l-3.332-2.59c-0.162-0.125-0.382-0.156-0.577-0.077
		c-0.192,0.081-0.328,0.259-0.354,0.465l-0.524,4.187h-6.683l-0.523-4.187c-0.026-0.206-0.162-0.384-0.354-0.465
		c-0.193-0.083-0.413-0.05-0.578,0.077l-3.329,2.59l-4.727-4.722l2.591-3.335c0.128-0.166,0.157-0.387,0.079-0.579
		c-0.082-0.193-0.258-0.329-0.465-0.354l-4.187-0.521v-6.683l4.188-0.527c0.206-0.024,0.385-0.161,0.464-0.353
		c0.078-0.193,0.049-0.414-0.079-0.58L3.147,7.871l4.727-4.724l3.329,2.589c0.166,0.128,0.388,0.161,0.578,0.079
		c0.192-0.081,0.328-0.26,0.354-0.466l0.523-4.187h6.683l0.524,4.187c0.026,0.206,0.162,0.385,0.354,0.466
		c0.192,0.079,0.414,0.048,0.577-0.079l3.332-2.595l4.725,4.729l-2.589,3.328c-0.129,0.166-0.156,0.387-0.077,0.58
		c0.078,0.191,0.257,0.328,0.463,0.353l4.186,0.527V19.342z"></path>
	</g>
</svg>