<?xml version="1.0" encoding="utf-8"?>
<!-- Generator: Adobe Illustrator 15.1.0, SVG Export Plug-In . SVG Version: 6.00 Build 0)  -->
<!DOCTYPE svg PUBLIC "-//W3C//DTD SVG 1.1//EN" "http://www.w3.org/Graphics/SVG/1.1/DTD/svg11.dtd">
<svg version="1.1" id="Layer_1" xmlns="http://www.w3.org/2000/svg" xmlns:xlink="http://www.w3.org/1999/xlink" x="0px" y="0px"
	 width="48.929px" height="48.93px" viewBox="0 0 48.929 48.93" enable-background="new 0 0 48.929 48.93" xml:space="preserve">
<g>
	<path fill-rule="evenodd" clip-rule="evenodd" d="M24.298-0.535c0.147,0,0.296,0,0.444,0c0.595,0.109,1.036,0.372,1.445,0.667
		c7.532,7.579,15.087,15.134,22.667,22.666c0.239,0.316,0.463,0.648,0.611,1.057c0,0.444,0,0.888,0,1.333
		c-0.17,0.33-0.317,0.683-0.556,0.944c-7.616,7.569-15.208,15.162-22.778,22.777c-0.262,0.238-0.615,0.386-0.944,0.556
		c-0.445,0-0.889,0-1.334,0c-0.407-0.147-0.738-0.372-1.055-0.61C15.266,41.274,7.709,33.72,0.132,26.188
		c-0.296-0.408-0.559-0.85-0.667-1.445c0-0.147,0-0.295,0-0.443c0.113-0.591,0.333-1.074,0.667-1.444
		C7.709,15.322,15.266,7.767,22.798,0.188C23.176-0.175,23.674-0.417,24.298-0.535z M25.131,0.91c-0.288-0.309-0.969-0.243-1.278,0
		C16.183,8.535,8.534,16.183,0.909,23.854c-0.243,0.308-0.309,0.988,0,1.278c7.625,7.671,15.273,15.317,22.944,22.943
		c0.207,0.31,0.997,0.278,1.278,0.055c7.689-7.643,15.357-15.31,23-22.998c0.222-0.282,0.254-1.072-0.055-1.278
		C40.451,16.183,32.803,8.535,25.131,0.91z"/>
	<path fill-rule="evenodd" clip-rule="evenodd" fill="#8E8E19" d="M16.854,10.577c1.446,0.144,3.52-0.382,4.944-0.057
		c0.008,0.002-0.006,0.102,0,0.111C20.261,10.503,18.484,10.612,16.854,10.577z"/>
	<path fill-rule="evenodd" clip-rule="evenodd" d="M16.854,10.577c1.63,0.035,3.407-0.074,4.944,0.055c0,0.389,0,0.777,0,1.167
		c0,0.277,0,0.556,0,0.833c0.037,0.574-0.074,1.297,0.055,1.778c0,0.37,0,0.741,0,1.11c0,0.296,0,0.593,0,0.889
		c0.037,0.574-0.073,1.297,0.056,1.778c0,0.37,0,0.741,0,1.111c0,0.296,0,0.593,0,0.888c0.035,0.206-0.072,0.554,0.055,0.668
		c0.713,1.14,1.517,2.187,2.223,3.333c1.209-1.605,2.621-3.009,2.5-5.944c0.129-0.205,0.02-0.647,0.056-0.945
		c0-0.425,0-0.852,0-1.277c0-1.814,0-3.63,0-5.443c1.574,0,3.148,0,4.722,0c0,0.073,0,0.147,0,0.221c0,0.334,0,0.668,0,1.001
		c0,0.426,0,0.852,0,1.277c-0.129,0.556-0.019,1.352-0.055,2c0,0.334,0,0.667,0,1c0,0.426,0,0.853,0,1.278
		c-0.13,0.556-0.019,1.352-0.056,1.999c0,0.333,0,0.667,0,1c0.245,1.633-0.444,2.285-1.111,3.224
		c-0.771,1.082-1.341,1.889-2.111,3.054c-0.447,0.679-1.062,1.208-1,2.278c-0.129,0.464-0.019,1.166-0.055,1.723
		c0,0.277,0,0.556,0,0.833c0,0.352,0,0.704,0,1.056c-0.129,0.444-0.019,1.129-0.056,1.667c0,0.277,0,0.555,0,0.833
		c0,0.352,0,0.704,0,1.057c-0.129,0.443-0.019,1.128-0.055,1.665c0,0.093,0,0.186,0,0.278c-1.871,0-3.741,0-5.611,0
		c0-0.093,0-0.186,0-0.278c-0.038-0.556,0.073-1.259-0.056-1.722c0-0.389,0-0.778,0-1.166c0-0.297,0-0.593,0-0.89
		c-0.036-0.556,0.073-1.258-0.056-1.721c0-0.391,0-0.779,0-1.168c0-0.297,0-0.593,0-0.889c-0.037-0.556,0.074-1.259-0.055-1.722
		c0.094-0.941-0.506-1.527-1-2.223c-0.379-0.535-0.778-1.044-1.055-1.445c-1.181-1.705-2.387-2.867-2.222-5.889
		c-0.037-0.5,0.074-1.146-0.056-1.555C16.854,15.095,16.854,12.836,16.854,10.577z"/>
	<path fill-rule="evenodd" clip-rule="evenodd" fill="#EBEB00" d="M31.464,10.798c0.019,0,0.037,0,0.056,0
		c-0.036,0.316,0.073,0.777-0.056,1.001C31.464,11.466,31.464,11.132,31.464,10.798z"/>
	<path fill-rule="evenodd" clip-rule="evenodd" fill="#EBEB00" d="M21.798,11.799c0.128,0.167,0.02,0.573,0.055,0.833
		c-0.018,0-0.037,0-0.055,0C21.798,12.354,21.798,12.076,21.798,11.799z"/>
	<path fill-rule="evenodd" clip-rule="evenodd" fill="#8E8E19" d="M21.798,12.632c0.019,0,0.038,0,0.055,0c0,0.593,0,1.186,0,1.778
		C21.724,13.929,21.835,13.206,21.798,12.632z"/>
	<path fill-rule="evenodd" clip-rule="evenodd" fill="#8E8E19" d="M31.464,13.076c0,0.667,0,1.334,0,2c-0.018,0-0.037,0-0.055,0
		C31.446,14.428,31.335,13.632,31.464,13.076z"/>
	<path fill-rule="evenodd" clip-rule="evenodd" fill="#EBEB00" d="M31.41,15.076c0.018,0,0.037,0,0.055,0
		c-0.036,0.315,0.073,0.776-0.055,1C31.41,15.743,31.41,15.41,31.41,15.076z"/>
	<path fill-rule="evenodd" clip-rule="evenodd" fill="#EBEB00" d="M21.853,15.521c0.129,0.188,0.02,0.61,0.056,0.889
		c-0.019,0-0.037,0-0.056,0C21.853,16.113,21.853,15.816,21.853,15.521z"/>
	<path fill-rule="evenodd" clip-rule="evenodd" fill="#EBEB00" d="M26.743,16.021c0,0.426,0,0.853,0,1.277c-0.019,0-0.037,0-0.056,0
		C26.723,16.891,26.613,16.336,26.743,16.021z"/>
	<path fill-rule="evenodd" clip-rule="evenodd" fill="#8E8E19" d="M21.853,16.409c0.019,0,0.037,0,0.056,0c0,0.593,0,1.186,0,1.778
		C21.78,17.706,21.89,16.983,21.853,16.409z"/>
	<path fill-rule="evenodd" clip-rule="evenodd" fill="#8E8E19" d="M26.687,17.298c0.019,0,0.037,0,0.056,0
		c-0.037,0.298,0.073,0.74-0.056,0.945C26.687,17.929,26.687,17.613,26.687,17.298z"/>
	<path fill-rule="evenodd" clip-rule="evenodd" fill="#8E8E19" d="M16.854,17.354c0.129,0.408,0.019,1.055,0.056,1.555
		C16.78,18.502,16.89,17.854,16.854,17.354z"/>
	<path fill-rule="evenodd" clip-rule="evenodd" fill="#8E8E19" d="M31.41,17.354c0,0.667,0,1.332,0,1.999c-0.019,0-0.038,0-0.056,0
		C31.391,18.706,31.28,17.91,31.41,17.354z"/>
	<path fill-rule="evenodd" clip-rule="evenodd" fill="#EBEB00" d="M21.909,19.299c0.128,0.186,0.019,0.61,0.055,0.888
		c-0.018,0-0.037,0-0.055,0C21.909,19.892,21.909,19.595,21.909,19.299z"/>
	<path fill-rule="evenodd" clip-rule="evenodd" fill="#EBEB00" d="M31.354,19.354c0.019,0,0.037,0,0.056,0
		c-0.037,0.316,0.072,0.777-0.056,1C31.354,20.021,31.354,19.687,31.354,19.354z"/>
	<path fill-rule="evenodd" clip-rule="evenodd" fill="#8E8E19" d="M21.909,20.187c0.019,0,0.037,0,0.055,0c0,0.223,0,0.445,0,0.668
		C21.837,20.74,21.944,20.393,21.909,20.187z"/>
	<path fill-rule="evenodd" clip-rule="evenodd" fill="#8E8E19" d="M21.187,28.466c0.129,0.463,0.019,1.166,0.055,1.722
		c-0.018,0-0.037,0-0.055,0C21.187,29.613,21.187,29.039,21.187,28.466z"/>
	<path fill-rule="evenodd" clip-rule="evenodd" fill="#8E8E19" d="M27.131,28.909c0,0.574,0,1.148,0,1.723c-0.019,0-0.038,0-0.055,0
		C27.112,30.075,27.002,29.373,27.131,28.909z"/>
	<path fill-rule="evenodd" clip-rule="evenodd" fill="#EBEB00" d="M21.187,30.188c0.018,0,0.037,0,0.055,0c0,0.296,0,0.592,0,0.889
		C21.114,30.89,21.223,30.466,21.187,30.188z"/>
	<path fill-rule="evenodd" clip-rule="evenodd" fill="#EBEB00" d="M27.076,30.632c0.018,0,0.037,0,0.055,0
		c-0.036,0.26,0.072,0.665-0.055,0.833C27.076,31.188,27.076,30.909,27.076,30.632z"/>
	<path fill-rule="evenodd" clip-rule="evenodd" fill="#8E8E19" d="M21.242,32.244c0.129,0.463,0.02,1.165,0.056,1.721
		c-0.019,0-0.037,0-0.056,0C21.242,33.392,21.242,32.817,21.242,32.244z"/>
	<path fill-rule="evenodd" clip-rule="evenodd" fill="#8E8E19" d="M27.076,32.521c0,0.556,0,1.111,0,1.667c-0.019,0-0.038,0-0.056,0
		C27.057,33.649,26.947,32.965,27.076,32.521z"/>
	<path fill-rule="evenodd" clip-rule="evenodd" fill="#EBEB00" d="M21.242,33.965c0.019,0,0.037,0,0.056,0c0,0.297,0,0.593,0,0.89
		C21.169,34.668,21.278,34.243,21.242,33.965z"/>
	<path fill-rule="evenodd" clip-rule="evenodd" fill="#EBEB00" d="M27.02,34.188c0.019,0,0.037,0,0.056,0
		c-0.036,0.26,0.072,0.665-0.056,0.833C27.02,34.742,27.02,34.465,27.02,34.188z"/>
	<path fill-rule="evenodd" clip-rule="evenodd" fill="#8E8E19" d="M21.298,36.021c0.129,0.463,0.019,1.166,0.056,1.722
		C21.225,37.279,21.335,36.576,21.298,36.021z"/>
	<path fill-rule="evenodd" clip-rule="evenodd" fill="#8E8E19" d="M27.02,36.077c-0.037,0.536,0.073,1.221-0.055,1.665
		C27.001,37.205,26.891,36.521,27.02,36.077z"/>
	<path fill-rule="evenodd" clip-rule="evenodd" fill="#8E8E19" d="M0.132,22.854C7.664,15.276,15.22,7.72,22.798,0.188
		C15.266,7.767,7.709,15.322,0.132,22.854z"/>
	<path fill-rule="evenodd" clip-rule="evenodd" fill="#C5C5C5" d="M26.187,0.132c7.578,7.532,15.134,15.088,22.667,22.666
		C41.274,15.266,33.719,7.711,26.187,0.132z"/>
	<path fill-rule="evenodd" clip-rule="evenodd" fill="#8E8E19" d="M26.131,48.909c7.569-7.615,15.162-15.208,22.778-22.777
		C41.34,33.746,33.747,41.34,26.131,48.909z"/>
	<path fill-rule="evenodd" clip-rule="evenodd" fill="#C5C5C5" d="M0.132,26.188c7.578,7.532,15.134,15.087,22.666,22.667
		C15.22,41.322,7.664,33.766,0.132,26.188z"/>
	<path fill-rule="evenodd" clip-rule="evenodd" fill="#8E8E19" d="M0.909,23.854C8.534,16.183,16.183,8.535,23.853,0.91
		C16.229,8.581,8.58,16.229,0.909,23.854z"/>
	<path fill-rule="evenodd" clip-rule="evenodd" fill="#EBEB00" d="M0.909,25.133c7.671,7.624,15.32,15.271,22.944,22.943
		C16.183,40.45,8.534,32.804,0.909,25.133z"/>
	<path fill-rule="evenodd" clip-rule="evenodd" fill="#8E8E19" d="M25.131,48.131c7.644-7.689,15.311-15.355,23-22.998
		C40.488,32.821,32.82,40.488,25.131,48.131z"/>
	<path fill-rule="evenodd" clip-rule="evenodd" fill="#EBEB00" d="M25.131,0.91c7.672,7.625,15.32,15.272,22.945,22.944
		C40.405,16.229,32.756,8.581,25.131,0.91z"/>
	<path fill-rule="evenodd" clip-rule="evenodd" fill="#8E8E19" d="M26.743,10.577c0.591-0.1,1.413-0.057,2.444-0.057
		c0.666,0,2.154-0.188,2.333,0.167c0.015,0.03-0.011,0.08,0,0.11c-0.019,0-0.037,0-0.056,0c0-0.073,0-0.147,0-0.221
		C29.891,10.577,28.316,10.577,26.743,10.577z"/>
	<path fill-rule="evenodd" clip-rule="evenodd" fill="#FFFF00" d="M23.853,0.91c0.309-0.243,0.99-0.309,1.278,0
		c7.625,7.671,15.274,15.318,22.945,22.944c0.31,0.206,0.277,0.996,0.055,1.278c-7.689,7.643-15.357,15.309-23,22.998
		c-0.281,0.224-1.071,0.255-1.278-0.055C16.229,40.404,8.58,32.757,0.909,25.133c-0.309-0.29-0.243-0.971,0-1.278
		C8.58,16.229,16.229,8.581,23.853,0.91z M16.854,10.577c0,2.259,0,4.518,0,6.777c0.037,0.5-0.074,1.147,0.056,1.555
		c-0.165,3.021,1.042,4.184,2.222,5.889c0.277,0.401,0.676,0.91,1.055,1.445c0.494,0.695,1.094,1.281,1,2.223
		c0,0.573,0,1.147,0,1.722c0.036,0.278-0.073,0.702,0.055,0.889c0,0.389,0,0.777,0,1.168c0,0.573,0,1.147,0,1.721
		c0.036,0.278-0.073,0.703,0.056,0.89c0,0.388,0,0.777,0,1.166c0.037,0.556-0.073,1.259,0.056,1.722c0,0.093,0,0.186,0,0.278
		c1.87,0,3.74,0,5.611,0c0-0.093,0-0.186,0-0.278c0.128-0.444,0.019-1.129,0.055-1.665c0-0.353,0-0.705,0-1.057
		c0.128-0.168,0.02-0.573,0.056-0.833c0-0.556,0-1.111,0-1.667c0-0.352,0-0.704,0-1.056c0.127-0.168,0.019-0.573,0.055-0.833
		c0-0.574,0-1.148,0-1.723c-0.062-1.07,0.553-1.6,1-2.278c0.77-1.165,1.34-1.972,2.111-3.054c0.667-0.938,1.356-1.591,1.111-3.224
		c0.128-0.223,0.019-0.684,0.056-1c0-0.667,0-1.332,0-1.999c0-0.426,0-0.853,0-1.278c0.128-0.224,0.019-0.685,0.055-1
		c0-0.666,0-1.333,0-2c0-0.426,0-0.852,0-1.277c0.129-0.224,0.02-0.685,0.056-1.001c-0.011-0.03,0.015-0.08,0-0.11
		c-0.179-0.355-1.667-0.167-2.333-0.167c-1.031,0-1.853-0.043-2.444,0.057c0,1.813,0,3.629,0,5.443
		c-0.129,0.315-0.02,0.87-0.056,1.277c0,0.315,0,0.631,0,0.945c0.121,2.936-1.291,4.339-2.5,5.944
		c-0.706-1.146-1.51-2.193-2.223-3.333c0-0.223,0-0.445,0-0.668c-0.036-0.277,0.073-0.702-0.055-0.888c0-0.37,0-0.741,0-1.111
		c0-0.593,0-1.186,0-1.778c-0.037-0.278,0.073-0.701-0.056-0.889c0-0.369,0-0.74,0-1.11c0-0.593,0-1.186,0-1.778
		c-0.036-0.26,0.073-0.666-0.055-0.833c0-0.39,0-0.778,0-1.167c-0.006-0.01,0.008-0.109,0-0.111
		C20.373,10.195,18.3,10.721,16.854,10.577z"/>
</g>
        <line id='ca_N' class='connection-area' data-len='20' data-angle1='270' data-angle2='270' x1="24" y1="0" x2="25" y2="0"></line>
        <line id='ca_S' class='connection-area' data-len='20' data-angle1='90' data-angle2='90' x1="24" y1="48" x2="25" y2="48"></line>
</svg>
