<?xml version="1.0" encoding="UTF-8" standalone="no"?>
<svg
   xmlns:dc="http://purl.org/dc/elements/1.1/"
   xmlns:cc="http://creativecommons.org/ns#"
   xmlns:rdf="http://www.w3.org/1999/02/22-rdf-syntax-ns#"
   xmlns:svg="http://www.w3.org/2000/svg"
   xmlns="http://www.w3.org/2000/svg"
   xmlns:sodipodi="http://sodipodi.sourceforge.net/DTD/sodipodi-0.dtd"
   xmlns:inkscape="http://www.inkscape.org/namespaces/inkscape"
   width="70"
   height="40"
   id="svg2"
   version="1.1"
   inkscape:version="0.48.4 r9939"
   sodipodi:docname="MergeOperation.svg">
  <metadata
     id="metadata16">
    <rdf:RDF>
      <cc:Work
         rdf:about="">
        <dc:format>image/svg+xml</dc:format>
        <dc:type
           rdf:resource="http://purl.org/dc/dcmitype/StillImage" />
        <dc:title />
      </cc:Work>
    </rdf:RDF>
  </metadata>
  <defs
     id="defs14" />
  <sodipodi:namedview
     pagecolor="#ffffff"
     bordercolor="#666666"
     borderopacity="1"
     objecttolerance="10"
     gridtolerance="10"
     guidetolerance="10"
     inkscape:pageopacity="0"
     inkscape:pageshadow="2"
     inkscape:window-width="1364"
     inkscape:window-height="747"
     id="namedview12"
     showgrid="false"
     inkscape:zoom="5.4285714"
     inkscape:cx="35"
     inkscape:cy="38.736842"
     inkscape:window-x="0"
     inkscape:window-y="19"
     inkscape:window-maximized="1"
     inkscape:current-layer="svg2" />
  <g
     id="g4">
    <ellipse
       class="fill-color border-color"
       cx="35"
       cy="20"
       rx="34"
       ry="19"
       stroke="#000"
       fill="#FFFFFF"
       id="ellipse6" />
    <line
       id="ca_N"
       class="connection-area"
       x1="30"
       y1="0"
       x2="40"
       y2="0" />
    <line
       id="ca_S"
       class="connection-area"
       x1="40"
       y1="40"
       x2="30"
       y2="40" />
    <line
       id="ca_E"
       class="connection-area"
       x1="70"
       y1="15"
       x2="70"
       y2="25" />
    <line
       id="ca_W"
       class="connection-area"
       x1="0"
       y1="25"
       x2="0"
       y2="15" />
  </g>
  <path
     style="fill:none;stroke:#000000;stroke-width:1.19742596;stroke-linecap:butt;stroke-linejoin:miter;stroke-miterlimit:4;stroke-opacity:1;stroke-dasharray:none"
     d="m 40.20751,8.916894 -6.88829,9.8184 0.0458,9.63402 -0.0458,-9.65707 -6.84252,-9.8184 6.84252,9.84145 z"
     id="path3802"
     inkscape:connector-curvature="0" />
  <path
     style="fill:#ff9955"
     d="M 31.201732,38.255751 C 24.308541,37.839633 17.730077,36.174707 12.409906,33.499776 8.6533085,31.610996 4.9450874,28.452006 3.3697683,25.798588 0.65046607,21.218282 1.2266165,16.300979 4.9837458,12.023684 14.505668,1.1834756 40.144254,-1.7901533 56.559046,6.0418489 c 6.306368,3.0089629 9.980591,6.6327341 11.481595,11.3239401 0.394848,1.23405 0.311322,4.214352 -0.160044,5.710527 -0.727331,2.308635 -2.419629,4.727896 -4.659544,6.661146 -4.766359,4.113806 -11.883489,6.954294 -20.447369,8.160663 -1.557745,0.219435 -7.025872,0.569778 -8.289473,0.531107 -0.455922,-0.01394 -1.933038,-0.09202 -3.282479,-0.173481 l 0,0 z m 2.865781,-14.468698 -0.104607,-4.723472 3.392231,-4.839436 c 1.865727,-2.661689 3.392231,-4.8824558 3.392231,-4.9350361 0,-0.05258 -0.24084,-0.2670936 -0.535199,-0.4766963 l -0.5352,-0.3810957 -3.17186,4.5211411 c -1.744524,2.486628 -3.193607,4.496885 -3.220186,4.467237 -0.02658,-0.02965 -1.431554,-2.043379 -3.122161,-4.474958 -1.690608,-2.431579 -3.129961,-4.4413376 -3.198561,-4.4661299 -0.0686,-0.024792 -0.349116,0.1409971 -0.623369,0.3684211 l -0.498641,0.4134981 3.399957,4.8681177 3.399957,4.868119 0,4.756882 0,4.756881 0.765008,0 0.76501,0 -0.10461,-4.723473 z"
     id="path3189"
     inkscape:connector-curvature="0" />
  <path
     style="fill:#ff9955"
     d="M 31.721053,38.204921 C 19.58735,37.370155 10.371274,33.730923 4.9099809,27.617801 3.5780865,26.126939 2.9172137,24.979536 2.3245242,23.128948 1.1738897,19.536256 2.0961552,15.676527 4.9063914,12.3237 8.4444664,8.1025045 15.149327,4.6541571 23.063158,2.9855722 32.675593,0.95884687 43.753915,1.4998847 52.168421,4.4070013 60.124936,7.1558867 65.29806,11.15549 67.528147,16.282381 c 0.544656,1.252141 0.573755,1.43904 0.564081,3.622882 -0.01166,2.633811 -0.26367,3.554127 -1.584217,5.785644 -1.02262,1.728068 -3.834472,4.515181 -5.958011,5.905591 -4.430348,2.900816 -10.681534,5.127306 -17.039474,6.068957 -3.481319,0.515608 -8.679125,0.753449 -11.789473,0.539466 l 0,0 z m 2.443108,-14.385184 -0.101223,-4.743421 2.199144,-3.131579 c 3.354074,-4.7762 4.485286,-6.461372 4.485286,-6.6817477 0,-0.1105828 -0.243541,-0.3744764 -0.541203,-0.5864303 L 39.664962,8.2911882 38.333704,10.183752 c -2.186748,3.10876 -4.97791,6.958354 -5.045178,6.958354 -0.03456,0 -1.413079,-1.915691 -3.063379,-4.25709 -1.6503,-2.3414 -3.101227,-4.2957253 -3.224279,-4.3429456 -0.258226,-0.09909 -1.174552,0.4534979 -1.174552,0.7083108 0,0.094142 1.533552,2.3638698 3.407894,5.0438388 l 3.407895,4.872673 0,4.698132 0,4.698133 0.811641,0 0.811641,0 -0.101226,-4.743421 0,0 z"
     id="path3511"
     inkscape:connector-curvature="0" />
</svg>
