<?xml version="1.0"?><svg width="120" height="85" xmlns="http://www.w3.org/2000/svg"  viewBox="0 0 1487 1052">
 <title>Network</title>

 <metadata id="metadata4057">image/svg+xml</metadata>
 <g>
  <title>Layer 1</title>
  <g id="svg_1">
   <path fill="#ffffff" stroke="#000000" stroke-width="5" stroke-miterlimit="4" id="path4214" d="m737.946533,319.269592c0,48.815552 -39.572815,88.388336 -88.388367,88.388336c-48.815491,0 -88.388367,-39.572784 -88.388367,-88.388336c0,-48.815552 39.572876,-88.388351 88.388367,-88.388351c48.815552,0 88.388367,39.5728 88.388367,88.388351z"/>
   <path fill="#ffffff" stroke="#000000" stroke-width="5" stroke-miterlimit="4" id="path4214-9" d="m312.617554,189.397614c0,48.815552 -39.572815,88.388336 -88.388382,88.388336c-48.815521,0 -88.388336,-39.572784 -88.388336,-88.388336c0,-48.815552 39.572815,-88.388351 88.388336,-88.388351c48.815567,0 88.388382,39.5728 88.388382,88.388351z"/>
   <path fill="#ffffff" stroke="#000000" stroke-width="5" stroke-miterlimit="4" id="path4214-1" d="m372.377625,807.013672c0,48.815552 -39.572815,88.388306 -88.388367,88.388306c-48.815506,0 -88.388321,-39.572754 -88.388321,-88.388306c0,-48.815552 39.572815,-88.388428 88.388321,-88.388428c48.815552,0 88.388367,39.572876 88.388367,88.388428z"/>
   <path fill="#ffffff" stroke="#000000" stroke-width="5" stroke-miterlimit="4" id="path4214-8" d="m1142.367554,418.396576c0,48.815552 -39.572754,88.388336 -88.388306,88.388336c-48.815552,0 -88.388367,-39.572784 -88.388367,-88.388336c0,-48.815552 39.572815,-88.388336 88.388367,-88.388336c48.815552,0 88.388306,39.572784 88.388306,88.388336z"/>
   <path fill="#ffffff" stroke="#ff5500" stroke-width="5" stroke-miterlimit="4" id="path4214-8-8" d="m837.448547,707.607605c0,48.815552 -39.572815,88.388306 -88.388367,88.388306c-48.815552,0 -88.388306,-39.572754 -88.388306,-88.388306c0,-48.815552 39.572754,-88.388367 88.388306,-88.388367c48.815552,0 88.388367,39.572815 88.388367,88.388367z"/>
   <path fill="#ffffff" stroke="#000000" stroke-width="5" stroke-miterlimit="4" id="path4214-7" d="m1257.613525,887.091675c0,48.815552 -39.572754,88.388306 -88.388306,88.388306c-48.815552,0 -88.388428,-39.572754 -88.388428,-88.388306c0,-48.815552 39.572876,-88.388428 88.388428,-88.388428c48.815552,0 88.388306,39.572876 88.388306,88.388428z"/>
   <path fill="#ffffff" stroke="#000000" stroke-width="5" stroke-miterlimit="4" id="path4214-83" d="m1339.465576,160.882599c0,48.815552 -39.572876,88.388336 -88.388428,88.388336c-48.815552,0 -88.388306,-39.572784 -88.388306,-88.388336c0,-48.815552 39.572754,-88.388351 88.388306,-88.388351c48.815552,0 88.388428,39.5728 88.388428,88.388351z"/>
   <path fill="none" stroke="#000000" stroke-width="5" stroke-linecap="round" stroke-miterlimit="4" id="path6468" d="m320.059753,216.910477l236.098145,68.689346"/>
   <path fill="none" stroke="#000000" stroke-width="5" stroke-linecap="round" stroke-miterlimit="4" id="path6470" d="m744.194763,348.845795l210.884277,49.183594"/>
   <path fill="none" stroke="#000000" stroke-width="5" stroke-linecap="round" stroke-miterlimit="4" id="path6472" d="m1113.355469,340.010345l78.62085,-99.898102"/>
   <path fill="none" stroke="#000000" stroke-width="5" stroke-linecap="round" stroke-miterlimit="4" id="path6474" d="m666.926636,416.646393l57.083008,194.657196"/>
   <path fill="#ff5500" stroke="#000000" stroke-width="5" stroke-linecap="round" stroke-miterlimit="4" id="path6476" d="m988.450806,493.092194l-160.36261,155.761444"/>
   <path fill="none" stroke="#000000" stroke-width="5" stroke-linecap="round" stroke-miterlimit="4" id="path6478" d="m381.922272,787.069946l270.220306,-60.368347"/>
   <path fill="none" stroke="#000000" stroke-width="5" stroke-linecap="round" stroke-miterlimit="4" id="path6480" d="m830.372986,764.483154l242.705383,98.560547"/>
   <path fill="none" stroke="#000000" stroke-width="5" stroke-linecap="round" stroke-miterlimit="4" id="path6482" d="m662.210999,661.530579l-385.879395,-387.11142"/>
   <path fill="none" stroke="#000000" stroke-width="5" stroke-linecap="round" stroke-miterlimit="4" id="path6484" d="m572.020935,378.946381l-242.270233,339.69931"/>
   <path fill="none" stroke="#000000" stroke-width="5" stroke-linecap="round" stroke-miterlimit="4" id="path6486" d="m741.067383,279.352203l411.187866,-104.539276"/>
   <path fill="none" stroke="#000000" stroke-width="5" stroke-linecap="round" stroke-miterlimit="4" id="path6490" d="m1241.213257,261.571686l-54.111572,527.858002"/>
   <path fill="none" stroke="#000000" stroke-width="5" stroke-linecap="round" stroke-miterlimit="4" id="path6492" d="m1084.064209,511.644653l48.925903,282.982788"/>
  </g>
 </g>
</svg>