<svg width="32" height="32" xmlns="http://www.w3.org/2000/svg">
	<g>
		<g>
			<path d="M26.969,16.425l-0.076-0.001c-0.158,0-0.318,0.007-0.479,0.024c-0.838-3.366-3.816-5.771-7.354-5.827l-0.121-0.001
			c-1.473,0-2.879,0.427-4.078,1.179c-1.091-1.268-2.704-2.073-4.504-2.073c-3.279,0-5.948,2.668-5.948,5.948
			c0,0.909,0.208,1.769,0.575,2.538c-0.354,0.744-0.561,1.568-0.574,2.438c-0.051,3.291,2.586,6.009,5.875,6.06h0.008l16.518-0.065
			l0.08,0c2.773,0,5.065-2.257,5.108-5.031C32.043,18.795,29.785,16.468,26.969,16.425z M10.357,11.247
			c1.312,0,2.483,0.581,3.294,1.491c-0.677,0.638-1.243,1.4-1.657,2.26c-0.495-0.141-1.006-0.215-1.523-0.223l-0.095-0.001
			c-1.699,0-3.239,0.73-4.331,1.887c-0.073-0.317-0.115-0.647-0.115-0.987C5.93,13.232,7.916,11.247,10.357,11.247z M26.891,25.124
			h-0.071l-16.517,0.064c-2.449-0.042-4.41-2.065-4.372-4.515c0.037-2.415,2.031-4.379,4.445-4.379l0.071,0.001
			c0.575,0.008,1.138,0.127,1.672,0.355l0.736,0.314l0.275-0.753c0.889-2.435,3.223-4.07,5.809-4.07l0.098,0
			c3.05,0.047,5.583,2.272,6.023,5.291l0.121,0.836L26,18.06c0.301-0.077,0.602-0.116,0.893-0.116l0.052,0.001
			c1.979,0.029,3.565,1.665,3.534,3.644C30.449,23.539,28.84,25.124,26.891,25.124z"></path>
		</g>
		<g>
			<path d="M5.812,9.423c0.144,0.236,0.394,0.366,0.651,0.366c0.133,0,0.27-0.036,0.393-0.11C7.215,9.461,7.33,8.994,7.111,8.635
			L5.845,6.544C5.627,6.185,5.16,6.07,4.801,6.288C4.441,6.505,4.327,6.973,4.545,7.332L5.812,9.423z"></path>
		</g>
		<g>
			<path d="M10.357,8.902c0.42,0,0.76-0.341,0.76-0.76v-2.09c0-0.42-0.34-0.76-0.76-0.76s-0.76,0.34-0.76,0.76v2.09
			C9.598,8.561,9.938,8.902,10.357,8.902z"></path>
		</g>
		<g>
			<path d="M3.848,11.274L1.63,10.071C1.262,9.87,0.799,10.007,0.6,10.376c-0.201,0.369-0.064,0.831,0.305,1.031l2.217,1.204
			c0.115,0.062,0.24,0.092,0.362,0.092c0.271,0,0.531-0.144,0.669-0.397C4.354,11.937,4.216,11.475,3.848,11.274z"></path>
		</g>
		<g>
			<path d="M3.136,14.913H0.76c-0.42,0-0.76,0.341-0.76,0.76s0.34,0.76,0.76,0.76h2.376c0.419,0,0.761-0.341,0.761-0.76
			S3.555,14.913,3.136,14.913z"></path>
		</g>
	</g>
</svg>