<svg width="32" height="32" xmlns="http://www.w3.org/2000/svg">
	<g>
		<g>
			<path d="M16,0C7.177,0,0,7.178,0,16s7.177,16,16,16c8.822,0,15.999-7.178,15.999-16S24.822,0,16,0z M16,28.888
			C8.894,28.888,3.111,23.106,3.111,16C3.111,8.894,8.894,3.112,16,3.112c7.105,0,12.887,5.782,12.887,12.888
			C28.887,23.106,23.105,28.888,16,28.888z"></path>
		</g>
		<g>
			<path d="M23.267,15.237l-9.479-6.682c-0.285-0.202-0.658-0.226-0.969-0.065c-0.309,0.161-0.503,0.48-0.503,0.829v13.364
			c0,0.348,0.194,0.667,0.503,0.828c0.136,0.07,0.283,0.105,0.43,0.105c0.189,0,0.378-0.058,0.539-0.17l9.479-6.682
			c0.248-0.175,0.396-0.459,0.396-0.763S23.515,15.412,23.267,15.237z M14.182,20.882v-9.764L21.109,16L14.182,20.882z"></path>
		</g>
	</g>
</svg>