<svg width="32" height="32" xmlns="http://www.w3.org/2000/svg">
	<g>
		<g>
			<path d="M6.551,31.998L6.551,31.998c-0.885,0-1.745-0.175-2.557-0.519c-0.223-0.094-0.384-0.293-0.431-0.53
				c-0.046-0.237,0.029-0.481,0.199-0.652l2.571-2.57V25.67H4.276l-2.57,2.569c-0.171,0.171-0.415,0.247-0.653,0.199
				c-0.237-0.046-0.436-0.207-0.53-0.431c-1.045-2.469-0.497-5.286,1.396-7.179c1.234-1.236,2.876-1.916,4.623-1.916
				c0.717,0,1.419,0.115,2.091,0.342L19.252,8.636c-0.794-2.351-0.202-4.939,1.572-6.714c1.235-1.234,2.877-1.914,4.624-1.914
				c0.885,0,1.745,0.174,2.557,0.518c0.224,0.095,0.385,0.293,0.432,0.53c0.046,0.237-0.028,0.482-0.2,0.653l-2.57,2.571v2.057
				h2.058l2.569-2.57c0.172-0.171,0.413-0.247,0.653-0.199c0.236,0.045,0.436,0.207,0.529,0.431c1.045,2.469,0.497,5.287-1.396,7.18
				c-1.233,1.234-2.876,1.914-4.622,1.914c-0.718,0-1.419-0.114-2.091-0.341L12.747,23.369c0.794,2.351,0.202,4.939-1.574,6.715
				C9.94,31.317,8.297,31.998,6.551,31.998z M5.652,30.465c0.294,0.052,0.595,0.078,0.899,0.078c1.359,0,2.635-0.528,3.595-1.487
				c1.473-1.473,1.898-3.665,1.085-5.585c-0.116-0.273-0.054-0.589,0.156-0.799L22.669,11.39c0.211-0.209,0.526-0.272,0.798-0.156
				c0.632,0.267,1.303,0.403,1.99,0.403c1.358,0,2.635-0.528,3.595-1.488c1.199-1.199,1.704-2.876,1.411-4.496l-1.926,1.925
				C28.4,7.714,28.216,7.79,28.023,7.79h-3.085c-0.4,0-0.727-0.325-0.727-0.727V3.978c0-0.193,0.076-0.377,0.213-0.514l1.924-1.923
				c-0.295-0.052-0.595-0.079-0.899-0.079c-1.358,0-2.636,0.529-3.596,1.488c-1.472,1.473-1.897,3.665-1.085,5.585
				c0.115,0.272,0.054,0.588-0.155,0.798L9.33,20.616c-0.209,0.209-0.526,0.271-0.798,0.155c-0.632-0.267-1.301-0.403-1.99-0.403
				c-1.359,0-2.635,0.528-3.595,1.489c-1.199,1.199-1.705,2.876-1.411,4.496l1.925-1.925c0.137-0.138,0.321-0.213,0.514-0.213h3.085
				c0.401,0,0.727,0.325,0.727,0.727v3.086c0,0.192-0.076,0.378-0.213,0.514L5.652,30.465z"></path>
		</g>
		<g>
			<path d="M29.091,31.998c-0.776,0-1.508-0.303-2.057-0.853L20.35,24.46c-0.284-0.283-0.284-0.744,0-1.028
				l3.085-3.084c0.283-0.284,0.744-0.284,1.028,0l6.685,6.685c0.55,0.549,0.853,1.28,0.853,2.057c0,0.777-0.304,1.509-0.853,2.058
				S29.868,31.998,29.091,31.998z M21.894,23.946l6.169,6.171c0.549,0.549,1.507,0.55,2.057,0c0.275-0.274,0.426-0.64,0.426-1.028
				s-0.15-0.754-0.425-1.028l-6.17-6.171L21.894,23.946z"></path>
		</g>
		<g>
			<rect x="4.155" y="9.292" transform="matrix(-0.7071 -0.7071 0.7071 -0.7071 10.024 24.1904)" width="11.734" height="1.454"></rect>
		</g>
		<g>
			<path d="M19.321,26.217c-0.187,0-0.373-0.071-0.515-0.213c-0.284-0.284-0.284-0.744,0-1.028l6.17-6.171
				c0.284-0.284,0.744-0.284,1.028,0c0.284,0.285,0.284,0.744,0,1.028l-6.17,6.171C19.693,26.146,19.507,26.217,19.321,26.217z"></path>
		</g>
		<g>
			<path d="M4.845,7.626c-0.187,0-0.373-0.071-0.514-0.213L0.217,3.3C0.081,3.164,0.004,2.979,0.004,2.786
				c0-0.194,0.076-0.378,0.213-0.514l2.057-2.057c0.285-0.285,0.744-0.285,1.028,0l4.113,4.114C7.552,4.466,7.628,4.65,7.628,4.843
				c0,0.193-0.076,0.378-0.213,0.514L5.359,7.414C5.217,7.556,5.031,7.626,4.845,7.626z M1.76,2.786l3.085,3.085l1.028-1.028
				L2.788,1.758L1.76,2.786z"></path>
		</g>
		<g>
			<rect x="16.151" y="19.195" transform="matrix(-0.7072 -0.707 0.707 -0.7072 19.9308 48.0993)" width="7.55" height="1.454"></rect>
		</g>
	</g>
</svg>