<?xml version="1.0" encoding="utf-8"?>
<!-- Generator: Adobe Illustrator 15.1.0, SVG Export Plug-In . SVG Version: 6.00 Build 0)  -->
<!DOCTYPE svg PUBLIC "-//W3C//DTD SVG 1.1//EN" "http://www.w3.org/Graphics/SVG/1.1/DTD/svg11.dtd">
<svg version="1.1" id="Layer_1" xmlns="http://www.w3.org/2000/svg" xmlns:xlink="http://www.w3.org/1999/xlink" x="0px" y="0px"
	 width="50px" height="50px" viewBox="0 0 50 50" enable-background="new 0 0 50 50" xml:space="preserve">
<g>
	<path fill-rule="evenodd" clip-rule="evenodd" d="M24.278,0c0.445,0,0.889,0,1.333,0c0.407,0.148,0.739,0.372,1.056,0.611
		c7.532,7.578,15.088,15.134,22.666,22.667c0.295,0.409,0.559,0.849,0.667,1.445c0,0.147,0,0.296,0,0.444
		c-0.113,0.59-0.333,1.073-0.667,1.444c-7.578,7.532-15.134,15.088-22.666,22.666c-0.378,0.363-0.877,0.605-1.5,0.723
		c-0.148,0-0.297,0-0.444,0c-0.596-0.108-1.036-0.372-1.445-0.667C15.746,41.755,8.189,34.199,0.611,26.667
		C0.372,26.351,0.148,26.019,0,25.611c0-0.444,0-0.889,0-1.333c0.17-0.33,0.317-0.683,0.556-0.944
		C8.171,15.764,15.764,8.171,23.333,0.556C23.595,0.317,23.948,0.17,24.278,0z M25.611,1.389c-0.207-0.31-0.997-0.278-1.278-0.055
		c-7.69,7.643-15.357,15.31-23,23c-0.223,0.281-0.254,1.071,0.055,1.278c7.625,7.671,15.273,15.319,22.945,22.944
		c0.289,0.308,0.969,0.242,1.278,0c7.671-7.625,15.319-15.273,22.944-22.944c0.242-0.309,0.308-0.989,0-1.278
		C40.931,16.662,33.282,9.014,25.611,1.389z"/>
	<path fill-rule="evenodd" clip-rule="evenodd" d="M22.5,11.722c0-0.037,0-0.074,0-0.111c0.162-0.302,0.832-0.167,1.278-0.167
		c1.349,0,2.948,0,4.333,0c0,0.093,0,0.186,0,0.278c0.036,0.556-0.074,1.259,0.056,1.722c0,0.389,0,0.778,0,1.167
		c0,0.296,0,0.592,0,0.889c0.036,0.556-0.074,1.259,0.056,1.722c0,0.389,0,0.778,0,1.167c0,0.296,0,0.593,0,0.889
		c0.036,0.556-0.074,1.259,0.055,1.722c-0.094,0.94,0.507,1.526,1,2.222c0.38,0.535,0.778,1.043,1.056,1.445
		c1.181,1.705,2.387,2.866,2.223,5.889c0.036,0.5-0.074,1.147,0.056,1.556c0,2.259,0,4.519,0,6.777
		c-1.63-0.036-3.407,0.073-4.944-0.056c0-0.389,0-0.777,0-1.166c0-0.278,0-0.556,0-0.834c-0.037-0.574,0.073-1.296-0.056-1.777
		c0-0.37,0-0.741,0-1.111c0-0.296,0-0.593,0-0.889c-0.037-0.574,0.073-1.296-0.056-1.778c0-0.37,0-0.74,0-1.11
		c0-0.297,0-0.593,0-0.89c-0.035-0.205,0.072-0.553-0.056-0.666c-0.712-1.14-1.517-2.188-2.223-3.334
		c-1.209,1.605-2.621,3.009-2.5,5.945c-0.128,0.204-0.02,0.646-0.056,0.944c0,0.426,0,0.852,0,1.277c0,1.814,0,3.63,0,5.444
		c-1.574,0-3.148,0-4.722,0c0-0.074,0-0.147,0-0.222c0-0.334,0-0.667,0-1c0-0.426,0-0.853,0-1.278c0.129-0.556,0.019-1.352,0.056-2
		c0-0.333,0-0.666,0-1c0-0.426,0-0.852,0-1.277c0.129-0.556,0.019-1.352,0.056-2c0-0.334,0-0.667,0-1
		c-0.245-1.632,0.444-2.286,1.111-3.223c0.771-1.083,1.341-1.89,2.111-3.055c0.447-0.678,1.062-1.208,1-2.278
		c0.129-0.463,0.019-1.167,0.055-1.722c0-0.278,0-0.556,0-0.833c0-0.352,0-0.704,0-1.056c0.129-0.445,0.019-1.129,0.056-1.667
		c0-0.278,0-0.556,0-0.833c0-0.352,0-0.704,0-1.056C22.574,12.944,22.463,12.26,22.5,11.722z"/>
	<path fill-rule="evenodd" clip-rule="evenodd" fill="#8E8E19" d="M22.444,13.389c0.037-0.537-0.074-1.222,0.056-1.667
		C22.463,12.26,22.574,12.944,22.444,13.389z"/>
	<path fill-rule="evenodd" clip-rule="evenodd" fill="#8E8E19" d="M28.111,11.722c0.129,0.463,0.019,1.167,0.056,1.722
		C28.037,12.981,28.147,12.278,28.111,11.722z"/>
	<path fill-rule="evenodd" clip-rule="evenodd" fill="#EBEB00" d="M22.444,14.444c0,0.278,0,0.556,0,0.833c-0.019,0-0.037,0-0.056,0
		C22.425,15.018,22.316,14.612,22.444,14.444z"/>
	<path fill-rule="evenodd" clip-rule="evenodd" fill="#EBEB00" d="M28.167,14.611c0.128,0.186,0.02,0.61,0.056,0.889
		c-0.019,0-0.037,0-0.056,0C28.167,15.204,28.167,14.907,28.167,14.611z"/>
	<path fill-rule="evenodd" clip-rule="evenodd" fill="#8E8E19" d="M22.389,15.278c0.019,0,0.037,0,0.056,0
		c-0.037,0.537,0.074,1.222-0.056,1.667C22.389,16.389,22.389,15.833,22.389,15.278z"/>
	<path fill-rule="evenodd" clip-rule="evenodd" fill="#8E8E19" d="M28.167,15.5c0.019,0,0.037,0,0.056,0c0,0.574,0,1.148,0,1.722
		C28.093,16.759,28.203,16.056,28.167,15.5z"/>
	<path fill-rule="evenodd" clip-rule="evenodd" fill="#EBEB00" d="M22.389,18c0,0.278,0,0.556,0,0.833c-0.019,0-0.037,0-0.055,0
		C22.369,18.573,22.261,18.168,22.389,18z"/>
	<path fill-rule="evenodd" clip-rule="evenodd" fill="#EBEB00" d="M28.223,18.389c0.128,0.187,0.019,0.61,0.055,0.889
		c-0.019,0-0.036,0-0.055,0C28.223,18.981,28.223,18.685,28.223,18.389z"/>
	<path fill-rule="evenodd" clip-rule="evenodd" fill="#8E8E19" d="M22.333,18.833c0.019,0,0.037,0,0.055,0
		c-0.037,0.556,0.074,1.259-0.055,1.722C22.333,19.981,22.333,19.407,22.333,18.833z"/>
	<path fill-rule="evenodd" clip-rule="evenodd" fill="#8E8E19" d="M28.223,19.278c0.019,0,0.036,0,0.055,0c0,0.574,0,1.148,0,1.722
		C28.148,20.537,28.259,19.833,28.223,19.278z"/>
	<path fill-rule="evenodd" clip-rule="evenodd" fill="#8E8E19" d="M27.5,28.611c0.128,0.113,0.021,0.461,0.056,0.666
		c-0.019,0-0.037,0-0.056,0C27.5,29.056,27.5,28.833,27.5,28.611z"/>
	<path fill-rule="evenodd" clip-rule="evenodd" fill="#EBEB00" d="M18.111,29.111c0,0.333,0,0.666,0,1c-0.019,0-0.037,0-0.056,0
		C18.092,29.796,17.982,29.334,18.111,29.111z"/>
	<path fill-rule="evenodd" clip-rule="evenodd" fill="#EBEB00" d="M27.5,29.277c0.019,0,0.037,0,0.056,0c0,0.297,0,0.593,0,0.89
		C27.427,29.98,27.536,29.557,27.5,29.277z"/>
	<path fill-rule="evenodd" clip-rule="evenodd" fill="#8E8E19" d="M18.056,30.111c0.019,0,0.037,0,0.056,0
		c-0.037,0.648,0.074,1.444-0.056,2C18.056,31.444,18.056,30.777,18.056,30.111z"/>
	<path fill-rule="evenodd" clip-rule="evenodd" fill="#8E8E19" d="M32.556,30.556c0.129,0.408,0.019,1.055,0.056,1.556
		C32.481,31.703,32.592,31.056,32.556,30.556z"/>
	<path fill-rule="evenodd" clip-rule="evenodd" fill="#8E8E19" d="M22.778,31.223c0,0.314,0,0.629,0,0.944c-0.019,0-0.037,0-0.056,0
		C22.758,31.869,22.649,31.427,22.778,31.223z"/>
	<path fill-rule="evenodd" clip-rule="evenodd" fill="#8E8E19" d="M27.556,31.277c0.129,0.482,0.019,1.204,0.056,1.778
		c-0.019,0-0.037,0-0.056,0C27.556,32.463,27.556,31.87,27.556,31.277z"/>
	<path fill-rule="evenodd" clip-rule="evenodd" fill="#EBEB00" d="M22.722,32.167c0.019,0,0.037,0,0.056,0
		c-0.037,0.407,0.073,0.962-0.056,1.277C22.722,33.019,22.722,32.593,22.722,32.167z"/>
	<path fill-rule="evenodd" clip-rule="evenodd" fill="#EBEB00" d="M27.556,33.056c0.019,0,0.037,0,0.056,0c0,0.296,0,0.593,0,0.889
		C27.482,33.758,27.592,33.334,27.556,33.056z"/>
	<path fill-rule="evenodd" clip-rule="evenodd" fill="#EBEB00" d="M18.056,33.389c0,0.334,0,0.667,0,1c-0.019,0-0.037,0-0.056,0
		C18.036,34.073,17.927,33.612,18.056,33.389z"/>
	<path fill-rule="evenodd" clip-rule="evenodd" fill="#8E8E19" d="M18,34.389c0.019,0,0.037,0,0.056,0
		c-0.037,0.648,0.074,1.444-0.056,2C18,35.722,18,35.056,18,34.389z"/>
	<path fill-rule="evenodd" clip-rule="evenodd" fill="#8E8E19" d="M27.611,35.056c0.129,0.481,0.019,1.203,0.056,1.777
		c-0.019,0-0.037,0-0.056,0C27.611,36.24,27.611,35.648,27.611,35.056z"/>
	<path fill-rule="evenodd" clip-rule="evenodd" fill="#EBEB00" d="M27.611,36.833c0.019,0,0.037,0,0.056,0c0,0.278,0,0.556,0,0.834
		C27.538,37.499,27.647,37.094,27.611,36.833z"/>
	<path fill-rule="evenodd" clip-rule="evenodd" fill="#EBEB00" d="M18,37.667c0,0.333,0,0.666,0,1c-0.019,0-0.037,0-0.056,0
		C17.98,38.351,17.872,37.89,18,37.667z"/>
	<path fill-rule="evenodd" clip-rule="evenodd" fill="#8E8E19" d="M27.667,38.833c1.537,0.129,3.314,0.02,4.944,0.056
		c-0.723,0.13-1.686,0.019-2.5,0.056C29.331,38.872,28.262,39.09,27.667,38.833z"/>
	<path fill-rule="evenodd" clip-rule="evenodd" fill="#8E8E19" d="M0.556,23.333C8.125,15.718,15.718,8.125,23.333,0.556
		C15.764,8.171,8.171,15.764,0.556,23.333z"/>
	<path fill-rule="evenodd" clip-rule="evenodd" fill="#C5C5C5" d="M26.667,0.611c7.578,7.532,15.134,15.088,22.666,22.667
		C41.755,15.746,34.199,8.189,26.667,0.611z"/>
	<path fill-rule="evenodd" clip-rule="evenodd" fill="#8E8E19" d="M26.667,49.277c7.532-7.578,15.088-15.134,22.666-22.666
		C41.801,34.189,34.245,41.745,26.667,49.277z"/>
	<path fill-rule="evenodd" clip-rule="evenodd" fill="#C5C5C5" d="M0.611,26.667c7.578,7.532,15.134,15.088,22.667,22.666
		C15.699,41.801,8.144,34.245,0.611,26.667z"/>
	<path fill-rule="evenodd" clip-rule="evenodd" fill="#8E8E19" d="M1.333,24.333c7.643-7.69,15.31-15.357,23-23
		C16.69,9.023,9.023,16.69,1.333,24.333z"/>
	<path fill-rule="evenodd" clip-rule="evenodd" fill="#EBEB00" d="M1.389,25.611c7.671,7.625,15.32,15.273,22.945,22.944
		C16.662,40.931,9.014,33.282,1.389,25.611z"/>
	<path fill-rule="evenodd" clip-rule="evenodd" fill="#8E8E19" d="M25.611,48.556c7.625-7.671,15.273-15.319,22.944-22.944
		C40.931,33.282,33.282,40.931,25.611,48.556z"/>
	<path fill-rule="evenodd" clip-rule="evenodd" fill="#EBEB00" d="M25.611,1.389c7.671,7.625,15.319,15.273,22.944,22.945
		C40.885,16.708,33.236,9.06,25.611,1.389z"/>
	<path fill-rule="evenodd" clip-rule="evenodd" fill="#8E8E19" d="M17.944,38.667c0.019,0,0.037,0,0.056,0c0,0.074,0,0.147,0,0.222
		c1.574,0,3.148,0,4.722,0c-1.05,0.101-2.533,0.056-3.778,0.056C18.615,38.944,17.956,39.131,17.944,38.667z"/>
	<path fill-rule="evenodd" clip-rule="evenodd" fill="#FFFF00" d="M24.333,1.333c0.281-0.223,1.071-0.254,1.278,0.055
		c7.625,7.671,15.273,15.32,22.944,22.945c0.308,0.289,0.242,0.969,0,1.278c-7.671,7.625-15.319,15.273-22.944,22.944
		c-0.309,0.242-0.989,0.308-1.278,0C16.708,40.885,9.06,33.236,1.389,25.611c-0.31-0.207-0.278-0.997-0.055-1.278
		C9.023,16.69,16.69,9.023,24.333,1.333z M22.5,11.722c-0.129,0.445-0.019,1.129-0.056,1.667c0,0.352,0,0.704,0,1.056
		c-0.128,0.168-0.02,0.573-0.056,0.833c0,0.556,0,1.111,0,1.667c0,0.352,0,0.704,0,1.056c-0.128,0.168-0.02,0.573-0.055,0.833
		c0,0.574,0,1.148,0,1.722c0.062,1.07-0.553,1.6-1,2.278c-0.77,1.166-1.34,1.972-2.111,3.055c-0.667,0.937-1.355,1.591-1.111,3.223
		c-0.129,0.223-0.02,0.685-0.056,1c0,0.666,0,1.333,0,2c0,0.426,0,0.852,0,1.277c-0.129,0.224-0.02,0.685-0.056,1
		c0,0.667,0,1.333,0,2c0,0.426,0,0.853,0,1.278c-0.128,0.223-0.02,0.684-0.056,1c0.012,0.464,0.671,0.277,1,0.277
		c1.245,0,2.728,0.045,3.778-0.056c0-1.814,0-3.63,0-5.444c0.129-0.315,0.019-0.87,0.056-1.277c0-0.315,0-0.63,0-0.944
		c-0.121-2.937,1.291-4.34,2.5-5.945c0.706,1.146,1.511,2.194,2.223,3.334c0,0.222,0,0.444,0,0.666
		c0.036,0.279-0.073,0.703,0.056,0.89c0,0.37,0,0.74,0,1.11c0,0.593,0,1.186,0,1.778c0.036,0.278-0.073,0.702,0.056,0.889
		c0,0.37,0,0.741,0,1.111c0,0.593,0,1.185,0,1.777c0.036,0.261-0.073,0.666,0.056,0.834c0,0.389,0,0.777,0,1.166
		c0.595,0.257,1.664,0.039,2.444,0.111c0.814-0.037,1.777,0.074,2.5-0.056c0-2.259,0-4.519,0-6.777
		c-0.037-0.501,0.073-1.147-0.056-1.556c0.164-3.022-1.042-4.184-2.223-5.889c-0.277-0.401-0.676-0.91-1.056-1.445
		c-0.493-0.696-1.094-1.282-1-2.222c0-0.574,0-1.148,0-1.722c-0.036-0.279,0.073-0.703-0.055-0.889c0-0.389,0-0.777,0-1.167
		c0-0.574,0-1.148,0-1.722c-0.036-0.279,0.072-0.703-0.056-0.889c0-0.389,0-0.778,0-1.167c-0.037-0.556,0.073-1.259-0.056-1.722
		c0-0.092,0-0.185,0-0.278c-1.386,0-2.984,0-4.333,0c-0.446,0-1.116-0.135-1.278,0.167C22.5,11.648,22.5,11.685,22.5,11.722z"/>
</g>
        <line id='ca_N' class='connection-area' data-len='20' data-angle1='270' data-angle2='270' x1="24" y1="0" x2="25" y2="0"></line>
        <line id='ca_S' class='connection-area' data-len='20' data-angle1='90' data-angle2='90' x1="24" y1="48" x2="25" y2="48"></line>
</svg>
